<svg width="20" height="20" viewBox="0 0 20 20" fill="#5EF7FF" xmlns="http://www.w3.org/2000/svg">
<g clip-path="url(#clip0_115_79)">
<path d="M12.5001 16.7916C12.6974 16.7916 12.8573 16.6317 12.8573 16.4344C12.8573 16.2371 12.6974 16.0772 12.5001 16.0772C12.3029 16.0772 12.1429 16.2371 12.1429 16.4344C12.1429 16.6317 12.3029 16.7916 12.5001 16.7916Z" fill="#5EF7FF"/>
<path d="M18.533 11.4339C18.5326 11.3374 18.5712 11.2449 18.6401 11.1774C19.1972 10.6337 19.4151 9.83044 19.209 9.07981C19.0029 8.32918 18.4055 7.7497 17.6489 7.56664C17.5515 7.54351 17.4682 7.4805 17.4195 7.39302C17.3707 7.30555 17.3609 7.20164 17.3925 7.10659C17.4644 6.88942 17.501 6.66209 17.5007 6.43331C17.5042 5.94982 17.3401 5.48008 17.0363 5.10387C16.9543 5.00206 16.9344 4.86353 16.9845 4.74277C17.0904 4.48599 17.1444 4.2108 17.1435 3.93304C17.1423 2.74994 16.1835 1.79112 15.0004 1.78995C14.885 1.78905 14.7697 1.79898 14.6561 1.8196C14.4661 1.85558 14.282 1.73385 14.2407 1.54492C14.0262 0.564074 13.1067 -0.0971699 12.1085 0.0117092C11.1104 0.120588 10.3551 0.964509 10.3571 1.96852V5.00456H11.7858C11.983 5.00456 12.143 4.84466 12.143 4.64737V3.86729C11.6509 3.69332 11.3558 3.19018 11.444 2.67583C11.5323 2.16148 11.9783 1.7855 12.5001 1.7855C13.022 1.7855 13.468 2.16148 13.5563 2.67583C13.6445 3.19018 13.3494 3.69332 12.8573 3.86729V4.64737C12.8573 5.23916 12.3776 5.71894 11.7858 5.71894H10.3571V6.43331H15.3576C15.5549 6.43331 15.7148 6.59321 15.7148 6.7905C15.7148 6.98779 15.5549 7.14769 15.3576 7.14769H10.3571V7.86206H12.8573C13.0546 7.86206 13.2145 8.02196 13.2145 8.21925C13.2145 8.41654 13.0546 8.57644 12.8573 8.57644H10.3571V9.29081H15.3576C15.9494 9.29081 16.4292 9.77055 16.4292 10.3624V11.1425C16.9212 11.3164 17.2164 11.8196 17.1281 12.3339C17.0399 12.8483 16.5939 13.2242 16.072 13.2242C15.5501 13.2242 15.1041 12.8483 15.0158 12.3339C14.9276 11.8196 15.2227 11.3164 15.7148 11.1425V10.3624C15.7148 10.1651 15.5549 10.0052 15.3576 10.0052H10.3571V10.7196H11.0714C11.2687 10.7196 11.4286 10.8795 11.4286 11.0767C11.4286 11.274 11.2687 11.4339 11.0714 11.4339H10.3571V12.1483H13.5717C13.769 12.1483 13.9289 12.3082 13.9289 12.5055C13.9289 12.7027 13.769 12.8627 13.5717 12.8627H10.3571V13.5771H11.7858C12.3776 13.5771 12.8573 14.0568 12.8573 14.6486V15.4287C13.3494 15.6027 13.6445 16.1058 13.5563 16.6202C13.468 17.1345 13.022 17.5105 12.5001 17.5105C11.9783 17.5105 11.5323 17.1345 11.444 16.6202C11.3558 16.1058 11.6509 15.6027 12.143 15.4287V14.6485C12.143 14.4512 11.9831 14.2913 11.7858 14.2913H10.3571V18.0417C10.3603 19.0547 11.1334 19.8992 12.1421 19.9917C13.151 20.0842 14.0647 19.3944 14.2521 18.3989C14.2705 18.2979 14.3314 18.2096 14.4194 18.1567C14.5074 18.1038 14.6139 18.0913 14.7118 18.1224C15.3632 18.3257 16.0724 18.2075 16.6226 17.8039C17.1729 17.4004 17.4988 16.7595 17.5007 16.0772C17.5012 15.9492 17.4892 15.8214 17.465 15.6957C17.4292 15.5122 17.5409 15.3322 17.7211 15.2828C18.4585 15.0777 19.0302 14.4942 19.2202 13.7527C19.4102 13.0113 19.1897 12.2248 18.6419 11.6903C18.5724 11.6231 18.5331 11.5305 18.533 11.4339Z" fill="#5EF7FF"/>
<path d="M7.67815 0.00402832C6.75747 0.00750526 5.96133 0.646716 5.759 1.5449C5.7177 1.73379 5.53358 1.85556 5.3436 1.81958C5.23 1.79895 5.11471 1.78903 4.99927 1.78993C3.81617 1.7911 2.85735 2.74992 2.85618 3.93301C2.85505 4.2107 2.90884 4.48589 3.0144 4.74275C3.06456 4.86354 3.04468 5.00204 2.9626 5.10384C2.65913 5.48014 2.49532 5.94987 2.49899 6.43329C2.49837 6.66202 2.53454 6.88935 2.60615 7.10656C2.63772 7.20161 2.62791 7.30553 2.57916 7.393C2.5304 7.48047 2.44715 7.54345 2.34972 7.56661C1.59307 7.74956 0.995509 8.329 0.789392 9.07967C0.583276 9.83034 0.801073 10.6337 1.35817 11.1774C1.42755 11.2447 1.46673 11.3372 1.46673 11.4339C1.46673 11.5305 1.42755 11.6231 1.35817 11.6903C0.810332 12.225 0.589878 13.0115 0.779977 13.753C0.970115 14.4944 1.54186 15.0778 2.27932 15.2829C2.45926 15.3326 2.57056 15.5126 2.5347 15.6958C2.51048 15.8215 2.49852 15.9493 2.49899 16.0773C2.50079 16.7597 2.82665 17.4007 3.3769 17.8043C3.92716 18.2079 4.63641 18.3262 5.28785 18.1229C5.38587 18.0912 5.49284 18.1033 5.58124 18.1562C5.66965 18.2091 5.73095 18.2976 5.74931 18.399C5.94078 19.3902 6.85232 20.0749 7.85763 19.9827C8.86293 19.8904 9.63466 19.0513 9.64259 18.0418V16.4345C9.64142 15.2514 8.6826 14.2925 7.4995 14.2914C7.30225 14.2914 7.14231 14.1315 7.14231 13.9342C7.14231 13.7369 7.30221 13.577 7.4995 13.577C8.3208 13.5775 9.10198 13.9324 9.64259 14.5507V8.9336C9.64142 7.7505 8.6826 6.79169 7.4995 6.79051C7.30225 6.79051 7.14231 6.63061 7.14231 6.43333C7.14231 6.23608 7.30221 6.07614 7.4995 6.07614C8.3208 6.07661 9.10198 6.43149 9.64259 7.0498V1.96854C9.64145 0.884046 8.76261 0.00520032 7.67815 0.00402832ZM5.71364 11.4339C4.72779 11.435 3.92892 12.234 3.92774 13.2198C3.92774 13.417 3.76784 13.577 3.57056 13.577C3.37331 13.577 3.21337 13.4171 3.21337 13.2198C3.21493 11.8395 4.33341 10.7211 5.71364 10.7195C5.91089 10.7195 6.07083 10.8794 6.07083 11.0767C6.07083 11.2739 5.91093 11.4339 5.71364 11.4339ZM6.42802 3.93305C5.63895 3.93305 4.99931 4.57273 4.99931 5.36176C4.99931 5.55901 4.83941 5.71895 4.64212 5.71895C4.44487 5.71895 4.28493 5.55905 4.28493 5.36176C4.2861 4.17867 5.24492 3.21985 6.42802 3.21868C6.62527 3.21868 6.7852 3.37858 6.7852 3.57586C6.7852 3.77311 6.62527 3.93305 6.42802 3.93305Z" fill="#5EF7FF"/>
<path d="M12.5001 3.21865C12.6974 3.21865 12.8573 3.05873 12.8573 2.86146C12.8573 2.66419 12.6974 2.50427 12.5001 2.50427C12.3029 2.50427 12.1429 2.66419 12.1429 2.86146C12.1429 3.05873 12.3029 3.21865 12.5001 3.21865Z" fill="#5EF7FF"/>
<path d="M16.0719 12.5054C16.2692 12.5054 16.4291 12.3455 16.4291 12.1482C16.4291 11.9509 16.2692 11.791 16.0719 11.791C15.8746 11.791 15.7147 11.9509 15.7147 12.1482C15.7147 12.3455 15.8746 12.5054 16.0719 12.5054Z" fill="#5EF7FF"/>
</g>
<defs>
<clipPath id="clip0_115_79">
<rect width="20" height="20" fill="#5EF7FF"/>
</clipPath>
</defs>
</svg>
