<svg width="21" height="15" viewBox="0 0 21 15" fill="none" xmlns="http://www.w3.org/2000/svg">
<path d="M20.2644 2.79288C20.0773 2.60464 19.8227 2.49913 19.5574 2.49987H12.4434C12.3546 2.50003 12.2694 2.46476 12.2068 2.40187L11.9324 2.12753C11.7445 1.93839 11.4887 1.83238 11.2221 1.8332H10.4434C10.3546 1.83335 10.2694 1.79808 10.2067 1.73519L9.93239 1.46086C9.7445 1.27172 9.48868 1.1657 9.22204 1.16652H4.4068C4.15903 1.16777 3.91657 1.23832 3.7068 1.37019L3.04079 0.977226C2.72677 0.790079 2.33654 0.785469 2.01822 0.965156C1.69986 1.14484 1.50217 1.48132 1.50014 1.84687C1.50053 2.18562 1.6724 2.50112 1.95681 2.68518L2.53349 3.06651L1.35314 5.08951C1.28803 5.20232 1.246 5.32697 1.22947 5.45618C1.2085 5.59329 1.21772 5.73333 1.25647 5.86653L1.8208 7.83687C1.33393 9.55679 1.00424 11.3173 0.835804 13.0968C0.816468 13.3739 0.913186 13.6465 1.10287 13.8494C1.29256 14.0523 1.55807 14.1672 1.8358 14.1665H3.8468C4.38535 14.1644 4.82644 13.738 4.8468 13.1998C4.94347 10.9212 5.55378 10.1825 5.91011 9.94448C6.09948 10.4762 6.60233 10.8318 7.16678 10.8331H8.13346C8.50455 10.8317 8.85962 10.6818 9.11947 10.4168C9.2772 10.2536 9.39036 10.0526 9.44814 9.83315H16.5001C17.0523 9.83315 17.5001 9.38542 17.5001 8.83316V8.49984H19.5574C19.8228 8.50058 20.0774 8.39507 20.2644 8.20683L20.5404 7.93082C20.7287 7.74379 20.8342 7.48918 20.8334 7.22383V3.77584C20.8342 3.51049 20.7287 3.25588 20.5404 3.06885L20.2644 2.79288ZM2.32212 2.1262C2.2265 2.06531 2.16806 1.96023 2.16677 1.84687C2.16919 1.72117 2.23826 1.60625 2.3481 1.54515C2.45794 1.48406 2.59204 1.48597 2.70009 1.55023L3.23341 1.86589L2.8704 2.48855L2.32212 2.1262ZM4.18047 13.1698C4.17516 13.3509 4.02828 13.4957 3.84715 13.4985H1.83513C1.74299 13.4987 1.65482 13.4607 1.5917 13.3936C1.52853 13.3264 1.496 13.2361 1.50182 13.1441C1.6701 11.3766 2.00037 9.62827 2.48849 7.92117C2.50493 7.86242 2.50493 7.80027 2.48849 7.74152L1.94048 5.83317H2.83349V6.83317C2.83458 7.75316 3.58012 8.49871 4.50016 8.49984H6.1755C6.01382 8.71199 5.90605 8.96019 5.86152 9.22316C5.32851 9.40214 4.30918 10.1412 4.18051 13.1711L4.18047 13.1698ZM8.64142 9.94948C8.50779 10.0867 8.32494 10.1648 8.13342 10.1665H7.16674C6.79854 10.1665 6.50007 9.868 6.50007 9.49979C6.50097 9.27593 6.57784 9.05898 6.71807 8.88445C6.87924 9.12616 7.09655 9.32526 7.35139 9.46479C7.51588 9.54764 7.71639 9.48143 7.79924 9.31694C7.88209 9.15245 7.81588 8.95195 7.65139 8.86909C7.50217 8.78534 7.3744 8.66816 7.27807 8.52675C7.3508 8.50933 7.4253 8.50027 7.50006 8.49976H7.83338C8.3733 8.50906 8.81208 8.9382 8.83337 9.47776C8.8363 9.65499 8.76701 9.82573 8.64138 9.95077L8.64142 9.94948ZM20.069 7.45816L19.793 7.73418C19.7305 7.79668 19.6458 7.83183 19.5574 7.83183H10.1668C9.98266 7.83183 9.83345 7.98105 9.83345 8.16515C9.83345 8.34925 9.9827 8.49847 10.1668 8.49847H16.8334V8.83179C16.8334 9.01589 16.6841 9.16511 16.5001 9.16511H9.4631C9.30103 8.39292 8.62244 7.83824 7.83346 7.83312H4.50012C3.94786 7.83312 3.50012 7.38539 3.50012 6.83313V5.83314C3.50012 5.46493 3.20165 5.16646 2.83345 5.16646H2.07982L3.83083 2.16648C3.95051 1.96148 4.16946 1.83476 4.40684 1.83316H9.22216C9.312 1.83312 9.3981 1.86913 9.46114 1.93316L9.73548 2.20749C9.9229 2.39566 10.1779 2.50097 10.4435 2.49983H11.2221C11.312 2.4998 11.3981 2.53581 11.4611 2.59983L11.7355 2.87417C11.9229 3.06233 12.1779 3.16764 12.4435 3.16651H19.5574C19.6458 3.16651 19.7306 3.20167 19.7931 3.26417L20.0691 3.54018C20.1316 3.60268 20.1667 3.68744 20.1667 3.77584V3.83319H13.8027C13.5394 3.83307 13.282 3.91104 13.0631 4.05717L12.4001 4.49982H11.1668C10.6145 4.49982 10.1668 4.94755 10.1668 5.49982C10.1668 6.05208 10.6145 6.49981 11.1668 6.49981H12.4001L13.0644 6.94282C13.2831 7.08848 13.5399 7.16629 13.8027 7.16649H20.1667V7.22383C20.1667 7.31223 20.1315 7.39699 20.069 7.45949V7.45816H20.069ZM20.1667 6.49985H19.5V6.16653C19.5 5.98243 19.3508 5.83321 19.1667 5.83321C18.9826 5.83321 18.8334 5.98247 18.8334 6.16653V6.49985H18.1667V6.16653C18.1667 5.98243 18.0175 5.83321 17.8334 5.83321C17.6493 5.83321 17.5001 5.98247 17.5001 6.16653V6.49985H16.8334V6.16653C16.8334 5.98243 16.6841 5.83321 16.5001 5.83321C16.316 5.83321 16.1668 5.98247 16.1668 6.16653V6.49985H15.5001V6.16653C15.5001 5.98243 15.3509 5.83321 15.1668 5.83321C14.9827 5.83321 14.8335 5.98247 14.8335 6.16653V6.49985H14.1668V6.16653C14.1668 5.98243 14.0176 5.83321 13.8335 5.83321C13.6494 5.83321 13.5001 5.98247 13.5001 6.16653V6.41954C13.4773 6.41032 13.455 6.39973 13.4335 6.38786L12.8335 5.98786V5.01119L13.4335 4.61119C13.4551 4.59888 13.4773 4.58775 13.5001 4.57787V4.83322C13.5001 5.01732 13.6494 5.16654 13.8335 5.16654C14.0176 5.16654 14.1668 5.01732 14.1668 4.83322V4.4999H14.8335V4.83322C14.8335 5.01732 14.9827 5.16654 15.1668 5.16654C15.3509 5.16654 15.5001 5.01732 15.5001 4.83322V4.4999H16.1668V4.83322C16.1668 5.01732 16.316 5.16654 16.5001 5.16654C16.6842 5.16654 16.8334 5.01732 16.8334 4.83322V4.4999H17.5001V4.83322C17.5001 5.01732 17.6493 5.16654 17.8334 5.16654C18.0175 5.16654 18.1667 5.01732 18.1667 4.83322V4.4999H18.8334V4.83322C18.8334 5.01732 18.9827 5.16654 19.1667 5.16654C19.3508 5.16654 19.5 5.01732 19.5 4.83322V4.4999H20.1667V6.49985ZM11.1668 5.83317C10.9827 5.83317 10.8334 5.68396 10.8334 5.49986C10.8334 5.31576 10.9827 5.16654 11.1668 5.16654H12.1668V5.83321L11.1668 5.83317Z" fill="#5EF7FF"/>
</svg>
