<svg width="13" height="21" viewBox="0 0 13 21" fill="none" xmlns="http://www.w3.org/2000/svg">
<path d="M0.166626 19.5C0.166626 20.0522 0.61436 20.5 1.16663 20.5H11.1666C11.6531 20.5009 12.0693 20.1508 12.1517 19.6714C12.2342 19.1919 11.9588 18.7229 11.4999 18.5613V15.103C11.8949 14.9594 12.1602 14.5869 12.1666 14.1667C12.1649 13.7444 11.8981 13.3687 11.4999 13.228V9.76666C11.8913 9.62009 12.1549 9.25107 12.1666 8.83334C12.1666 8.28107 11.7189 7.83334 11.1666 7.83334H10.3693C10.4577 7.5272 10.5017 7.20998 10.4999 6.89134C10.4878 6.39904 10.3833 5.91341 10.1919 5.45966C9.996 4.97377 9.87792 4.46002 9.84194 3.93732C9.82893 3.74181 9.71116 3.56869 9.53409 3.48482C9.35702 3.40095 9.14842 3.41951 8.98893 3.53334C8.61944 3.80142 8.35577 4.19072 8.24393 4.63334C7.85291 4.18799 7.31061 3.18166 7.37495 1.05666C7.38073 0.85779 7.27686 0.671813 7.10456 0.572399C6.93225 0.472985 6.71924 0.476149 6.54995 0.58068C5.93627 0.956696 4.87729 1.879 4.31295 3.95302C4.17784 3.71884 4.1087 3.45236 4.11295 3.18201C4.10745 2.96076 3.96768 2.76521 3.76014 2.68841C3.5526 2.61158 3.31917 2.669 3.17096 2.83338C2.32225 3.76599 1.84612 4.97814 1.83331 6.23904C1.82323 6.78818 1.93514 7.33271 2.16096 7.83338H1.16663C0.617329 7.84056 0.173813 8.28408 0.166626 8.83338C0.168384 9.25564 0.435181 9.63131 0.833306 9.77205V13.2304C0.438306 13.3739 0.173032 13.7465 0.166626 14.1667C0.168384 14.589 0.435181 14.9646 0.833306 15.1054V18.5614C0.435181 18.7021 0.168384 19.0777 0.166626 19.5ZM2.49999 15.1667C2.49999 15.7189 2.94772 16.1667 3.49998 16.1667C4.05225 16.1667 4.49999 15.7189 4.49999 15.1667H10.8333V18.5H1.49999V15.1667H2.49999ZM2.49999 9.83334V13.1667H1.49999V9.83334H2.49999ZM6.49999 8.49998V11.1667C6.49999 11.3508 6.35077 11.5 6.16667 11.5C5.98256 11.5 5.83334 11.3508 5.83334 11.1667V10.5C5.83334 9.94771 5.38561 9.49998 4.83334 9.49998C4.28108 9.49998 3.83334 9.94771 3.83334 10.5V15.1667C3.83334 15.3508 3.68413 15.5 3.50002 15.5C3.31592 15.5 3.1667 15.3507 3.1667 15.1667V8.49998H6.49999ZM4.49999 13.1667V10.5C4.49999 10.3159 4.6492 10.1667 4.83331 10.1667C5.01741 10.1667 5.16663 10.3159 5.16663 10.5V11.1667C5.16663 11.7189 5.61436 12.1667 6.16663 12.1667C6.71889 12.1667 7.16663 11.7189 7.16663 11.1667V9.83334H10.8333V13.1667H4.49999ZM11.1666 19.8333H1.16663C0.982524 19.8333 0.833306 19.6841 0.833306 19.5C0.833306 19.3159 0.982563 19.1667 1.16663 19.1667H11.1666C11.3507 19.1667 11.4999 19.3159 11.4999 19.5C11.4999 19.6841 11.3507 19.8333 11.1666 19.8333ZM11.1666 14.5H4.49999V13.8333H11.1666C11.3507 13.8333 11.4999 13.9826 11.4999 14.1666C11.4931 14.3478 11.3478 14.4931 11.1666 14.5ZM11.5 8.83334C11.489 9.01271 11.346 9.15572 11.1667 9.16666H7.16663V8.49998H11.1666C11.3507 8.49998 11.5 8.64923 11.5 8.83334ZM2.49999 6.239C2.50811 5.24654 2.85018 4.28572 3.471 3.51134C3.53292 4.07384 3.84377 4.57892 4.31799 4.88767C4.41042 4.94779 4.52655 4.95838 4.62827 4.91588C4.72999 4.87338 4.80413 4.78334 4.82631 4.67533C5.2453 2.62701 6.17096 1.67533 6.70397 1.28068C6.67065 4.86033 8.30729 5.54334 8.37862 5.57103C8.4812 5.61111 8.59694 5.59795 8.68788 5.53588C8.77881 5.47381 8.83327 5.3708 8.83331 5.26068C8.81495 4.88295 8.94577 4.51314 9.19764 4.23103C9.25678 4.72955 9.38002 5.21838 9.56432 5.68537C9.72788 6.06724 9.81909 6.47619 9.83331 6.89138C9.83999 7.21326 9.78335 7.53334 9.66663 7.83338H2.93065C2.63206 7.35638 2.48217 6.80138 2.49999 6.239ZM1.16663 8.49998H2.49995V9.16666H1.16663C0.982524 9.16666 0.833306 9.0174 0.833306 8.83334C0.840142 8.65213 0.985454 8.50685 1.16663 8.49998ZM1.16663 13.8333H2.49995V14.5H1.16663C0.982524 14.5 0.833306 14.3507 0.833306 14.1667C0.840142 13.9855 0.985454 13.8402 1.16663 13.8333Z" fill="#5EF7FF"/>
</svg>
