<svg width="18" height="21" viewBox="0 0 18 21" fill="#fff" xmlns="http://www.w3.org/2000/svg">
<path d="M1.38897 18.4667V19.1667C1.38897 19.903 1.98593 20.5 2.72231 20.5H5.99997C6.73635 20.5 7.33331 19.903 7.33331 19.1667V18.5H10.6666V19.1667C10.6666 19.903 11.2636 20.5 12 20.5H15.2776C16.014 20.5 16.611 19.903 16.611 19.1667V18.472C17.4112 18.3368 17.9977 17.6449 18 16.8333V2.16667C17.9989 1.24665 17.2533 0.501102 16.3333 0.5H1.72331C0.80329 0.501102 0.0577427 1.24665 0.0566406 2.16667V3.5C0.0566406 3.68409 0.205879 3.83333 0.389974 3.83333C0.574069 3.83333 0.723307 3.68409 0.723307 3.5V2.16667C0.723307 1.61438 1.17102 1.16667 1.72331 1.16667H16.3333C16.8856 1.16667 17.3333 1.61438 17.3333 2.16667V16.8333C17.3333 17.3856 16.8856 17.8333 16.3333 17.8333H1.72331C1.17102 17.8333 0.723307 17.3856 0.723307 16.8333V5.16667C0.723307 4.98257 0.574069 4.83333 0.389974 4.83333C0.205879 4.83333 0.0566406 4.98257 0.0566406 5.16667V16.8333C0.057542 17.6247 0.613899 18.3068 1.38897 18.4667ZM15.9443 18.5V19.1667C15.9443 19.5349 15.6458 19.8333 15.2776 19.8333H12C11.6318 19.8333 11.3333 19.5349 11.3333 19.1667V18.5H15.9443ZM6.66664 18.5V19.1667C6.66664 19.5349 6.36816 19.8333 5.99997 19.8333H2.72231C2.35412 19.8333 2.05564 19.5349 2.05564 19.1667V18.5H6.66664Z" fill="#fff"/>
<path d="M2.66659 11.8333C2.48249 11.8333 2.33325 11.9826 2.33325 12.1666V15.1666C2.33325 15.7189 2.78097 16.1666 3.33325 16.1666H14.6666C15.2189 16.1666 15.6666 15.7189 15.6666 15.1666V14.8333C16.2189 14.8333 16.6666 14.3856 16.6666 13.8333V11.8333C16.6666 11.281 16.2189 10.8333 15.6666 10.8333V8.16665C16.2189 8.16665 16.6666 7.71893 16.6666 7.16665V5.16665C16.6666 4.61436 16.2189 4.16665 15.6666 4.16665V3.83331C15.6666 3.28103 15.2189 2.83331 14.6666 2.83331H3.33325C2.78097 2.83331 2.33325 3.28103 2.33325 3.83331V10.5C2.33325 10.6841 2.48249 10.8333 2.66659 10.8333C2.85068 10.8333 2.99992 10.6841 2.99992 10.5V3.83331C2.99992 3.64922 3.14916 3.49998 3.33325 3.49998H14.6666C14.8507 3.49998 14.9999 3.64922 14.9999 3.83331V4.16665C14.4476 4.16665 13.9999 4.61436 13.9999 5.16665V7.16665C13.9999 7.71893 14.4476 8.16665 14.9999 8.16665V10.8333C14.4476 10.8333 13.9999 11.281 13.9999 11.8333V13.8333C13.9999 14.3856 14.4476 14.8333 14.9999 14.8333V15.1666C14.9999 15.3507 14.8507 15.5 14.6666 15.5H3.33325C3.14916 15.5 2.99992 15.3507 2.99992 15.1666V12.1666C2.99992 11.9826 2.85068 11.8333 2.66659 11.8333ZM14.6666 7.16665V5.16665C14.6666 4.98255 14.8158 4.83331 14.9999 4.83331H15.6666C15.8507 4.83331 15.9999 4.98255 15.9999 5.16665V7.16665C15.9999 7.35074 15.8507 7.49998 15.6666 7.49998H14.9999C14.8158 7.49998 14.6666 7.35074 14.6666 7.16665ZM14.6666 13.8333V11.8333C14.6666 11.6492 14.8158 11.5 14.9999 11.5H15.6666C15.8507 11.5 15.9999 11.6492 15.9999 11.8333V13.8333C15.9999 14.0174 15.8507 14.1666 15.6666 14.1666H14.9999C14.8158 14.1666 14.6666 14.0174 14.6666 13.8333Z" fill="#fff"/>
<path d="M5.30469 11.0307C6.03494 12.7938 7.90892 13.7955 9.78057 13.4232C11.6522 13.0509 13.0002 11.4083 13.0002 9.50003C13.0002 7.59172 11.6522 5.94916 9.78057 5.57688C7.90892 5.20461 6.03494 6.2063 5.30469 7.96936C4.89551 8.94879 4.89551 10.0513 5.30469 11.0307ZM7.42269 6.56403L7.54403 6.8567C7.5879 6.96924 7.68922 7.04924 7.80887 7.06581C7.92852 7.08238 8.04777 7.03292 8.12058 6.93654C8.19338 6.84015 8.20835 6.71192 8.15969 6.60136L8.03869 6.3087C8.6654 6.11804 9.33465 6.11804 9.96136 6.3087L9.84036 6.60136C9.79171 6.71192 9.80667 6.84015 9.87948 6.93654C9.95228 7.03292 10.0715 7.08238 10.1912 7.06581C10.3108 7.04924 10.4122 6.96924 10.456 6.8567L10.5774 6.5637C11.1552 6.87216 11.6284 7.34542 11.9367 7.92336L11.644 8.0447C11.5315 8.08857 11.4515 8.18989 11.4349 8.30954C11.4183 8.42919 11.4678 8.54844 11.5642 8.62125C11.6606 8.69405 11.7888 8.70902 11.8994 8.66036L12.192 8.53936C12.3827 9.16607 12.3827 9.83532 12.192 10.462L11.8994 10.341C11.7888 10.2924 11.6606 10.3073 11.5642 10.3801C11.4678 10.453 11.4183 10.5722 11.4349 10.6919C11.4515 10.8115 11.5315 10.9128 11.644 10.9567L11.937 11.078C11.6286 11.6559 11.1553 12.129 10.5774 12.4374L10.456 12.1447C10.4122 12.0322 10.3108 11.9522 10.1912 11.9356C10.0715 11.919 9.95228 11.9685 9.87948 12.0649C9.80667 12.1612 9.79171 12.2895 9.84036 12.4L9.96136 12.6927C9.33465 12.8834 8.6654 12.8834 8.03869 12.6927L8.15969 12.4C8.20835 12.2895 8.19338 12.1612 8.12058 12.0649C8.04777 11.9685 7.92852 11.919 7.80887 11.9356C7.68922 11.9522 7.5879 12.0322 7.54403 12.1447L7.42269 12.4377C6.84483 12.1292 6.37169 11.656 6.06336 11.078L6.35603 10.9567C6.46857 10.9128 6.54857 10.8115 6.56514 10.6919C6.58171 10.5722 6.53225 10.453 6.43587 10.3801C6.33948 10.3073 6.21125 10.2924 6.10069 10.341L5.80803 10.462C5.61737 9.83532 5.61737 9.16607 5.80803 8.53936L6.10069 8.66036C6.21125 8.70902 6.33948 8.69405 6.43587 8.62125C6.53225 8.54844 6.58171 8.42919 6.56514 8.30954C6.54857 8.18989 6.46857 8.08857 6.35603 8.0447L6.06303 7.92336C6.37139 7.34525 6.84466 6.87187 7.42269 6.56336V6.56403Z" fill="#fff"/>
<path d="M9.00274 11.5C9.88353 11.4986 10.6597 10.9212 10.9143 10.078C11.1688 9.2348 10.8418 8.32433 10.1089 7.83581C9.37599 7.3473 8.40977 7.39576 7.72943 7.95515C7.04908 8.51454 6.81477 9.45316 7.15241 10.2667C7.46338 11.0138 8.19344 11.5005 9.00274 11.5ZM8.48974 8.26667C9.17013 7.98598 9.94926 8.30969 10.2304 8.98988C10.5116 9.67007 10.1884 10.4494 9.50845 10.7311C8.82846 11.0127 8.04887 10.6901 7.76674 10.0103C7.63007 9.68336 7.62955 9.31537 7.76529 8.98801C7.90102 8.66065 8.1618 8.401 8.48974 8.26667Z" fill="#fff"/>
<path d="M5.66675 4.16669H4.00008C3.81599 4.16669 3.66675 4.31593 3.66675 4.50002V6.16669C3.66675 6.35078 3.81599 6.50002 4.00008 6.50002C4.18418 6.50002 4.33341 6.35078 4.33341 6.16669V4.83335H5.66675C5.85084 4.83335 6.00008 4.68412 6.00008 4.50002C6.00008 4.31593 5.85084 4.16669 5.66675 4.16669Z" fill="#fff"/>
</svg>
