<svg width="200" height="55" viewBox="0 0 200 55" fill="none" xmlns="http://www.w3.org/2000/svg">
<path d="M181.904 31.0784C181.982 30.1585 181.906 27.58 181.908 26.505L181.922 14.8407C181.917 12.669 181.876 10.4854 181.96 8.31728C181.9 6.93464 184.342 7.08882 185.274 7.17828C186.036 7.25153 191.912 6.80853 192.01 7.5754C192.372 10.4095 192.227 13.802 192.227 16.6971L192.226 31.0974L192.232 43.444C192.231 45.2796 192.256 47.116 192.24 48.9508C192.229 50.142 190.93 50.037 190.11 50.0503C188.058 50.0406 184.273 50.159 182.364 49.9757C181.463 49.1953 178.247 44.2497 177.381 42.979L170.694 33.2654C169.296 31.2442 167.773 28.9681 166.313 27.01C166.154 28.3307 166.229 31.4418 166.228 32.8626L166.23 42.668C166.237 44.5391 166.262 46.4018 166.237 48.2796C166.383 49.2002 165.816 50.1793 164.768 50.0503C163.122 49.8472 157.2 50.491 156.114 49.5712C155.762 47.9272 155.952 43.9038 155.946 42.0356L155.958 27.0777L155.956 15.3512C155.951 13.1074 155.952 10.8687 155.964 8.62494C155.974 6.78395 157.562 7.24749 159.024 7.22481C160.552 7.14369 164.154 7.05457 165.584 7.30173C166.306 7.88059 168.852 11.8601 169.54 12.8747L178.476 26.0705C179.616 27.7299 180.709 29.4761 181.904 31.0784Z" fill="#48171B"/>
<path d="M118.364 7.17875C120.884 7.0285 123.633 7.20062 126.169 7.16678C127.168 7.15346 127.652 7.59159 127.681 8.57108C127.743 10.6719 127.714 12.7873 127.712 14.8898L127.693 27.6861C127.69 29.7229 127.605 31.6537 127.802 33.7544C128.514 41.349 138.541 42.8017 141.711 36.2343C142.785 34.0106 142.481 28.7991 142.479 26.0567L142.473 14.3235C142.471 13.0502 142.236 8.2812 142.81 7.4924C143.88 6.87596 146.775 7.265 148.06 7.24133C153.154 7.14749 152.832 6.39999 152.841 11.6397L152.845 18.4477L152.849 26.0596C152.892 30.244 153.222 35.1661 151.876 39.1331C150.451 43.3189 146.995 46.9382 143.059 48.8215C134.396 52.966 123.306 49.8665 119.049 40.9359C117.291 37.2483 117.378 34.6735 117.383 30.7445L117.392 23.8805L117.391 14.3017C117.384 12.404 117.253 9.73943 117.523 7.81393C117.562 7.54368 118.113 7.29863 118.364 7.17875Z" fill="#48171B"/>
<path d="M24.3794 7.1164C25.7582 7.1013 31.3095 6.86089 32.2116 7.39559C32.7704 8.11351 35.9616 16.7392 36.5562 18.3058C40.3129 28.2043 44.0989 38.1181 47.8085 48.0364C47.9064 48.2983 48.0769 48.8194 48.0419 49.0957C48.0168 49.2943 47.9132 49.5467 47.7412 49.6707C47.502 49.843 46.8961 49.9846 46.6176 49.9919C45.381 50.0239 43.9178 50.0581 42.687 50.0226C41.1888 49.9794 38.9412 50.1201 37.5417 49.903C36.6458 48.5366 35.7987 45.7605 34.9989 44.0964C33.2241 43.9943 23.0704 44.3495 22.4725 43.8392C22.3386 43.7247 22.3128 43.4841 22.301 43.3129C22.2496 42.5606 24.7349 35.9051 25.2177 35.3473C25.4224 35.1108 25.7091 34.9552 26.0171 34.9078C26.5598 34.8244 27.2471 34.9685 27.8038 34.9829C29.2165 35.0191 30.6663 35.028 32.0756 34.9187C31.6927 33.953 31.3323 32.999 30.9704 32.0262C29.8544 29.3867 28.7033 25.4876 27.4616 23.1056C24.8583 29.976 22.367 36.8638 19.5424 43.6489C18.7444 45.5655 18.1059 47.6983 17.1236 49.5266C17.0159 49.727 16.7321 49.9322 16.5046 49.9608C14.4866 50.1871 12.3841 49.9898 10.3427 50.0059C9.31268 50.0143 6.75449 50.4272 6.44263 49.1452C6.76747 47.1749 9.12239 42.0169 9.96563 39.8951L17.581 20.8481C19.104 17.0459 21.1654 11.5033 22.9431 7.66296C23.1347 7.2492 23.9355 7.15156 24.3794 7.1164Z" fill="#48171B"/>
<path d="M57.3398 6.86319C57.8722 6.96808 58.302 7.15709 58.6328 7.63478C60.7318 10.6635 61.7027 15.5044 62.0364 19.1304C62.1872 20.7706 62.0421 22.4576 62.2527 24.0709C62.483 25.8349 63.6672 27.5036 64.032 29.1967C64.1924 29.9406 64.132 31.8317 64.1268 32.6387L64.1061 37.5504C64.1012 39.4165 64.2444 43.2991 64.0776 45.002C62.1761 46.0689 56.2141 45.4243 53.5833 45.5635C53.7074 46.6374 53.7038 46.9027 53.3556 47.9305C54.0838 47.9535 54.9216 48.0497 55.5841 47.7752C55.8375 47.4504 55.6812 47.5369 55.6605 46.9901C56.016 46.7187 62.3714 46.8477 63.3022 46.8767C63.4261 47.8917 63.86 47.434 64.3014 48.4063C64.4411 48.7141 64.6245 48.9998 64.5172 49.3921C64.4566 49.6139 64.2924 49.7075 64.1149 49.8172C63.9346 49.9291 63.3957 50.0424 63.21 50.0383C61.1789 49.9916 52.9087 50.326 51.3538 49.8352C49.7411 48.5212 52.2061 47.3993 52.6014 46.4364C52.9903 45.4894 51.268 45.681 51.2735 44.4588C51.2828 42.4631 51.3136 40.4396 51.2776 38.4408L51.1851 32.7907C51.1768 31.8288 51.1398 30.782 51.2157 29.8275C51.183 28.3018 52.7141 25.6908 52.7564 24.4228C52.9294 19.211 53.1268 14.2134 55.3768 9.36916C55.8167 8.42211 56.302 7.36087 57.3398 6.86319ZM55.5758 30.8607C56.3602 30.7958 58.5639 30.6519 59.167 30.4364L59.1398 30.3326C58.359 30.0816 56.3284 29.932 56.0299 29.4907C55.9548 29.0298 56.2216 28.3545 56.3248 27.8128C57.2667 25.8233 56.9297 21.5353 56.9468 19.2292C56.968 16.3869 56.9999 13.5025 57.0341 10.6561C56.6566 11.713 56.3483 12.6188 56.0323 13.7021C55.54 15.8811 55.2476 18.3437 55.083 20.5794C54.9887 21.8607 55.1033 23.3373 54.931 24.6125C54.702 26.3051 53.3792 28.5359 53.3527 30.2007C53.3007 33.5075 53.4134 36.8638 53.4253 40.1722C53.4289 41.177 53.5178 42.9279 53.438 43.8647C54.1452 43.8895 54.8711 43.9247 55.5776 43.9197C55.5447 39.7554 55.5149 35.5933 55.5393 31.4287C55.5403 31.2439 55.5574 31.0453 55.5758 30.8607Z" fill="#48171B"/>
<path d="M81.8192 29.406C82.5265 29.3372 83.2386 29.3979 83.441 30.2281C83.1179 31.4014 78.5063 30.9309 77.2446 31.027C78.4446 37.1975 83.2956 41.8889 89.4412 42.9467C89.4192 42.412 89.4169 41.8735 89.4148 41.3384C89.4101 39.9999 89.3858 38.6598 89.4039 37.3215C89.4145 36.5583 90.5024 36.288 90.8902 36.9206C90.9798 37.0671 91.0065 37.2376 91.0156 37.4068C91.063 40.1404 91.0296 42.876 91.0239 45.6101C91.0182 46.5566 91.1179 49.7117 90.9503 50.4522C90.8088 50.5244 90.6534 50.5927 90.4946 50.6128C89.8171 50.6985 88.8886 50.478 88.2158 50.3667C84.4904 49.7489 81.2521 48.5037 78.1959 46.2446C73.4298 42.7217 70.2775 37.2267 69.3917 31.3753C69.3246 30.9316 69.1767 30.1035 69.4695 29.7295C69.9407 29.1276 80.35 29.595 81.8192 29.406Z" fill="#48171B"/>
<path d="M90.0451 6.71787C90.4218 6.61058 91.0352 6.84938 91.0119 7.18112C90.8933 8.8691 91.3531 19.9433 90.8894 20.6505C90.3829 21.1158 89.5249 20.8913 89.4868 20.2085C89.3837 18.357 89.4301 16.3334 89.3842 14.4862C84.8482 15.3606 80.6925 18.0868 78.5697 22.297C78.1762 23.0776 77.3158 25.2332 77.3355 26.075C78.1316 26.7501 83.4409 25.2083 83.3855 27.2073C83.2837 27.488 83.2117 27.5237 82.9622 27.6976C81.8736 27.8376 80.5451 27.7377 79.4301 27.7359C76.3806 27.72 73.3337 27.7135 70.2842 27.7276C69.8407 27.7669 69.3073 27.6077 69.3314 27.0332C69.5034 22.9373 71.464 18.4217 73.8557 15.346C78.0785 9.91614 83.4549 7.52689 90.0451 6.71787Z" fill="#48171B"/>
<path d="M105.681 29.4094C106.638 29.2808 112.871 29.4245 114.09 29.5952C114.177 29.6012 114.29 29.8436 114.287 29.9104C113.986 39.1404 106.582 47.5429 97.8133 49.8316C96.5591 50.159 93.8156 50.8195 92.9913 50.3401C92.6581 49.9077 92.818 47.9394 92.8379 47.2919C92.7814 45.2856 92.5161 38.4189 92.9338 36.8609C93.2757 36.4434 93.7444 36.5302 94.1221 36.8417C94.3576 37.1975 94.3498 42.0594 94.3858 42.8953C100.941 41.6694 104.82 37.382 106.366 31.0184C105.057 30.966 100.985 31.4175 100.563 30.2414C100.645 29.2861 101.926 29.4602 102.658 29.4565C103.694 29.4516 104.641 29.4969 105.681 29.4094Z" fill="#48171B"/>
<path d="M93.1802 6.67692C97.3799 6.38539 103.817 9.40393 106.858 12.2097C107.408 12.7169 110.516 15.7298 110.218 16.3811C109.809 17.2707 105.719 21.2205 104.87 21.2643C104.526 21.1077 104.343 20.7961 104.114 20.4872C101.115 16.9849 98.9395 15.4341 94.3623 14.4963C94.324 16.3683 94.3123 18.2542 94.3162 20.1277C94.3172 20.5759 93.9214 20.9091 93.4755 20.9452C92.7483 20.6995 92.7683 20.2127 92.7735 19.5154C92.8025 15.4213 92.7639 11.3248 92.7947 7.23226C92.7957 7.06846 93.068 6.79317 93.1802 6.67692Z" fill="#48171B"/>
<path d="M90.9538 22.9946C94.0714 22.4268 97.0574 24.5043 97.6286 27.6384C98.1999 30.7724 96.1406 33.7802 93.0255 34.3612C89.9009 34.944 86.8996 32.8652 86.3266 29.7219C85.7538 26.5783 87.8271 23.5641 90.9538 22.9946Z" fill="#48171B"/>
<path d="M100.85 26.241C102.624 26.0697 104.842 26.272 106.656 26.2457C109.039 26.2113 111.49 26.1153 113.859 26.2553C114.201 26.2757 115.007 27.28 114 27.7745L105.513 27.7414C104.486 27.7385 101.675 27.9121 100.683 27.5456C100.156 27.3512 100.48 26.65 100.85 26.241Z" fill="#48171B"/>
<path d="M92.2415 40.5504L92.429 40.6132C92.6959 40.9547 92.4754 42.4879 92.4902 43.1787L92.3627 43.1826C92.2554 42.954 92.2529 40.9654 92.2415 40.5504Z" fill="#48171B"/>
<path d="M92.2953 7.90375L92.4253 8.01302C92.5452 8.30733 92.5294 8.78646 92.5375 9.11946L92.3771 9.01571C92.2326 8.74608 92.2984 8.26883 92.2953 7.90375Z" fill="#48171B"/>
</svg>
