<?xml version="1.0" encoding="UTF-8"?>
<svg xmlns="http://www.w3.org/2000/svg" xmlns:xlink="http://www.w3.org/1999/xlink" width="75pt" height="75pt" viewBox="0 0 75 75" version="1.1">
<g id="surface3485">
<path style=" stroke:none;fill-rule:nonzero;fill:rgb(9.019608%,9.019608%,9.411765%);fill-opacity:1;" d="M 64.5 39 L 64.5 33.046875 C 64.5 26.402344 59.089844 21 52.453125 21 L 39 21 L 39 16.289062 C 41.582031 15.613281 43.5 13.289062 43.5 10.5 C 43.5 7.191406 40.808594 4.5 37.5 4.5 C 34.191406 4.5 31.5 7.191406 31.5 10.5 C 31.5 13.289062 33.421875 15.613281 36 16.289062 L 36 21 L 22.546875 21 C 15.910156 21 10.5 26.402344 10.5 33.046875 L 10.5 39 L 3 39 L 3 57 L 10.5 57 L 10.5 70.5 L 64.5 70.5 L 64.5 57 L 72 57 L 72 39 Z M 40.5 57 L 40.5 67.5 L 34.5 67.5 L 34.5 57 Z M 22.5 39.75 C 22.5 36.847656 24.847656 34.5 27.75 34.5 C 30.652344 34.5 33 36.847656 33 39.75 C 33 42.652344 30.652344 45 27.75 45 C 24.847656 45 22.5 42.652344 22.5 39.75 Z M 25.5 57 L 31.5 57 L 31.5 67.5 L 25.5 67.5 Z M 49.5 67.5 L 43.5 67.5 L 43.5 57 L 49.5 57 Z M 47.25 45 C 44.347656 45 42 42.652344 42 39.75 C 42 36.847656 44.347656 34.5 47.25 34.5 C 50.152344 34.5 52.5 36.847656 52.5 39.75 C 52.5 42.652344 50.152344 45 47.25 45 Z M 47.25 45 "/>
</g>
</svg>
