<?xml version="1.0" encoding="UTF-8"?>
<svg xmlns="http://www.w3.org/2000/svg" xmlns:xlink="http://www.w3.org/1999/xlink" width="75pt" height="75pt" viewBox="0 0 75 75" version="1.1">
<g id="surface3086">
<path style=" stroke:none;fill-rule:nonzero;fill:rgb(9.019608%,9.019608%,9.411765%);fill-opacity:1;" d="M 37.5 4.5 C 34.191406 4.5 31.5 7.191406 31.5 10.5 C 31.5 13.289062 33.421875 15.613281 36 16.289062 L 36 21 L 22.546875 21 C 15.902344 21 10.5 26.402344 10.5 33.046875 L 10.5 39 L 3 39 L 3 57 L 10.5 57 L 10.5 70.5 L 64.5 70.5 L 64.5 57 L 72 57 L 72 39 L 64.5 39 L 64.5 33.046875 C 64.5 26.402344 59.097656 21 52.453125 21 L 39 21 L 39 16.289062 C 41.582031 15.613281 43.5 13.289062 43.5 10.5 C 43.5 7.191406 40.808594 4.5 37.5 4.5 Z M 37.5 7.5 C 39.152344 7.5 40.5 8.847656 40.5 10.5 C 40.5 12.152344 39.152344 13.5 37.5 13.5 C 35.847656 13.5 34.5 12.152344 34.5 10.5 C 34.5 8.847656 35.847656 7.5 37.5 7.5 Z M 22.546875 24 L 52.453125 24 C 57.441406 24 61.5 28.058594 61.5 33.046875 L 61.5 67.5 L 52.5 67.5 L 52.5 55.5 L 22.5 55.5 L 22.5 67.5 L 13.5 67.5 L 13.5 33.046875 C 13.5 28.058594 17.558594 24 22.546875 24 Z M 27.75 33 C 24.027344 33 21 36.027344 21 39.75 C 21 43.472656 24.027344 46.5 27.75 46.5 C 31.472656 46.5 34.5 43.472656 34.5 39.75 C 34.5 36.027344 31.472656 33 27.75 33 Z M 47.25 33 C 43.527344 33 40.5 36.027344 40.5 39.75 C 40.5 43.472656 43.527344 46.5 47.25 46.5 C 50.972656 46.5 54 43.472656 54 39.75 C 54 36.027344 50.972656 33 47.25 33 Z M 27.75 36 C 29.816406 36 31.5 37.683594 31.5 39.75 C 31.5 41.816406 29.816406 43.5 27.75 43.5 C 25.683594 43.5 24 41.816406 24 39.75 C 24 37.683594 25.683594 36 27.75 36 Z M 47.25 36 C 49.316406 36 51 37.683594 51 39.75 C 51 41.816406 49.316406 43.5 47.25 43.5 C 45.183594 43.5 43.5 41.816406 43.5 39.75 C 43.5 37.683594 45.183594 36 47.25 36 Z M 6 42 L 10.5 42 L 10.5 54 L 6 54 Z M 64.5 42 L 69 42 L 69 54 L 64.5 54 Z M 25.5 58.5 L 31.5 58.5 L 31.5 67.5 L 25.5 67.5 Z M 34.5 58.5 L 40.5 58.5 L 40.5 67.5 L 34.5 67.5 Z M 43.5 58.5 L 49.5 58.5 L 49.5 67.5 L 43.5 67.5 Z M 43.5 58.5 "/>
</g>
</svg>
