<?xml version="1.0" encoding="UTF-8"?>
<svg xmlns="http://www.w3.org/2000/svg" xmlns:xlink="http://www.w3.org/1999/xlink" width="75pt" height="75pt" viewBox="0 0 75 75" version="1.1">
<g id="surface3554">
<path style=" stroke:none;fill-rule:nonzero;fill:rgb(9.019608%,9.019608%,9.411765%);fill-opacity:1;" d="M 61.632812 0 L 54.25 7.355469 C 54.882812 7.707031 55.5 8.078125 56.105469 8.46875 Z M 56.105469 8.46875 L 45 25.5 L 54 25.5 L 40.5 42 L 49.5 42 L 22.871094 68.734375 C 27.3125 70.824219 32.273438 72 37.5 72 C 56.523438 72 72 56.523438 72 37.5 C 72 25.324219 65.65625 14.613281 56.105469 8.46875 Z M 22.871094 68.734375 C 22.300781 68.464844 21.742188 68.1875 21.191406 67.894531 L 16.632812 75 Z M 21.191406 67.894531 L 33 49.5 L 25.5 49.5 L 39 33 L 28.5 33 L 54.25 7.355469 C 49.285156 4.585938 43.574219 3 37.5 3 C 18.476562 3 3 18.476562 3 37.5 C 3 50.628906 10.375 62.0625 21.191406 67.894531 Z M 21.191406 67.894531 "/>
</g>
</svg>
