<?xml version="1.0" encoding="UTF-8"?>
<svg xmlns="http://www.w3.org/2000/svg" xmlns:xlink="http://www.w3.org/1999/xlink" width="75pt" height="75pt" viewBox="0 0 75 75" version="1.1">
<g id="surface3973">
<path style=" stroke:none;fill-rule:nonzero;fill:rgb(9.019608%,9.019608%,9.411765%);fill-opacity:1;" d="M 61.632812 0 L 28.5 33 L 39 33 L 25.5 49.5 L 33 49.5 L 16.632812 75 L 49.5 42 L 40.5 42 L 54 25.5 L 45 25.5 Z M 37.5 3 C 18.476562 3 3 18.476562 3 37.5 C 3 49.558594 9.21875 60.179688 18.613281 66.351562 L 20.242188 63.824219 C 11.675781 58.1875 6 48.496094 6 37.5 C 6 20.128906 20.128906 6 37.5 6 C 41.597656 6 45.507812 6.808594 49.105469 8.242188 L 51.414062 5.941406 C 47.15625 4.054688 42.449219 3 37.5 3 Z M 58.558594 10.199219 L 56.902344 12.738281 C 64.253906 18.511719 69 27.453125 69 37.5 C 69 54.871094 54.871094 69 37.5 69 C 34.273438 69 31.160156 68.507812 28.230469 67.601562 L 25.867188 69.976562 C 29.503906 71.28125 33.421875 72 37.5 72 C 56.523438 72 72 56.523438 72 37.5 C 72 26.402344 66.726562 16.515625 58.558594 10.199219 Z M 58.558594 10.199219 "/>
</g>
</svg>
