<?xml version="1.0" encoding="UTF-8"?>
<svg xmlns="http://www.w3.org/2000/svg" xmlns:xlink="http://www.w3.org/1999/xlink" width="75pt" height="75pt" viewBox="0 0 75 75" version="1.1">
<g id="surface3080">
<path style=" stroke:none;fill-rule:nonzero;fill:rgb(9.019608%,9.019608%,9.411765%);fill-opacity:1;" d="M 32.042969 3 C 23.863281 3 18.609375 6.777344 16.96875 10.832031 C 10.527344 12.199219 6 19.246094 6 26.996094 C 6 30.1875 6.925781 33.382812 8.527344 36.929688 C 7.21875 38.53125 6 40.539062 6 43.5 C 6 47.382812 8.542969 51.121094 13.070312 53.203125 C 11.648438 56.511719 11.953125 59.703125 13.644531 61.972656 C 15.40625 64.332031 18.363281 65.5625 21.539062 65.804688 C 22.5 68.332031 24.234375 70.089844 26.15625 70.925781 C 28.34375 71.878906 30.582031 72 32.042969 72 C 34.273438 72 36.230469 70.949219 37.503906 69.316406 C 38.773438 70.9375 40.726562 71.984375 42.945312 72 L 42.949219 72 C 44.328125 72.011719 46.558594 71.882812 48.765625 70.933594 C 50.667969 70.113281 52.398438 68.386719 53.390625 65.925781 C 55.789062 65.847656 58.269531 65.492188 60.371094 64.308594 C 62.734375 62.976562 64.5 60.457031 64.5 57 C 64.5 55.648438 64.011719 54.402344 63.4375 53.148438 C 65.363281 52.191406 66.878906 50.964844 67.710938 49.449219 C 68.757812 47.542969 69 45.449219 69 43.5 C 69 40.511719 67.589844 38.710938 66.214844 37.242188 C 67.84375 33.695312 69.054688 30.269531 69 26.972656 C 68.859375 18.222656 62.960938 12.078125 56.566406 10.808594 C 55.140625 7.0625 51.089844 3 42.957031 3 C 40.910156 3 38.925781 3.527344 37.667969 5.140625 C 37.609375 5.222656 37.558594 5.3125 37.5 5.394531 C 37.441406 5.3125 37.390625 5.222656 37.332031 5.140625 C 36.074219 3.527344 34.089844 3 32.042969 3 Z M 32.042969 6 C 33.660156 6 34.402344 6.257812 34.960938 6.980469 C 35.519531 7.699219 36 9.316406 36 12.277344 L 36 20.746094 C 35.972656 20.910156 35.972656 21.074219 36 21.238281 L 36 27 L 31.5 27 L 31.5 19.5 L 25.21875 19.5 C 24.59375 17.765625 22.941406 16.5 21 16.5 C 18.53125 16.5 16.5 18.53125 16.5 21 C 16.5 23.46875 18.53125 25.5 21 25.5 C 22.941406 25.5 24.59375 24.234375 25.21875 22.5 L 28.5 22.5 L 28.5 30 L 36 30 L 36 42 L 25.5 42 L 25.5 51.28125 C 23.765625 51.90625 22.5 53.558594 22.5 55.5 C 22.5 57.96875 24.53125 60 27 60 C 29.46875 60 31.5 57.96875 31.5 55.5 C 31.5 53.558594 30.234375 51.90625 28.5 51.28125 L 28.5 45 L 36 45 L 36 55.246094 C 35.972656 55.410156 35.972656 55.574219 36 55.738281 L 36 64.996094 C 36 67.453125 34.410156 69 32.042969 69 C 30.777344 69 28.917969 68.855469 27.355469 68.175781 C 25.789062 67.492188 24.519531 66.425781 23.957031 64.140625 L 23.675781 63 L 22.5 63 C 19.75 63 17.300781 61.855469 16.050781 60.183594 C 14.804688 58.507812 14.472656 56.320312 16.289062 53.269531 L 17.238281 51.671875 L 15.476562 51.078125 C 10.898438 49.539062 9 46.464844 9 43.5 C 9 40.921875 9.957031 39.621094 11.3125 38.136719 L 11.894531 37.5 L 16.78125 37.5 C 17.40625 39.234375 19.058594 40.5 21 40.5 C 23.46875 40.5 25.5 38.46875 25.5 36 C 25.5 33.53125 23.46875 31.5 21 31.5 C 19.058594 31.5 17.40625 32.765625 16.78125 34.5 L 10.699219 34.5 C 9.5625 31.730469 9 29.34375 9 26.996094 C 9 20.113281 13.3125 14.085938 18.183594 13.488281 L 19.171875 13.367188 L 19.441406 12.410156 C 20.113281 10.046875 24.359375 6 32.042969 6 Z M 42.957031 6 C 50.640625 6 53.273438 9.648438 54.058594 12.410156 L 54.332031 13.367188 L 55.316406 13.488281 C 60.375 14.109375 65.875 19.246094 66 27.023438 C 66.042969 29.785156 64.914062 33.148438 63.144531 36.851562 L 62.691406 37.804688 L 63.429688 38.550781 C 64.996094 40.136719 66 40.980469 66 43.5 C 66 45.191406 65.769531 46.75 65.082031 48.003906 C 64.640625 48.804688 63.976562 49.511719 63 50.125 L 63 43.5 L 49.5 43.5 L 49.5 38.71875 C 51.234375 38.09375 52.5 36.441406 52.5 34.5 C 52.5 32.03125 50.46875 30 48 30 C 45.53125 30 43.5 32.03125 43.5 34.5 C 43.5 36.441406 44.765625 38.09375 46.5 38.71875 L 46.5 46.5 L 60 46.5 L 60 52.285156 C 59.949219 52.628906 60.015625 52.976562 60.191406 53.277344 C 60.195312 53.277344 60.195312 53.277344 60.195312 53.277344 C 60.972656 54.867188 61.5 56.210938 61.5 57 C 61.5 59.542969 60.53125 60.773438 58.898438 61.691406 C 57.265625 62.613281 54.863281 63 52.5 63 L 51.324219 63 L 51.042969 64.140625 C 50.484375 66.410156 49.175781 67.492188 47.578125 68.179688 C 45.980469 68.867188 44.117188 69.007812 42.96875 69 C 40.589844 68.984375 39 67.453125 39 64.996094 L 39 57 L 45.28125 57 C 45.90625 58.734375 47.558594 60 49.5 60 C 51.96875 60 54 57.96875 54 55.5 C 54 53.03125 51.96875 51 49.5 51 C 47.558594 51 45.90625 52.265625 45.28125 54 L 39 54 L 39 43.753906 C 39.027344 43.589844 39.027344 43.425781 39 43.261719 L 39 28.753906 C 39.027344 28.589844 39.027344 28.425781 39 28.261719 L 39 22.5 L 51.28125 22.5 C 51.90625 24.234375 53.558594 25.5 55.5 25.5 C 57.96875 25.5 60 23.46875 60 21 C 60 18.53125 57.96875 16.5 55.5 16.5 C 53.558594 16.5 51.90625 17.765625 51.28125 19.5 L 39 19.5 L 39 12.277344 C 39 9.316406 39.480469 7.699219 40.039062 6.980469 C 40.597656 6.257812 41.339844 6 42.957031 6 Z M 21 19.5 C 21.816406 19.5 22.4375 20.113281 22.480469 20.914062 C 22.480469 20.972656 22.480469 21.03125 22.480469 21.089844 C 22.4375 21.886719 21.816406 22.5 21 22.5 C 20.152344 22.5 19.5 21.847656 19.5 21 C 19.5 20.152344 20.152344 19.5 21 19.5 Z M 55.5 19.5 C 56.347656 19.5 57 20.152344 57 21 C 57 21.847656 56.347656 22.5 55.5 22.5 C 54.683594 22.5 54.0625 21.886719 54.019531 21.085938 C 54.019531 21.027344 54.019531 20.96875 54.019531 20.910156 C 54.0625 20.113281 54.683594 19.5 55.5 19.5 Z M 48 33 C 48.847656 33 49.5 33.652344 49.5 34.5 C 49.5 35.316406 48.886719 35.9375 48.085938 35.980469 C 48.050781 35.980469 48.011719 35.980469 47.976562 35.980469 C 47.953125 35.980469 47.933594 35.980469 47.910156 35.980469 C 47.113281 35.9375 46.5 35.316406 46.5 34.5 C 46.5 33.652344 47.152344 33 48 33 Z M 21 34.5 C 21.847656 34.5 22.5 35.152344 22.5 36 C 22.5 36.847656 21.847656 37.5 21 37.5 C 20.183594 37.5 19.5625 36.886719 19.519531 36.085938 C 19.519531 36.027344 19.519531 35.96875 19.519531 35.910156 C 19.5625 35.113281 20.183594 34.5 21 34.5 Z M 49.5 54 C 50.347656 54 51 54.652344 51 55.5 C 51 56.347656 50.347656 57 49.5 57 C 48.683594 57 48.0625 56.386719 48.019531 55.585938 C 48.019531 55.527344 48.019531 55.46875 48.019531 55.410156 C 48.0625 54.613281 48.683594 54 49.5 54 Z M 26.914062 54.019531 C 26.972656 54.019531 27.03125 54.019531 27.089844 54.019531 C 27.886719 54.0625 28.5 54.683594 28.5 55.5 C 28.5 56.347656 27.847656 57 27 57 C 26.152344 57 25.5 56.347656 25.5 55.5 C 25.5 54.683594 26.113281 54.0625 26.914062 54.019531 Z M 26.914062 54.019531 "/>
</g>
</svg>
