<?xml version="1.0" encoding="UTF-8"?>
<svg xmlns="http://www.w3.org/2000/svg" xmlns:xlink="http://www.w3.org/1999/xlink" width="75pt" height="75pt" viewBox="0 0 75 75" version="1.1">
<g id="surface3491">
<path style=" stroke:none;fill-rule:nonzero;fill:rgb(9.019608%,9.019608%,9.411765%);fill-opacity:1;" d="M 29.042969 3 C 22.921875 3 18.449219 6.726562 16.871094 10.671875 C 10.703125 12.023438 6 18.972656 6 27 C 6 29.398438 6.464844 31.800781 7.460938 34.5 L 15.277344 34.5 C 15.894531 32.757812 17.546875 31.5 19.5 31.5 C 21.980469 31.5 24 33.519531 24 36 C 24 38.480469 21.980469 40.5 19.5 40.5 C 17.546875 40.5 15.894531 39.242188 15.277344 37.5 L 7.945312 37.5 C 6.84375 39.003906 6 40.855469 6 43.5 C 6 47.667969 8.609375 51.300781 12.914062 53.285156 C 11.71875 56.066406 11.769531 58.804688 13.089844 61.128906 C 14.640625 63.855469 17.753906 65.644531 21.378906 65.953125 C 23.136719 70.691406 27.863281 72 30.542969 72 C 33.03125 72 36 70.785156 36 64.996094 L 36 45 L 27 45 L 27 51.277344 C 28.742188 51.894531 30 53.546875 30 55.5 C 30 57.980469 27.980469 60 25.5 60 C 23.019531 60 21 57.980469 21 55.5 C 21 53.546875 22.257812 51.894531 24 51.277344 L 24 42 L 36 42 L 36 30 L 27 30 L 27 22.5 L 23.722656 22.5 C 23.105469 24.242188 21.453125 25.5 19.5 25.5 C 17.019531 25.5 15 23.480469 15 21 C 15 18.519531 17.019531 16.5 19.5 16.5 C 21.453125 16.5 23.105469 17.757812 23.722656 19.5 L 30 19.5 L 30 27 L 36 27 L 36 10.78125 C 36 3.523438 33.371094 3 29.042969 3 Z M 45.957031 3 C 41.628906 3 39 3.523438 39 10.78125 L 39 19.5 L 51.277344 19.5 C 51.992188 17.496094 54.066406 16.132812 56.398438 16.589844 C 58.160156 16.933594 59.59375 18.386719 59.921875 20.152344 C 60.445312 23.003906 58.257812 25.5 55.5 25.5 C 53.546875 25.5 51.894531 24.242188 51.277344 22.5 L 39 22.5 L 39 54 L 45.277344 54 C 45.992188 51.996094 48.066406 50.632812 50.398438 51.089844 C 52.160156 51.433594 53.59375 52.886719 53.921875 54.652344 C 54.445312 57.503906 52.257812 60 49.5 60 C 47.546875 60 45.894531 58.742188 45.277344 57 L 39 57 L 39 65 C 39 70.785156 41.96875 72 44.457031 72 C 47.136719 72 51.863281 70.691406 53.621094 65.953125 C 57.242188 65.644531 60.359375 63.855469 61.910156 61.128906 C 62.542969 60.015625 62.878906 58.804688 62.925781 57.542969 C 62.988281 55.980469 62.320312 54.527344 61.640625 53.117188 C 61.550781 52.929688 61.5 52.722656 61.5 52.5 L 61.5 46.5 L 48 46.5 L 48 38.722656 C 45.996094 38.011719 44.632812 35.933594 45.089844 33.601562 C 45.433594 31.839844 46.886719 30.40625 48.652344 30.078125 C 51.503906 29.554688 54 31.742188 54 34.5 C 54 36.453125 52.742188 38.105469 51 38.722656 L 51 43.5 L 64.5 43.5 L 64.5 51.84375 C 67.335938 49.765625 69 46.808594 69 43.5 C 69 40.476562 67.898438 38.488281 66.566406 36.871094 C 68.246094 33.15625 69 30.078125 69 27 C 69 18.972656 64.296875 12.023438 58.128906 10.671875 C 56.546875 6.722656 52.078125 3 45.957031 3 Z M 19.5 19.5 C 18.671875 19.5 18 20.171875 18 21 C 18 21.828125 18.671875 22.5 19.5 22.5 C 20.328125 22.5 21 21.828125 21 21 C 21 20.171875 20.328125 19.5 19.5 19.5 Z M 55.5 19.5 C 54.671875 19.5 54 20.171875 54 21 C 54 21.828125 54.671875 22.5 55.5 22.5 C 56.328125 22.5 57 21.828125 57 21 C 57 20.171875 56.328125 19.5 55.5 19.5 Z M 49.5 33 C 48.671875 33 48 33.671875 48 34.5 C 48 35.328125 48.671875 36 49.5 36 C 50.328125 36 51 35.328125 51 34.5 C 51 33.671875 50.328125 33 49.5 33 Z M 19.5 34.5 C 18.671875 34.5 18 35.171875 18 36 C 18 36.828125 18.671875 37.5 19.5 37.5 C 20.328125 37.5 21 36.828125 21 36 C 21 35.171875 20.328125 34.5 19.5 34.5 Z M 25.5 54 C 24.671875 54 24 54.671875 24 55.5 C 24 56.328125 24.671875 57 25.5 57 C 26.328125 57 27 56.328125 27 55.5 C 27 54.671875 26.328125 54 25.5 54 Z M 49.5 54 C 48.671875 54 48 54.671875 48 55.5 C 48 56.328125 48.671875 57 49.5 57 C 50.328125 57 51 56.328125 51 55.5 C 51 54.671875 50.328125 54 49.5 54 Z M 49.5 54 "/>
</g>
</svg>
