<?xml version="1.0" encoding="UTF-8"?>
<svg xmlns="http://www.w3.org/2000/svg" xmlns:xlink="http://www.w3.org/1999/xlink" width="75pt" height="75pt" viewBox="0 0 75 75" version="1.1">
<g id="surface4397">
<path style=" stroke:none;fill-rule:nonzero;fill:rgb(9.019608%,9.019608%,9.411765%);fill-opacity:1;" d="M 37.5 0.148438 C 34.527344 0.148438 31.84375 1.558594 28.128906 3.511719 C 23.339844 6.03125 16.78125 9.476562 5.675781 11.914062 L 4.5 12.171875 L 4.5 13.378906 C 4.5 59.078125 36.546875 74.398438 36.871094 74.550781 L 37.53125 74.855469 L 38.179688 74.523438 C 38.503906 74.359375 70.5 57.554688 70.5 13.378906 L 70.5 12.171875 L 69.324219 11.914062 C 58.21875 9.476562 51.660156 6.03125 46.871094 3.511719 C 43.15625 1.558594 40.472656 0.148438 37.5 0.148438 Z M 37.574219 19.378906 L 41.144531 28.746094 L 41.488281 29.652344 L 42.457031 29.714844 L 52.5 30.304688 C 52.503906 30.351562 52.488281 30.386719 52.464844 30.417969 L 44.75 36.652344 L 43.996094 37.261719 L 44.242188 38.199219 L 46.808594 47.957031 L 38.417969 42.414062 L 37.601562 41.878906 L 36.78125 42.402344 L 28.449219 47.761719 C 28.398438 47.785156 28.339844 47.816406 28.292969 47.835938 C 28.285156 47.832031 28.277344 47.828125 28.269531 47.824219 C 28.257812 47.804688 28.253906 47.792969 28.246094 47.792969 L 30.792969 38.042969 L 31.035156 37.117188 L 30.300781 36.507812 L 22.648438 30.207031 L 22.589844 30.160156 L 32.582031 29.558594 L 33.550781 29.503906 L 33.894531 28.597656 L 37.363281 19.503906 C 37.441406 19.445312 37.519531 19.402344 37.574219 19.378906 Z M 37.574219 19.378906 "/>
</g>
</svg>
