<?xml version="1.0" encoding="UTF-8"?>
<svg xmlns="http://www.w3.org/2000/svg" xmlns:xlink="http://www.w3.org/1999/xlink" width="75pt" height="75pt" viewBox="0 0 75 75" version="1.1">
<g id="surface4805">
<path style=" stroke:none;fill-rule:nonzero;fill:rgb(9.019608%,9.019608%,9.411765%);fill-opacity:1;" d="M 37.5 0.148438 C 33.820312 0.148438 30.714844 2.195312 26.105469 4.566406 C 21.5 6.933594 15.328125 9.796875 5.675781 11.914062 L 4.5 12.171875 L 4.5 13.378906 C 4.5 36.359375 12.535156 51.703125 20.605469 61.226562 C 28.671875 70.75 36.871094 74.550781 36.871094 74.550781 L 37.53125 74.855469 L 38.179688 74.523438 C 38.179688 74.523438 70.5 57.863281 70.5 13.378906 L 70.5 12.171875 L 69.324219 11.914062 C 59.671875 9.796875 53.5 6.933594 48.894531 4.566406 C 44.285156 2.195312 41.179688 0.148438 37.5 0.148438 Z M 37.5 3.144531 C 39.96875 3.144531 42.816406 4.8125 47.523438 7.234375 C 51.988281 9.53125 58.292969 12.320312 67.402344 14.464844 C 66.871094 55.164062 39.417969 70.40625 37.476562 71.429688 C 36.539062 70.972656 30.046875 67.726562 22.894531 59.289062 C 15.351562 50.382812 7.859375 36.085938 7.59375 14.464844 C 16.707031 12.320312 23.007812 9.53125 27.476562 7.234375 C 32.183594 4.8125 35.03125 3.144531 37.5 3.144531 Z M 37.59375 17.863281 C 36.992188 17.863281 36.394531 18.316406 36.09375 18.613281 L 32.492188 28.066406 L 22.445312 28.667969 C 21.84375 28.667969 21.242188 29.117188 21.09375 29.714844 C 20.945312 30.316406 21.09375 31.066406 21.695312 31.363281 L 29.34375 37.667969 L 26.792969 47.417969 C 26.644531 48.015625 26.945312 48.765625 27.394531 49.066406 C 27.695312 49.214844 27.996094 49.363281 28.292969 49.363281 C 28.59375 49.363281 28.894531 49.214844 29.195312 49.066406 L 37.59375 43.667969 L 45.992188 49.214844 C 46.441406 49.664062 47.195312 49.515625 47.644531 49.214844 C 48.246094 48.765625 48.394531 48.167969 48.242188 47.566406 L 45.695312 37.816406 L 53.492188 31.519531 C 53.941406 31.066406 54.09375 30.464844 53.945312 29.863281 C 53.792969 29.265625 53.195312 28.816406 52.59375 28.816406 L 42.542969 28.214844 L 38.945312 18.769531 C 38.792969 18.316406 38.195312 17.863281 37.59375 17.863281 Z M 37.59375 23.566406 L 39.992188 30.316406 C 40.292969 30.765625 40.742188 31.214844 41.34375 31.214844 L 48.542969 31.667969 L 42.992188 36.167969 C 42.542969 36.46875 42.394531 37.066406 42.542969 37.667969 L 44.34375 44.566406 L 38.34375 40.667969 C 38.195312 40.515625 37.894531 40.363281 37.59375 40.363281 C 37.292969 40.363281 36.996094 40.519531 36.695312 40.519531 L 30.695312 44.417969 L 32.492188 37.519531 C 32.644531 37.066406 32.496094 36.316406 32.042969 36.019531 L 26.492188 31.519531 L 33.695312 31.214844 C 34.292969 31.066406 34.746094 30.765625 35.042969 30.167969 Z M 37.59375 23.566406 "/>
</g>
</svg>
