<svg width="45" height="45" viewBox="0 0 45 45" fill="none" xmlns="http://www.w3.org/2000/svg">
<path d="M0.15625 22.5C0.15625 10.1599 10.1599 0.15625 22.5 0.15625C34.8401 0.15625 44.8438 10.1599 44.8438 22.5C44.8438 34.8401 34.8401 44.8438 22.5 44.8438C10.1599 44.8438 0.15625 34.8401 0.15625 22.5ZM31.1454 14.9191C30.3759 14.3634 29.3015 14.5367 28.7457 15.3062L20.5013 26.7216C20.2856 27.0202 19.8482 27.0406 19.6057 26.7634L16.1548 22.8196C15.5297 22.1052 14.4439 22.0328 13.7295 22.6579C13.0151 23.283 12.9428 24.3688 13.5678 25.0832L17.0187 29.027C18.7167 30.9676 21.7783 30.8246 23.288 28.7342L31.5325 17.3188C32.0882 16.5493 31.9149 15.4749 31.1454 14.9191Z" fill="#1099FB"/>
</svg>
