<svg width="19" height="18" viewBox="0 0 19 18" fill="none" xmlns="http://www.w3.org/2000/svg">
<path d="M7.96405 13.2L15.1329 6.15L13.7093 4.75L7.96405 10.4L5.06602 7.55L3.64242 8.95L7.96405 13.2ZM2.26967 18C1.7104 18 1.23163 17.8042 0.833364 17.4125C0.435096 17.0208 0.235962 16.55 0.235962 16V2C0.235962 1.45 0.435096 0.979167 0.833364 0.5875C1.23163 0.195833 1.7104 0 2.26967 0H16.5056C17.0649 0 17.5437 0.195833 17.9419 0.5875C18.3402 0.979167 18.5393 1.45 18.5393 2V16C18.5393 16.55 18.3402 17.0208 17.9419 17.4125C17.5437 17.8042 17.0649 18 16.5056 18H2.26967Z" fill="white"/>
</svg>
