<svg t="1758349551721" class="icon" viewBox="0 0 1024 1024" version="1.1" xmlns="http://www.w3.org/2000/svg" p-id="6572" width="200" height="200"><path d="M944.92 116.95l-420-112.33a50.088 50.088 0 0 0-25.84 0l-420 112.33c-22.64 6.05-38.03 27.02-37.04 50.43l14.8 348.08c0.01 0.24 0.02 0.48 0.04 0.71 15.71 276.28 163.28 355.07 350.1 454.81 25.98 13.87 52.84 28.21 80.66 43.735a49.938 49.938 0 0 0 24.37 6.35c8.4 0 16.8-2.11 24.37-6.35 27.82-15.525 54.68-29.865 80.66-43.735 186.82-99.75 334.38-178.53 350.09-454.81 0.01-0.24 0.03-0.48 0.04-0.71l14.8-348.08c0.98-23.41-14.42-44.37-37.05-50.43z m-432.92 551.05c-27.61 0-50-22.39-50-50V368c0-27.61 22.39-50 50-50s50 22.39 50 50v250c0 27.61-22.39 50-50 50z m0 150c-27.61 0-50-22.39-50-50s22.39-50 50-50 50 22.39 50 50-22.39 50-50 50z" fill="#231815" p-id="6573"></path></svg>
