<svg width="20" height="16" viewBox="0 0 20 16" fill="none" xmlns="http://www.w3.org/2000/svg">
<path d="M7.70117 0.373047L7.16406 0.4375C7.16406 0.4375 4.75513 0.700684 2.99609 2.11328H2.97461L2.95312 2.13477C2.55835 2.49731 2.38647 2.94311 2.11523 3.5957C1.84399 4.24829 1.55396 5.08081 1.29883 6.00195C0.788575 7.84692 0.375 10.0813 0.375 12.125V12.2969L0.460938 12.4688C1.09741 13.5859 2.22803 14.2976 3.27539 14.7891C4.32275 15.2805 5.22778 15.541 5.85352 15.5625L6.26172 15.584L6.47656 15.2188L7.22852 13.8867C8.02612 14.0667 8.94458 14.1875 10 14.1875C11.0554 14.1875 11.9739 14.0667 12.7715 13.8867L13.5234 15.2188L13.7383 15.584L14.1465 15.5625C14.7722 15.541 15.6772 15.2805 16.7246 14.7891C17.772 14.2976 18.9026 13.5859 19.5391 12.4688L19.625 12.2969V12.125C19.625 10.0813 19.2114 7.84692 18.7012 6.00195C18.446 5.08081 18.156 4.24829 17.8848 3.5957C17.6135 2.94311 17.4417 2.49731 17.0469 2.13477L17.0254 2.11328H17.0039C15.2449 0.700684 12.8359 0.4375 12.8359 0.4375L12.2988 0.373047L12.1055 0.867188C12.1055 0.867188 11.9067 1.36938 11.7832 1.94141C11.0044 1.83667 10.3679 1.8125 10 1.8125C9.63208 1.8125 8.99561 1.83667 8.2168 1.94141C8.09326 1.36938 7.89453 0.867188 7.89453 0.867188L7.70117 0.373047ZM6.75586 1.94141C6.7854 2.03809 6.81494 2.12134 6.8418 2.19922C5.95288 2.41943 5.00488 2.75513 4.13477 3.29492L4.86523 4.45508C6.64844 3.34863 9.21045 3.1875 10 3.1875C10.7896 3.1875 13.3516 3.34863 15.1348 4.45508L15.8652 3.29492C14.9951 2.75513 14.0471 2.41943 13.1582 2.19922C13.1851 2.12134 13.2146 2.03809 13.2441 1.94141C13.886 2.07031 15.1106 2.36572 16.123 3.16602C16.1177 3.1687 16.3809 3.56616 16.6172 4.13281C16.8589 4.71558 17.1274 5.4917 17.3691 6.36719C17.8337 8.04565 18.199 10.0894 18.2285 11.8887C17.7961 12.5493 16.9932 13.1455 16.1445 13.543C15.4033 13.8894 14.8179 14.0156 14.4688 14.0801L14.125 13.5C14.3291 13.4248 14.5305 13.3416 14.7051 13.2637C15.7632 12.7991 16.3379 12.2969 16.3379 12.2969L15.4355 11.2656C15.4355 11.2656 15.0488 11.6201 14.1465 12.0176C13.2441 12.415 11.8665 12.8125 10 12.8125C8.13354 12.8125 6.75586 12.415 5.85352 12.0176C4.95117 11.6201 4.56445 11.2656 4.56445 11.2656L3.66211 12.2969C3.66211 12.2969 4.23682 12.7991 5.29492 13.2637C5.46948 13.3416 5.6709 13.4248 5.875 13.5L5.53125 14.0801C5.18213 14.0156 4.59668 13.8894 3.85547 13.543C3.00684 13.1455 2.20386 12.5493 1.77148 11.8887C1.80103 10.0894 2.16626 8.04565 2.63086 6.36719C2.87256 5.4917 3.14111 4.71558 3.38281 4.13281C3.61914 3.56616 3.88232 3.1687 3.87695 3.16602C4.8894 2.36572 6.11401 2.07031 6.75586 1.94141ZM7.59375 6.625C7.06201 6.625 6.59204 6.92847 6.30469 7.3125C6.01733 7.69653 5.875 8.16919 5.875 8.6875C5.875 9.20581 6.01733 9.67847 6.30469 10.0625C6.59204 10.4465 7.06201 10.75 7.59375 10.75C8.12549 10.75 8.59546 10.4465 8.88281 10.0625C9.17017 9.67847 9.3125 9.20581 9.3125 8.6875C9.3125 8.16919 9.17017 7.69653 8.88281 7.3125C8.59546 6.92847 8.12549 6.625 7.59375 6.625ZM12.4062 6.625C11.8745 6.625 11.4045 6.92847 11.1172 7.3125C10.8298 7.69653 10.6875 8.16919 10.6875 8.6875C10.6875 9.20581 10.8298 9.67847 11.1172 10.0625C11.4045 10.4465 11.8745 10.75 12.4062 10.75C12.938 10.75 13.408 10.4465 13.6953 10.0625C13.9827 9.67847 14.125 9.20581 14.125 8.6875C14.125 8.16919 13.9827 7.69653 13.6953 7.3125C13.408 6.92847 12.938 6.625 12.4062 6.625ZM7.59375 8C7.63135 8 7.67969 8.01343 7.76562 8.12891C7.85156 8.24438 7.9375 8.4458 7.9375 8.6875C7.9375 8.9292 7.85156 9.13062 7.76562 9.24609C7.67969 9.36157 7.63135 9.375 7.59375 9.375C7.55615 9.375 7.50781 9.36157 7.42188 9.24609C7.33594 9.13062 7.25 8.9292 7.25 8.6875C7.25 8.4458 7.33594 8.24438 7.42188 8.12891C7.50781 8.01343 7.55615 8 7.59375 8ZM12.4062 8C12.4438 8 12.4922 8.01343 12.5781 8.12891C12.6641 8.24438 12.75 8.4458 12.75 8.6875C12.75 8.9292 12.6641 9.13062 12.5781 9.24609C12.4922 9.36157 12.4438 9.375 12.4062 9.375C12.3687 9.375 12.3203 9.36157 12.2344 9.24609C12.1484 9.13062 12.0625 8.9292 12.0625 8.6875C12.0625 8.4458 12.1484 8.24438 12.2344 8.12891C12.3203 8.01343 12.3687 8 12.4062 8Z" fill="black"/>
</svg>
