<svg width="20" height="16" viewBox="0 0 20 16" fill="none" xmlns="http://www.w3.org/2000/svg">
<path d="M16.9226 1.32875C15.6556 0.729 14.2924 0.292 12.8651 0.0455C12.8396 0.0405 12.8141 0.052 12.8001 0.0755C12.6199 0.3975 12.4206 0.8115 12.2804 1.1415C10.7534 0.9035 9.23462 0.9035 7.74162 1.1415C7.60137 0.8045 7.39512 0.3975 7.21412 0.0755C7.20012 0.0527 7.17462 0.0412 7.14912 0.0455C5.72287 0.2912 4.35962 0.7282 3.09187 1.32875C3.08037 1.3335 3.07037 1.3415 3.06337 1.352C0.444865 5.32125 -0.266135 9.1915 0.0828651 13.0145C0.0843651 13.033 0.0953651 13.0507 0.110365 13.0625C1.88137 14.351 3.59912 15.137 5.28837 15.661C5.31387 15.669 5.34087 15.659 5.35687 15.6372C5.74637 15.0965 6.09362 14.527 6.39287 13.928C6.40962 13.8955 6.39362 13.8572 6.35987 13.8445C5.80762 13.6335 5.28012 13.3767 4.77212 13.0835C4.73462 13.0602 4.73162 13.0067 4.76612 12.9797C4.87362 12.899 4.98112 12.815 5.08412 12.7302C5.10162 12.7155 5.12562 12.7125 5.14612 12.7215C8.48062 14.2635 12.0861 14.2635 15.3806 12.7215C15.4011 12.7117 15.4251 12.7147 15.4434 12.7295C15.5464 12.8142 15.6539 12.899 15.7621 12.9797C15.7966 13.0067 15.7944 13.0602 15.7569 13.0835C15.2489 13.3827 14.7214 13.6335 14.1684 13.8437C14.1346 13.8565 14.1194 13.8955 14.1361 13.928C14.4424 14.5262 14.7896 15.0957 15.1714 15.6365C15.1866 15.659 15.2144 15.669 15.2399 15.661C16.9369 15.137 18.6546 14.351 20.4256 13.0625C20.4414 13.0507 20.4516 13.0337 20.4531 13.0152C20.8716 8.61 19.7591 4.7735 16.9481 1.3527C16.9419 1.3415 16.9319 1.3335 16.9226 1.32875ZM6.85537 10.6962C5.84887 10.6962 5.01787 9.7625 5.01787 8.6225C5.01787 7.4825 5.83337 6.5487 6.85537 6.5487C7.88512 6.5487 8.70837 7.49025 8.69287 8.6225C8.69287 9.7625 7.87737 10.6962 6.85537 10.6962ZM13.6966 10.6962C12.6901 10.6962 11.8591 9.7625 11.8591 8.6225C11.8591 7.4825 12.6746 6.5487 13.6966 6.5487C14.7264 6.5487 15.5496 7.49025 15.5341 8.6225C15.5341 9.7625 14.7264 10.6962 13.6966 10.6962Z" fill="currentColor"/>
</svg>