<svg width="44" height="42" viewBox="0 0 44 42" fill="none" xmlns="http://www.w3.org/2000/svg">
<path d="M22 0.6875C10.8594 0.6875 1.79202 9.70574 1.6967 20.826C2.59358 20.4667 3.65476 20.1051 4.87664 19.7457C5.52195 10.8535 12.9454 3.8125 22 3.8125C31.0547 3.8125 38.4781 10.8535 39.1235 19.7457C40.3453 20.1051 41.4065 20.4667 42.3034 20.826C42.2081 9.70574 33.1407 0.6875 22 0.6875ZM11.0625 17.875V21H18.875V17.875H11.0625ZM25.125 17.875V21H32.9375V17.875H25.125ZM6.37505 22.5625C6.37505 22.5625 1.73506 23.8669 0.814746 24.7872C-0.105566 25.7075 -0.105566 27.2025 0.814746 28.1228C1.73506 29.0431 3.23001 29.0431 4.15032 28.1228C5.07063 27.2025 6.37505 22.5625 6.37505 22.5625ZM37.625 22.5625C37.625 22.5625 38.9295 27.2025 39.8498 28.1228C40.7701 29.0431 42.265 29.0431 43.1854 28.1228C44.1057 27.2025 44.1057 25.7075 43.1854 24.7872C42.265 23.8669 37.625 22.5625 37.625 22.5625ZM11.0625 25.6875C11.0625 25.6875 13.5782 33.5 22 33.5C30.4219 33.5 32.9375 25.6875 32.9375 25.6875H11.0625ZM7.04338 29.4381C6.81526 29.8022 6.58479 30.1073 6.35979 30.3323C5.85823 30.8338 5.27446 31.2201 4.64165 31.4919C8.20571 37.3669 14.6422 41.3125 22 41.3125C29.3579 41.3125 35.7944 37.3669 39.3584 31.4919C38.7256 31.2201 38.1419 30.8354 37.6403 30.3323C37.4137 30.1057 37.1848 29.8006 36.9567 29.4381C34.002 34.6537 28.411 38.1875 22 38.1875C15.5891 38.1875 9.99807 34.6537 7.04338 29.4381Z" fill="#1099FB"/>
</svg>
