<svg width="12" height="12" viewBox="0 0 12 12" fill="none" xmlns="http://www.w3.org/2000/svg">
<path d="M2 0.5C1.17773 0.5 0.5 1.17773 0.5 2V11.5H7.5V8H8.5V10C8.5 10.8223 9.17773 11.5 10 11.5C10.8223 11.5 11.5 10.8223 11.5 10V4.90625C11.5 4.50781 11.3438 4.14062 11.0625 3.85938L8.70312 1.5L8 2.20312L9.42188 3.625C8.88477 3.85352 8.5 4.38281 8.5 5C8.5 5.82227 9.17773 6.5 10 6.5C10.1758 6.5 10.3418 6.46289 10.5 6.40625V10C10.5 10.2832 10.2832 10.5 10 10.5C9.7168 10.5 9.5 10.2832 9.5 10V8C9.5 7.45312 9.04688 7 8.5 7H7.5V2C7.5 1.17773 6.82227 0.5 6 0.5H2ZM2 1.5H6C6.2832 1.5 6.5 1.7168 6.5 2V4H1.5V2C1.5 1.7168 1.7168 1.5 2 1.5ZM10 4.5C10.2812 4.5 10.5 4.71875 10.5 5C10.5 5.28125 10.2812 5.5 10 5.5C9.71875 5.5 9.5 5.28125 9.5 5C9.5 4.71875 9.71875 4.5 10 4.5ZM1.5 5H6.5V10.5H1.5V5Z" fill="#909090"/>
</svg>
