<?xml version="1.0"?><svg xmlns="http://www.w3.org/2000/svg"  viewBox="0 0 24 24" width="50px" height="50px">    <path d="M 12 3.3417969 C 11.744125 3.3417969 11.488469 3.4412187 11.292969 3.6367188 L 5.6367188 9.2929688 C 5.2457188 9.6829687 5.2457187 10.316031 5.6367188 10.707031 L 5.7226562 10.792969 C 6.1126563 11.183969 6.7457187 11.183969 7.1367188 10.792969 L 11 6.9296875 L 11 20 C 11 20.552 11.448 21 12 21 C 12.552 21 13 20.552 13 20 L 13 6.9296875 L 16.863281 10.792969 C 17.253281 11.183969 17.886344 11.183969 18.277344 10.792969 L 18.363281 10.707031 C 18.754281 10.317031 18.754281 9.6839688 18.363281 9.2929688 L 12.707031 3.6367188 C 12.512031 3.4412187 12.255875 3.3417969 12 3.3417969 z"/></svg>