<svg width="18" height="20" viewBox="0 0 18 20" fill="none" xmlns="http://www.w3.org/2000/svg">
    <path d="M10.4929 1.65889C10.5615 1.07231 10.2412 0.576507 9.78202 0.363335C9.3136 0.145873 8.70495 0.230921 8.32137 0.723186L0.519278 10.736C0.203705 11.141 0.187257 11.6463 0.358725 12.0378C0.531038 12.4312 0.929042 12.779 1.47525 12.779H8.15728L7.50717 18.3411C7.43861 18.9277 7.75888 19.4235 8.21806 19.6367C8.68648 19.8541 9.29513 19.7691 9.67871 19.2768L17.4808 9.26398C17.7964 8.85899 17.8128 8.35376 17.6414 7.96224C17.469 7.56879 17.071 7.22102 16.5248 7.22102H9.84281L10.4929 1.65889Z" fill="black"/>
    </svg>
    