<svg width="19" height="18" viewBox="0 0 19 18" fill="none" xmlns="http://www.w3.org/2000/svg">
    <path d="M6.70459 0V2.0376C8.95834 2.23935 10.4619 4.09759 10.4619 6.23584C10.4619 8.20159 9.11667 9.84979 7.29492 10.311L6.67529 12.2549L6.58887 12.5142C7.69737 12.4422 8.80601 12.047 9.77051 11.3848L10.1528 11.9605C11.2186 12.349 12.0397 13.1989 12.4072 14.0127C12.7747 14.8407 12.7876 15.2718 14.0903 16.2363C15.3938 17.1941 16.2439 17.9002 16.4531 17.9722C16.6691 18.0442 17.1372 18.0008 17.5767 17.562C18.0147 17.1218 18.0574 16.6536 17.9854 16.4443C17.9134 16.2358 17.2082 15.3865 16.2437 14.083C15.2792 12.7795 14.8391 12.7652 14.0186 12.3984C13.1981 12.0309 12.3481 11.2171 11.9663 10.1514L11.3979 9.77783C12.0894 8.76983 12.5288 7.55359 12.5288 6.23584C12.5288 2.91634 9.96559 0.20175 6.70459 0ZM5.37891 0.0512695C2.34066 0.47577 0 3.08959 0 6.23584C0 9.40384 2.25405 12.0519 5.2998 12.4629V10.3682C3.37755 9.98716 2.0376 8.28034 2.0376 6.23584C2.0376 4.44259 3.1533 2.91545 4.7373 2.3042L5.32764 0.23877L5.37891 0.0512695ZM6 0.424805L3.86572 7.87647L6.00439 6.93311V12.0322L8.63965 3.83789L6 4.93945V0.424805ZM16.8691 16.5454C17.0424 16.5454 17.1855 16.6893 17.1855 16.8618C17.1855 17.0351 17.0416 17.1724 16.8691 17.1724C16.6966 17.1724 16.5601 17.0351 16.5601 16.8618C16.5601 16.6893 16.6959 16.5454 16.8691 16.5454Z" fill="#F7F8F8" fill-opacity="0.7"/>
    </svg>
    