<svg width="12" height="14" viewBox="0 0 12 14" fill="none" xmlns="http://www.w3.org/2000/svg">
<path d="M11.26 5.36653C11.2046 5.25659 11.1198 5.16413 11.0151 5.09941C10.9104 5.0347 10.7898 5.00024 10.6667 4.99987H7.33333V0.999866C7.34049 0.853655 7.29932 0.709154 7.21618 0.588666C7.13305 0.468179 7.01256 0.378404 6.87333 0.333199C6.73948 0.289161 6.59512 0.288667 6.46097 0.331786C6.32683 0.374905 6.20979 0.45942 6.12667 0.573199L0.793333 7.90653C0.72651 8.00311 0.686385 8.11563 0.67702 8.23269C0.667654 8.34976 0.68938 8.46723 0.739999 8.5732C0.786614 8.69437 0.867591 8.79928 0.972992 8.87508C1.07839 8.95087 1.20363 8.99424 1.33333 8.99987H4.66667V12.9999C4.66677 13.1405 4.71131 13.2774 4.79393 13.3912C4.87655 13.5049 4.99301 13.5896 5.12667 13.6332C5.19365 13.654 5.26322 13.6652 5.33333 13.6665C5.43852 13.6668 5.54229 13.6422 5.63614 13.5947C5.72999 13.5472 5.81127 13.4781 5.87333 13.3932L11.2067 6.05987C11.2785 5.9604 11.3215 5.84304 11.3309 5.7207C11.3403 5.59837 11.3158 5.47582 11.26 5.36653ZM6 10.9465V8.3332C6 8.15639 5.92976 7.98682 5.80474 7.86179C5.67971 7.73677 5.51014 7.66653 5.33333 7.66653H2.66667L6 3.0532V5.66653C6 5.84334 6.07024 6.01291 6.19526 6.13794C6.32029 6.26296 6.48986 6.3332 6.66667 6.3332H9.33333L6 10.9465Z" fill="currentColor"/>
</svg>
