<svg xmlns="http://www.w3.org/2000/svg" xmlns:xlink="http://www.w3.org/1999/xlink" viewBox="0 0 32 32" width="20" height="20" style="" filter="none">
    
    <g>
    <path d="M2.667 24h9.333v2.667h-9.333v-2.667zM2.667 14.667h12v2.667h-12v-2.667zM2.667 5.333h26.667v2.667h-26.667v-2.667zM27.565 17.367l1.541-0.521 1.333 2.309-1.221 1.073c0.073 0.332 0.115 0.714 0.115 1.105s-0.042 0.773-0.122 1.141l0.006-0.035 1.221 1.073-1.333 2.309-1.541-0.521c-0.547 0.493-1.197 0.873-1.913 1.107l-0.319 1.593h-2.667l-0.32-1.595c-0.741-0.246-1.379-0.624-1.917-1.111l0.005 0.004-1.541 0.523-1.333-2.309 1.221-1.073c-0.073-0.332-0.115-0.714-0.115-1.105s0.042-0.773 0.122-1.141l-0.006 0.035-1.221-1.073 1.333-2.309 1.541 0.521c0.547-0.493 1.197-0.873 1.913-1.107l0.319-1.593h2.667l0.32 1.595c0.715 0.232 1.365 0.613 1.912 1.107zM24 24c1.473 0 2.667-1.194 2.667-2.667s-1.194-2.667-2.667-2.667v0c-1.473 0-2.667 1.194-2.667 2.667s1.194 2.667 2.667 2.667v0z" fill="rgba(6,6,6,0.55)"></path>
    </g>
  </svg>