<svg xmlns="http://www.w3.org/2000/svg" xmlns:xlink="http://www.w3.org/1999/xlink" viewBox="0 0 32 32" width="24" height="24" style="" filter="none">
    
    <g>
    <path d="M2.667 16c0-1.153 0.147-2.271 0.421-3.339 0.063 0.004 0.136 0.005 0.21 0.005 2.209 0 4-1.791 4-4 0-0.81-0.24-1.563-0.654-2.193l0.009 0.015c1.565-1.541 3.512-2.698 5.686-3.317l0.094-0.023c0.676 1.308 2.018 2.187 3.565 2.187s2.89-0.879 3.555-2.164l0.011-0.022c2.268 0.642 4.215 1.799 5.782 3.342l-0.002-0.002c-0.405 0.615-0.646 1.369-0.646 2.179 0 2.209 1.791 4 4 4 0.075 0 0.149-0.002 0.223-0.006l-0.010 0c0.275 1.067 0.421 2.184 0.421 3.337s-0.147 2.271-0.421 3.339c-0.063-0.004-0.137-0.006-0.211-0.006-2.209 0-4 1.791-4 4 0 0.81 0.241 1.563 0.654 2.193l-0.009-0.015c-1.565 1.541-3.512 2.698-5.686 3.317l-0.094 0.023c-0.676-1.308-2.018-2.187-3.565-2.187s-2.89 0.879-3.555 2.164l-0.011 0.022c-2.268-0.642-4.215-1.799-5.782-3.342l0.002 0.002c0.405-0.615 0.646-1.369 0.646-2.179 0-2.209-1.791-4-4-4-0.075 0-0.149 0.002-0.223 0.006l0.010-0c-0.273-1.065-0.42-2.183-0.42-3.337zM9.072 20c0.84 1.455 1.080 3.128 0.752 4.699 0.544 0.387 1.123 0.721 1.729 1 1.173-1.054 2.732-1.699 4.442-1.699 0.002 0 0.003 0 0.005 0h-0c1.68 0 3.251 0.628 4.447 1.699 0.607-0.279 1.185-0.613 1.729-1-0.090-0.411-0.142-0.883-0.142-1.367 0-1.227 0.332-2.376 0.911-3.363l-0.017 0.031c0.823-1.409 2.109-2.47 3.646-2.986l0.047-0.014c0.029-0.3 0.046-0.648 0.046-1s-0.017-0.7-0.050-1.044l0.003 0.044c-1.584-0.529-2.871-1.591-3.678-2.969l-0.017-0.031c-0.562-0.956-0.894-2.105-0.894-3.332 0-0.484 0.052-0.956 0.15-1.411l-0.008 0.044c-0.499-0.359-1.066-0.693-1.664-0.973l-0.065-0.027c-1.173 1.054-2.732 1.699-4.442 1.699-0.001 0-0.002 0-0.003 0h0c-0.001 0-0.003 0-0.005 0-1.71 0-3.269-0.645-4.448-1.704l0.006 0.005c-0.663 0.307-1.23 0.641-1.761 1.022l0.032-0.022c0.090 0.411 0.142 0.883 0.142 1.367 0 1.227-0.332 2.376-0.911 3.363l0.017-0.031c-0.823 1.409-2.109 2.47-3.646 2.986l-0.047 0.014c-0.029 0.3-0.046 0.648-0.046 1s0.017 0.7 0.050 1.044l-0.003-0.044c1.584 0.529 2.871 1.591 3.678 2.969l0.017 0.031zM16 20c-2.209 0-4-1.791-4-4s1.791-4 4-4v0c2.209 0 4 1.791 4 4s-1.791 4-4 4v0zM16 17.333c0.736 0 1.333-0.597 1.333-1.333s-0.597-1.333-1.333-1.333v0c-0.736 0-1.333 0.597-1.333 1.333s0.597 1.333 1.333 1.333v0z" fill="rgba(16,16,16,1)"></path>
    </g>
  </svg>