<svg t="1758349551721" class="icon" viewBox="0 0 1024 1024" version="1.1" xmlns="http://www.w3.org/2000/svg" p-id="6572" width="200" height="200"><path d="M944.92 116.95l-420-112.33a50.088 50.088 0 0 0-25.84 0l-420 112.33c-22.64 6.05-38.03 27.02-37.04 50.43l14.8 348.08c0.01 0.24 0.02 0.48 0.04 0.71 15.71 276.28 163.28 355.07 350.1 454.81 25.98 13.87 52.84 28.21 80.66 43.735a49.938 49.938 0 0 0 24.37 6.35c8.4 0 16.8-2.11 24.37-6.35 27.82-15.525 54.68-29.865 80.66-43.735 186.82-99.75 334.38-178.53 350.09-454.81 0.01-0.24 0.03-0.48 0.04-0.71l14.8-348.08c0.98-23.41-14.42-44.37-37.05-50.43z m-206.65 310.2L497.86 667.56c-9.76 9.76-22.56 14.64-35.36 14.64-10.4 0-20.79-3.22-29.56-9.67a51.007 51.007 0 0 1-5.79-4.98L285.73 526.14c-19.53-19.53-19.53-51.18 0-70.71 19.53-19.53 51.18-19.53 70.71 0L462.5 561.5l205.06-205.06c19.53-19.53 51.19-19.53 70.71 0 19.53 19.52 19.53 51.18 0 70.71z" fill="#231815" p-id="6573"></path></svg>