<svg width="16" height="20" viewBox="0 0 16 20" fill="none" xmlns="http://www.w3.org/2000/svg">
<path d="M8.92001 13.0001C8.90003 12.9386 8.86959 12.8811 8.83001 12.8301L8.71001 12.6801C8.61704 12.5863 8.50644 12.5119 8.38458 12.4612C8.26272 12.4104 8.13202 12.3843 8.00001 12.3843C7.86799 12.3843 7.73729 12.4104 7.61543 12.4612C7.49357 12.5119 7.38297 12.5863 7.29001 12.6801C7.24233 12.7234 7.20183 12.774 7.17001 12.8301C7.13043 12.8811 7.09998 12.9386 7.08001 13.0001C7.05105 13.0602 7.03084 13.1242 7.02001 13.1901C7.01511 13.2533 7.01511 13.3168 7.02001 13.3801C7.01653 13.5145 7.0439 13.6479 7.10001 13.7701C7.20177 14.0133 7.39544 14.2064 7.6389 14.3076C7.88235 14.4087 8.15589 14.4096 8.40001 14.3101C8.52154 14.2557 8.63309 14.1813 8.73001 14.0901C8.81996 13.9979 8.89126 13.8893 8.94001 13.7701C8.99254 13.6467 9.01975 13.5141 9.02001 13.3801C9.02491 13.3168 9.02491 13.2533 9.02001 13.1901C8.99664 13.122 8.96291 13.0579 8.92001 13.0001ZM8.00001 5.36006C7.73479 5.36006 7.48044 5.46542 7.2929 5.65296C7.10536 5.84049 7.00001 6.09485 7.00001 6.36006V9.36006C7.00001 9.62528 7.10536 9.87963 7.2929 10.0672C7.48044 10.2547 7.73479 10.3601 8.00001 10.3601C8.26522 10.3601 8.51958 10.2547 8.70711 10.0672C8.89465 9.87963 9.00001 9.62528 9.00001 9.36006V6.36006C9.00001 6.09485 8.89465 5.84049 8.70711 5.65296C8.51958 5.46542 8.26522 5.36006 8.00001 5.36006ZM15.63 1.65006C15.5138 1.55609 15.3781 1.48934 15.2327 1.45473C15.0873 1.42012 14.9361 1.41852 14.79 1.45006C13.7214 1.67401 12.6183 1.67686 11.5486 1.45845C10.4789 1.24003 9.46525 0.804978 8.57001 0.180064C8.40261 0.063937 8.20374 0.00170898 8.00001 0.00170898C7.79627 0.00170898 7.5974 0.063937 7.43001 0.180064C6.53476 0.804978 5.52108 1.24003 4.45137 1.45845C3.38166 1.67686 2.27857 1.67401 1.21001 1.45006C1.06394 1.41852 0.912671 1.42012 0.767306 1.45473C0.621942 1.48934 0.486181 1.55609 0.370006 1.65006C0.253985 1.74418 0.160527 1.8631 0.0964981 1.99808C0.0324695 2.13306 -0.00050219 2.28067 5.78149e-06 2.43006V9.88006C-0.000883255 11.3138 0.340779 12.727 0.996541 14.002C1.6523 15.277 2.60319 16.3769 3.77001 17.2101L7.42001 19.8101C7.58937 19.9306 7.7921 19.9954 8.00001 19.9954C8.20791 19.9954 8.41064 19.9306 8.58001 19.8101L12.23 17.2101C13.3968 16.3769 14.3477 15.277 15.0035 14.002C15.6592 12.727 16.0009 11.3138 16 9.88006V2.43006C16.0005 2.28067 15.9675 2.13306 15.9035 1.99808C15.8395 1.8631 15.746 1.74418 15.63 1.65006ZM14 9.88006C14.0008 10.9948 13.7353 12.0936 13.2257 13.0851C12.716 14.0765 11.977 14.9319 11.07 15.5801L8.00001 17.7701L4.93001 15.5801C4.02304 14.9319 3.28399 14.0765 2.77435 13.0851C2.26472 12.0936 1.99924 10.9948 2.00001 9.88006V3.58006C4.09643 3.7595 6.19605 3.27309 8.00001 2.19006C9.80397 3.27309 11.9036 3.7595 14 3.58006V9.88006Z" fill="#FE6256"/>
</svg>
