<svg width="10" height="12" viewBox="0 0 10 12" fill="none" xmlns="http://www.w3.org/2000/svg">
<path d="M9.45085 1.12902C9.38308 1.0742 9.30388 1.03526 9.21909 1.01507C9.13429 0.994885 9.04605 0.993955 8.96085 1.01235C8.33752 1.14299 7.69405 1.14465 7.07005 1.01724C6.44605 0.889837 5.85474 0.636054 5.33251 0.271521C5.23487 0.20378 5.11886 0.16748 5.00001 0.16748C4.88117 0.16748 4.76516 0.20378 4.66751 0.271521C4.14529 0.636054 3.55397 0.889837 2.92998 1.01724C2.30598 1.14465 1.66251 1.14299 1.03918 1.01235C0.953978 0.993955 0.865735 0.994885 0.780939 1.01507C0.696143 1.03526 0.616949 1.0742 0.54918 1.12902C0.481501 1.18392 0.426984 1.25329 0.389634 1.33203C0.352284 1.41077 0.333051 1.49687 0.333347 1.58402V5.92985C0.332828 6.76621 0.532131 7.59058 0.914659 8.33433C1.29719 9.07808 1.85187 9.71967 2.53251 10.2057L4.66168 11.7224C4.76047 11.7927 4.87874 11.8305 5.00001 11.8305C5.12129 11.8305 5.23955 11.7927 5.33835 11.7224L7.46751 10.2057C8.14816 9.71967 8.70284 9.07808 9.08537 8.33433C9.4679 7.59058 9.6672 6.76621 9.66668 5.92985V1.58402C9.66698 1.49687 9.64774 1.41077 9.61039 1.33203C9.57304 1.25329 9.51853 1.18392 9.45085 1.12902ZM8.50001 5.92985C8.50046 6.58013 8.3456 7.22111 8.04831 7.79945C7.75102 8.37779 7.31991 8.87677 6.79085 9.25485L5.00001 10.5324L3.20918 9.25485C2.68012 8.87677 2.249 8.37779 1.95172 7.79945C1.65443 7.22111 1.49957 6.58013 1.50001 5.92985V2.25485C2.72293 2.35952 3.9477 2.07578 5.00001 1.44402C6.05232 2.07578 7.2771 2.35952 8.50001 2.25485V5.92985ZM5.89835 4.59402L4.32918 6.16902L3.81001 5.64402C3.70017 5.53418 3.55119 5.47247 3.39585 5.47247C3.2405 5.47247 3.09152 5.53418 2.98168 5.64402C2.87184 5.75386 2.81013 5.90285 2.81013 6.05819C2.81013 6.21353 2.87184 6.36251 2.98168 6.47235L3.91501 7.40569C3.96924 7.46036 4.03376 7.50376 4.10484 7.53337C4.17593 7.56299 4.25217 7.57824 4.32918 7.57824C4.40619 7.57824 4.48243 7.56299 4.55352 7.53337C4.6246 7.50376 4.68912 7.46036 4.74335 7.40569L6.75001 5.41652C6.85986 5.30668 6.92157 5.1577 6.92157 5.00235C6.92157 4.84701 6.85986 4.69803 6.75001 4.58819C6.64017 4.47834 6.49119 4.41663 6.33585 4.41663C6.1805 4.41663 6.03152 4.47834 5.92168 4.58819L5.89835 4.59402Z" fill="#909090"/>
</svg>
