<svg width="20" height="20" viewBox="0 0 20 20" fill="none" xmlns="http://www.w3.org/2000/svg">
<path d="M2.875 0.25C2.25391 0.25 1.75 0.753906 1.75 1.375C1.75 1.55078 1.79688 1.7207 1.86719 1.86719C1.7207 1.79688 1.55078 1.75 1.375 1.75C0.753906 1.75 0.25 2.25391 0.25 2.875C0.25 3.49609 0.753906 4 1.375 4C1.80273 4 2.16895 3.76562 2.35938 3.41406L4.39844 5.47656C3.87109 6.25586 3.50195 7.16113 3.34375 8.125C3.09766 9.61914 3.3877 11.0283 4 12.25V13C4 13.5332 4.19922 14.0195 4.51562 14.4062L2.35938 16.5625C2.16602 16.2227 1.79395 16 1.375 16C0.753906 16 0.25 16.5039 0.25 17.125C0.25 17.7461 0.753906 18.25 1.375 18.25C1.55078 18.25 1.7207 18.2031 1.86719 18.1328C1.79395 18.2793 1.75 18.4492 1.75 18.625C1.75 19.2461 2.25391 19.75 2.875 19.75C3.49609 19.75 4 19.2461 4 18.625C4 18.2061 3.77734 17.834 3.4375 17.6406L5.875 15.2031C5.99805 15.2236 6.12109 15.25 6.25 15.25C6.25 16.4834 7.2666 17.5 8.5 17.5H11.5C12.7334 17.5 13.75 16.4834 13.75 15.25C13.8789 15.25 14.002 15.2236 14.125 15.2031L16.5625 17.6406C16.2227 17.834 16 18.2061 16 18.625C16 19.2461 16.5039 19.75 17.125 19.75C17.7461 19.75 18.25 19.2461 18.25 18.625C18.25 18.4492 18.2031 18.2793 18.1328 18.1328C18.2793 18.2031 18.4492 18.25 18.625 18.25C19.2461 18.25 19.75 17.7461 19.75 17.125C19.75 16.5039 19.2461 16 18.625 16C18.2061 16 17.834 16.2227 17.6406 16.5625L15.4844 14.4062C15.8008 14.0195 16 13.5332 16 13V12.2734C16.4629 11.3594 16.75 10.3428 16.75 9.25C16.75 7.85254 16.3135 6.55469 15.5781 5.47656L17.6406 3.41406C17.8311 3.76562 18.1973 4 18.625 4C19.2461 4 19.75 3.49609 19.75 2.875C19.75 2.25391 19.2461 1.75 18.625 1.75C18.4492 1.75 18.2793 1.79688 18.1328 1.86719C18.2031 1.7207 18.25 1.55078 18.25 1.375C18.25 0.753906 17.7461 0.25 17.125 0.25C16.5039 0.25 16 0.753906 16 1.375C16 1.80273 16.2344 2.16895 16.5859 2.35938L14.5938 4.32812C13.375 3.19141 11.7402 2.49121 9.95312 2.5C9.7041 2.5 9.45801 2.51758 9.20312 2.54688C7.74707 2.71387 6.41113 3.34375 5.38281 4.30469L3.41406 2.35938C3.76562 2.16895 4 1.80273 4 1.375C4 0.753906 3.49609 0.25 2.875 0.25ZM9.97656 4C12.9033 3.98242 15.25 6.33203 15.25 9.25C15.25 10.1729 15.0127 11.0283 14.5938 11.7812L14.5 11.9688V13C14.5 13.4248 14.1748 13.75 13.75 13.75H12.25V15.25C12.25 15.6748 11.9248 16 11.5 16H8.5C8.0752 16 7.75 15.6748 7.75 15.25V13.75H6.25C5.8252 13.75 5.5 13.4248 5.5 13V11.9688L5.40625 11.7812C4.8584 10.791 4.6123 9.61914 4.82031 8.35938C5.18945 6.09766 7.11133 4.30469 9.39062 4.04688C9.58984 4.02344 9.78027 4 9.97656 4ZM7.75 9.25C6.9209 9.25 6.25 9.9209 6.25 10.75C6.25 11.5791 6.9209 12.25 7.75 12.25C8.5791 12.25 9.25 11.5791 9.25 10.75C9.25 9.9209 8.5791 9.25 7.75 9.25ZM12.25 9.25C11.4209 9.25 10.75 9.9209 10.75 10.75C10.75 11.5791 11.4209 12.25 12.25 12.25C13.0791 12.25 13.75 11.5791 13.75 10.75C13.75 9.9209 13.0791 9.25 12.25 9.25ZM9.25 13V14.5H10.75V13H9.25Z" fill="#FE6256"/>
</svg>
