<svg width="20" height="20" viewBox="0 0 20 20" fill="none" xmlns="http://www.w3.org/2000/svg">
<path d="M10 3.5C10 5.433 8.433 7 6.5 7C4.567 7 3 5.433 3 3.5C3 1.567 4.567 0 6.5 0C8.433 0 10 1.567 10 3.5ZM13.5 0C11.567 0 10 1.567 10 3.5C10 5.433 11.567 7 13.5 7C15.433 7 17 5.433 17 3.5C17 1.567 15.433 0 13.5 0ZM1.89 15.27L6.16 11L1.89 6.73C1.5 6.34 1.5 5.71 1.89 5.32L2.96 4.25C3.35 3.86 3.98 3.86 4.37 4.25L10 9.88L15.63 4.25C16.02 3.86 16.65 3.86 17.04 4.25L18.11 5.32C18.5 5.71 18.5 6.34 18.11 6.73L13.84 11L18.11 15.27C18.5 15.66 18.5 16.29 18.11 16.68L17.04 17.75C16.65 18.14 16.02 18.14 15.63 17.75L10 12.12L4.37 17.75C3.98 18.14 3.35 18.14 2.96 17.75L1.89 16.68C1.5 16.29 1.5 15.66 1.89 15.27Z" fill="currentColor"/>
</svg>