<svg width="13" height="13" viewBox="0 0 13 13" fill="none" xmlns="http://www.w3.org/2000/svg">
<path d="M9.5 0C8.6775 0 8 0.6775 8 1.5C8 2.3225 8.6775 3 9.5 3C10.3225 3 11 2.3225 11 1.5C11 0.6775 10.3225 0 9.5 0ZM4.26562 0.578125L3.4375 1.14062L4.59375 2.84375C4.73025 3.04525 4.93538 3.1895 5.17188 3.25L6.26562 3.53125L4.67188 5.07812C4.31037 5.42963 4.2425 5.98885 4.5 6.42285L5.17188 7.5791L4.70312 8.11035L3.73242 9.19434L4.8623 9.43164L5.45312 8.78223L6.17188 7.96973L6.40625 7.7041L6.23438 7.3916L5.35938 5.92285C5.33588 5.88185 5.342 5.83085 5.375 5.79785L7.375 3.84473L7.84375 4.23535L6.5625 5.5791C6.199 5.9561 6.19137 6.5691 6.54688 6.9541L7.3125 7.79883L7.26562 8.4707L7.14941 9.91406L8.13965 10.1221L8.26562 8.54883L8.32812 7.6416L8.34375 7.43945L8.20312 7.2666L7.28125 6.28223L8.625 4.87598L10.8125 6.7041L11.4531 5.92285L7.85938 2.95312L7.78125 2.875L7.67188 2.85938L5.42188 2.28125L4.26562 0.578125ZM9.5 1C9.7815 1 10 1.219 10 1.5C10 1.781 9.781 2 9.5 2C9.219 2 9 1.781 9 1.5C9 1.219 9.219 1 9.5 1ZM1.44727 8.77637L0.552734 9.22363L0.621094 9.36035C0.964094 10.0469 1.5913 10.531 2.3418 10.6885L10.2148 12.3457C10.3838 12.3812 10.5551 12.3994 10.7266 12.3994C11.1136 12.3994 11.4997 12.3093 11.8477 12.1348L12.2236 11.9473L11.7764 11.0527L11.4004 11.2402C11.0994 11.3917 10.7514 11.4377 10.4209 11.3672L2.54785 9.70996C2.09785 9.61496 1.72162 9.32361 1.51562 8.91211L1.44727 8.77637Z" fill="#909090"/>
</svg>
