<svg width="17" height="17" viewBox="0 0 17 17" fill="none" xmlns="http://www.w3.org/2000/svg">
<path d="M8.25276 2.06317C4.83962 2.06317 2.06317 4.83962 2.06317 8.25276C2.06317 11.6659 4.83962 14.4424 8.25276 14.4424C11.6659 14.4424 14.4424 11.6659 14.4424 8.25276C14.4424 4.83962 11.6659 2.06317 8.25276 2.06317ZM8.25276 3.09477C11.1078 3.09477 13.4108 5.39773 13.4108 8.25276C13.4108 11.1078 11.1078 13.4108 8.25276 13.4108C5.39773 13.4108 3.09477 11.1078 3.09477 8.25276C3.09477 5.39773 5.39773 3.09477 8.25276 3.09477ZM7.73696 4.12637V8.76856H11.3476V7.73696H8.76856V4.12637H7.73696Z" fill="#909090"/>
</svg>
