<svg width="20" height="20" viewBox="0 0 20 20" fill="none" xmlns="http://www.w3.org/2000/svg">
<path d="M1.9375 0.0625L1.51562 0.460937L0.460938 1.51562L0.0625 1.9375L0.367188 2.42969L1.9375 5.05469L2.14844 5.42969H4.35156L7.35156 8.40625C4.6709 11.0986 1.26074 14.5205 1.14062 14.6406C-0.0341795 15.8154 -0.037109 17.7402 1.16406 18.8594C2.33594 20.0166 4.24609 20.0459 5.35938 18.8594C5.36816 18.8506 5.37402 18.8447 5.38281 18.8359L10 14.1953L14.6406 18.8594L14.7109 18.9062C15.8887 20.0166 17.7607 20.0312 18.8594 18.8594V18.8359H18.8828C20.0312 17.6611 20.043 15.751 18.8594 14.6406L18.8359 14.6172L14.9219 10.7266C17.5557 10.4805 19.6182 8.25683 19.6562 5.57031H19.6797C19.6826 5.55566 19.6797 5.53809 19.6797 5.52344C19.6797 5.51465 19.6797 5.50879 19.6797 5.5C19.7529 4.63281 19.5654 3.80371 19.1172 3.08594L18.6016 2.28906L15.1094 5.78125L14.0547 4.67969L17.6172 1.11719L16.5859 0.695312C15.9824 0.4375 15.2852 0.25 14.5 0.25C11.6172 0.25 9.25 2.61719 9.25 5.5C9.25 5.81348 9.31738 6.08594 9.36719 6.36719C9.03906 6.69531 8.79297 6.96484 8.40625 7.35156L5.42969 4.375V2.14844L5.05469 1.9375L2.42969 0.367187L1.9375 0.0625ZM14.5 1.75C14.6055 1.75 14.6787 1.81152 14.7812 1.82031L11.9453 4.65625L12.4609 5.19531L14.5703 7.375L15.0859 7.91406L18.0625 4.9375C18.0771 5.11035 18.2002 5.23633 18.1797 5.42969V5.5C18.1797 7.56543 16.4951 9.25 14.4297 9.25C14.1543 9.25 13.8203 9.18555 13.4453 9.10937L13.0469 9.03906L12.7656 9.32031L4.30469 17.8047H4.28125V17.8281C3.74805 18.4111 2.81641 18.4258 2.19531 17.8047V17.7812H2.17188C1.58887 17.248 1.57422 16.3164 2.19531 15.6953C2.47949 15.4111 7.98438 9.85937 10.6797 7.16406L10.9844 6.85937L10.8672 6.4375C10.8057 6.19434 10.75 5.77539 10.75 5.5C10.75 3.43457 12.4346 1.75 14.5 1.75ZM2.17188 1.9375L3.92969 3.01562V3.76562L3.76562 3.92969H3.01562L1.9375 2.17187L2.17188 1.9375ZM13.1406 11.0547L17.8047 15.6953V15.7187H17.8281C18.4111 16.252 18.4258 17.1836 17.8047 17.8047H17.7812V17.8281C17.248 18.4111 16.3164 18.4258 15.6953 17.8047L11.0547 13.1406L13.1406 11.0547Z" fill="black"/>
</svg>
