<svg width="14" height="18" viewBox="0 0 14 18" fill="none" xmlns="http://www.w3.org/2000/svg">
<path d="M13.3583 2.04166C13.2614 1.96334 13.1483 1.90772 13.0272 1.87888C12.906 1.85004 12.78 1.84871 12.6583 1.87499C11.7678 2.06161 10.8485 2.06399 9.95712 1.88198C9.06569 1.69997 8.22096 1.33742 7.47492 0.816659C7.33543 0.719886 7.1697 0.66803 6.99992 0.66803C6.83015 0.66803 6.66442 0.719886 6.52492 0.816659C5.77889 1.33742 4.93415 1.69997 4.04273 1.88198C3.15131 2.06399 2.23206 2.06161 1.34159 1.87499C1.21987 1.84871 1.09381 1.85004 0.972674 1.87888C0.851537 1.90772 0.738403 1.96334 0.64159 2.04166C0.544906 2.12009 0.467024 2.21919 0.413667 2.33167C0.36031 2.44415 0.332833 2.56716 0.333257 2.69166V8.89999C0.332516 10.0948 0.617234 11.2725 1.1637 12.335C1.71017 13.3975 2.50257 14.314 3.47492 15.0083L6.51659 17.175C6.65773 17.2755 6.82667 17.3295 6.99992 17.3295C7.17318 17.3295 7.34212 17.2755 7.48326 17.175L10.5249 15.0083C11.4973 14.314 12.2897 13.3975 12.8361 12.335C13.3826 11.2725 13.6673 10.0948 13.6666 8.89999V2.69166C13.667 2.56716 13.6395 2.44415 13.5862 2.33167C13.5328 2.21919 13.4549 2.12009 13.3583 2.04166ZM11.9999 8.89999C12.0006 9.82896 11.7793 10.7446 11.3546 11.5708C10.9299 12.397 10.3141 13.1099 9.55826 13.65L6.99992 15.475L4.44159 13.65C3.68579 13.1099 3.06991 12.397 2.64521 11.5708C2.22052 10.7446 1.99928 9.82896 1.99992 8.89999V3.64999C3.74695 3.79952 5.49662 3.39418 6.99992 2.49166C8.50322 3.39418 10.2529 3.79952 11.9999 3.64999V8.89999ZM8.28326 6.99166L6.04159 9.24166L5.29992 8.49166C5.143 8.33474 4.93017 8.24658 4.70826 8.24658C4.48634 8.24658 4.27351 8.33474 4.11659 8.49166C3.95967 8.64858 3.87151 8.86141 3.87151 9.08333C3.87151 9.30524 3.95967 9.51807 4.11659 9.67499L5.44992 11.0083C5.52739 11.0864 5.61956 11.1484 5.72111 11.1907C5.82266 11.233 5.93158 11.2548 6.04159 11.2548C6.1516 11.2548 6.26052 11.233 6.36207 11.1907C6.46362 11.1484 6.55579 11.0864 6.63326 11.0083L9.49992 8.16666C9.65684 8.00974 9.745 7.79691 9.745 7.57499C9.745 7.35307 9.65684 7.14025 9.49992 6.98333C9.343 6.82641 9.13018 6.73825 8.90826 6.73825C8.68634 6.73825 8.47351 6.82641 8.31659 6.98333L8.28326 6.99166Z" fill="#909090"/>
</svg>
