<svg width="16" height="14" viewBox="0 0 16 14" fill="none" xmlns="http://www.w3.org/2000/svg">
<path d="M13.25 3.25H12.5V2.5C12.5 1.90326 12.2629 1.33097 11.841 0.90901C11.419 0.487053 10.8467 0.25 10.25 0.25H2.75C2.15326 0.25 1.58097 0.487053 1.15901 0.90901C0.737053 1.33097 0.5 1.90326 0.5 2.5V11.5C0.5 12.0967 0.737053 12.669 1.15901 13.091C1.58097 13.5129 2.15326 13.75 2.75 13.75H13.25C13.8467 13.75 14.419 13.5129 14.841 13.091C15.2629 12.669 15.5 12.0967 15.5 11.5V5.5C15.5 4.90326 15.2629 4.33097 14.841 3.90901C14.419 3.48705 13.8467 3.25 13.25 3.25ZM2.75 1.75H10.25C10.4489 1.75 10.6397 1.82902 10.7803 1.96967C10.921 2.11032 11 2.30109 11 2.5V3.25H2.75C2.55109 3.25 2.36032 3.17098 2.21967 3.03033C2.07902 2.88968 2 2.69891 2 2.5C2 2.30109 2.07902 2.11032 2.21967 1.96967C2.36032 1.82902 2.55109 1.75 2.75 1.75ZM14 9.25H13.25C13.0511 9.25 12.8603 9.17098 12.7197 9.03033C12.579 8.88968 12.5 8.69891 12.5 8.5C12.5 8.30109 12.579 8.11032 12.7197 7.96967C12.8603 7.82902 13.0511 7.75 13.25 7.75H14V9.25ZM14 6.25H13.25C12.6533 6.25 12.081 6.48705 11.659 6.90901C11.2371 7.33097 11 7.90326 11 8.5C11 9.09674 11.2371 9.66903 11.659 10.091C12.081 10.5129 12.6533 10.75 13.25 10.75H14V11.5C14 11.6989 13.921 11.8897 13.7803 12.0303C13.6397 12.171 13.4489 12.25 13.25 12.25H2.75C2.55109 12.25 2.36032 12.171 2.21967 12.0303C2.07902 11.8897 2 11.6989 2 11.5V4.6225C2.24095 4.70726 2.49458 4.75038 2.75 4.75H13.25C13.4489 4.75 13.6397 4.82902 13.7803 4.96967C13.921 5.11032 14 5.30109 14 5.5V6.25Z" fill="currentColor"/>
</svg>
