<svg width="18" height="18" viewBox="0 0 18 18" fill="none" xmlns="http://www.w3.org/2000/svg">
<path d="M9 0.875C4.51269 0.875 0.875 4.51269 0.875 9C0.875 13.4873 4.51269 17.125 9 17.125C13.4873 17.125 17.125 13.4873 17.125 9C17.125 4.51269 13.4873 0.875 9 0.875ZM9 5.04167C9.34518 5.04167 9.625 5.32149 9.625 5.66667V6.08333C9.625 6.42851 9.34518 6.70833 9 6.70833C8.65482 6.70833 8.375 6.42851 8.375 6.08333V5.66667C8.375 5.32149 8.65482 5.04167 9 5.04167ZM7.95833 12.3333C7.95833 12.0612 8.13225 11.8297 8.375 11.7439V8.7561C8.13225 8.6703 7.95833 8.4388 7.95833 8.16667C7.95833 7.82149 8.23816 7.54167 8.58333 7.54167H9C9.34518 7.54167 9.625 7.82149 9.625 8.16667V11.7439C9.86775 11.8297 10.0417 12.0612 10.0417 12.3333C10.0417 12.6785 9.76184 12.9583 9.41667 12.9583H8.58333C8.23816 12.9583 7.95833 12.6785 7.95833 12.3333Z" fill="#1099FB"/>
</svg>
