<svg height="512" viewBox="0 0 128 128" width="512" xmlns="http://www.w3.org/2000/svg"><g id="shield"><path d="m15.277 54.2v-18.532a9 9 0 0 1 2.636-6.368l12.341-12.338a9 9 0 0 1 6.364-2.636h54.764a9 9 0 0 1 6.364 2.636l12.341 12.338a9 9 0 0 1 2.636 6.364v18.536a55.364 55.364 0 0 1 -27.68 47.946l-19.043 10.992a4 4 0 0 1 -4 0l-19.043-11a55.364 55.364 0 0 1 -27.68-47.938z" fill="#ff9234"/><path d="m64.45 14.326h-27.832a9 9 0 0 0 -6.363 2.636l-12.342 12.338a9 9 0 0 0 -2.636 6.364v18.536a55.364 55.364 0 0 0 27.68 47.946l18.834 10.874c-.8-11.3-8.317-33.385.073-36.393 8.847-3.171 7.877.865 9.9-3.171s-12.692-16.151-9.424-22.206c2.075-3.845.696-23.258 2.11-36.924z" fill="#f2802c"/><path d="m58.984 50.652 3.023-6.124a2.222 2.222 0 0 1 3.986 0l3.023 6.124a2.22 2.22 0 0 0 1.673 1.216l6.758.982a2.223 2.223 0 0 1 1.232 3.792l-4.89 4.767a2.22 2.22 0 0 0 -.639 1.967l1.15 6.731a2.222 2.222 0 0 1 -3.225 2.343l-6.045-3.177a2.218 2.218 0 0 0 -2.068 0l-6.041 3.177a2.222 2.222 0 0 1 -3.221-2.343l1.154-6.731a2.22 2.22 0 0 0 -.639-1.967l-4.89-4.767a2.223 2.223 0 0 1 1.232-3.792l6.758-.982a2.22 2.22 0 0 0 1.669-1.216z" fill="#ffcd3c"/><path d="m64 114.672a5.009 5.009 0 0 1 -2.5-.667l-19.042-10.995a56.523 56.523 0 0 1 -28.182-48.81v-18.532a9.927 9.927 0 0 1 2.93-7.071l12.341-12.342a9.933 9.933 0 0 1 7.072-2.929h54.762a9.933 9.933 0 0 1 7.072 2.929l12.341 12.345a9.927 9.927 0 0 1 2.93 7.071v18.529a56.523 56.523 0 0 1 -28.182 48.81l-19.042 10.995a5.011 5.011 0 0 1 -2.5.667zm-27.381-99.346a7.948 7.948 0 0 0 -5.658 2.343l-12.341 12.342a7.941 7.941 0 0 0 -2.344 5.657v18.532a54.513 54.513 0 0 0 27.182 47.08l19.042 11a3.009 3.009 0 0 0 3 0l19.042-11a54.513 54.513 0 0 0 27.182-47.08v-18.532a7.941 7.941 0 0 0 -2.344-5.657l-12.341-12.342a7.948 7.948 0 0 0 -5.658-2.343z"/><path d="m46.957 96.216a1 1 0 0 1 -.5-.134 48.5 48.5 0 0 1 -24.181-41.882v-18.532a1.985 1.985 0 0 1 .586-1.414l12.338-12.342a1 1 0 0 1 1.414 1.414l-12.338 12.342v18.532a46.5 46.5 0 0 0 23.182 40.15 1 1 0 0 1 -.5 1.866z"/><path d="m81.043 96.216a1 1 0 0 1 -.5-1.866 46.5 46.5 0 0 0 23.181-40.15v-18.532l-12.343-12.343a1 1 0 1 1 1.419-1.414l12.343 12.343a1.985 1.985 0 0 1 .586 1.414v18.532a48.5 48.5 0 0 1 -24.187 41.882 1 1 0 0 1 -.499.134z"/><path d="m55.883 73.709a3.229 3.229 0 0 1 -3.173-3.771l1.154-6.731a1.22 1.22 0 0 0 -.352-1.083l-4.889-4.767a3.222 3.222 0 0 1 1.786-5.5l6.758-.982a1.225 1.225 0 0 0 .92-.669l3.022-6.124a3.224 3.224 0 0 1 5.782 0l3.022 6.124a1.225 1.225 0 0 0 .92.669l6.758.982a3.222 3.222 0 0 1 1.786 5.5l-4.889 4.768a1.218 1.218 0 0 0 -.352 1.082l1.154 6.731a3.222 3.222 0 0 1 -4.676 3.4l-6.045-3.178a1.235 1.235 0 0 0 -1.139 0l-6.044 3.177a3.211 3.211 0 0 1 -1.503.372zm8.117-5.691a3.226 3.226 0 0 1 1.5.369l6.045 3.178a1.222 1.222 0 0 0 1.774-1.289l-1.154-6.731a3.224 3.224 0 0 1 .928-2.853l4.889-4.766a1.223 1.223 0 0 0 -.682-2.086l-6.759-.983a3.219 3.219 0 0 1 -2.422-1.757l-3.019-6.129a1.223 1.223 0 0 0 -2.194 0l-3.025 6.129a3.219 3.219 0 0 1 -2.426 1.762l-6.755.978a1.222 1.222 0 0 0 -.678 2.086l4.89 4.766a3.226 3.226 0 0 1 .927 2.853l-1.154 6.731a1.222 1.222 0 0 0 1.774 1.289l6.041-3.177a3.222 3.222 0 0 1 1.5-.37z"/></g></svg>