<svg id="Layer_1" enable-background="new 0 0 466.936 466.936" height="512" viewBox="0 0 466.936 466.936" width="512" xmlns="http://www.w3.org/2000/svg"><g><path d="m356.998 190.693c-2.327 6.803 54.923 8.567 83.97 4.11 8.01-1.24 16.01-2.69 24-8.848v118.038c-37.64 12.648-95.11 18.99-98.39 10.63-5.88-3.338-23.001 16.635-40.83 14.865-13.42-1.332-25.701-24.699-42.495-25.363-67.196-2.659-149.72-.731-154.125-.292-39.44 3.93-118.79-20.23-127.16-35.32.69-5.93 3.66-12.21 8.37-18.52 16.6-5.36 51.14-30.45 51.5-39.16 23.97-11.94 50.92-19.73 72.44-18.59 47.3-2.93 177.35-36.64 130.28-53.64 34.29-10 127.665-20.974 200.41-2.4v5.61c-27.99-2.63-60.08 2.63-60.08 2.63-21.86 11.25-36.25 29.23-47.89 46.25z" fill="#51518e"/><path d="m337.316 338.804c-22.391 5.588-49.682-1.277-60.188-12.094-3.592-4.311 8.984-4.93 19.341-15.786 25.207-.886 43.522 10.937 40.847 27.88z" fill="#8888e8"/><path d="m296.469 310.914v.01c1.172 7.866.267 12.09.446 18.273.124 4.284-3.216 7.88-7.49 8.201-18.302 1.375-78.598 4.909-173.585.767-43.385-1.896-112.377 1.621-96.091-27.575 30.912-13.76 255.905-15.002 276.72.324z" fill="#2c2c61"/><path d="m137.561 321.227c-35.113-.529-68.81-2.345-92.798-5.598-11.704-8.142-15.858-27.679-5.467-39.688 20.954 3.213 49.482 6.197 82.29 5.967 15.406 8.282 24.267 30.848 15.975 39.319z" fill="#3e3e7a"/><path d="m296.468 310.91c-16.644 4.071-56.401 8.75-95.057 9.878-24.463-10.088-25.111-39.451-23.068-42.572 0 0 50.669-29.106 122.512-37.728 2.813 48.451 2.754 59.202-4.387 70.422z" fill="#3e3e7a"/><path d="m201.411 320.788c-20.555.609-42.467.758-63.85.439-10.018-10.577-15.974-39.319-15.974-39.319 17.831-.12 36.93-1.197 56.757-3.692-.001 0 18.747 27.665 23.067 42.572z" fill="#f0e3e7"/><path d="m44.763 315.629c-10.377-1.407-18.939-3.083-25.015-5.039-8.581-10.717-15.615-29.964-17.78-42.077 0 0 13.96 3.856 37.329 7.428-3.982 11.146 5.466 39.688 5.466 39.688z" fill="#f0e3e7"/><path d="m464.968 141.813v48.59c-7.99 1.71-15.99 3.16-24 4.4-29.808 4.573-86.242 2.535-83.97-4.11 11.64-17.02 26.03-35 47.89-46.25 0 0 32.09-5.26 60.08-2.63z" fill="#9dcdff"/><path d="m464.968 299.545v13.202c-38.66 9.765-115.28 16.741-115.28 16.741-3.12-5.52 9.42-12.9 16.89-14.865 0 0 58.78-9.728 98.39-15.078z" fill="#2c2c61"/><path d="m384.298 144.348c-17.37 11.78-31.58 22.63-52.39 52.96-107.8 1.6-161.58-1.03-197.63-5.06 0 0 .01 0 .03-.01 43.42-24.91 86.83-42.78 130.25-53.64 35.47-1.864 83.917-.805 119.74 5.75z" fill="#9dcdff"/><path d="m390.638 204.798c-17.244 1.119-40.14-4.383-40.14-4.383l6.495-9.722c7.244 2.749 27.3-3.143 27.3-3.143z" fill="#3e3e7a"/><path d="m390.104 185.78c19.899-5.167 50.3-10.608 51.904 3.829 1.617 14.555-29.748 15.895-50.286 15.231-25.346-.819-26.243-12.666-1.618-19.06z" fill="#2c2c61"/><path d="m165.177 255.591s26.121-26.501 39.141-32.009c13.021-5.508 67.8-1.044 67.8-1.044-33.197 10.612-53.981 23.332-74.108 35.513-18.375 1.824-26.394-.038-32.833-2.46z" fill="#fcf4f6"/><path d="m77.404 220.382c-4.919 3.582-50.111 30.533-52.086 33.048-4.211-.269-9.769-1.826-14.978-3.433 10.547-14.119 29.795-28.348 51.497-39.165 3.662.71 13.391 3.174 15.567 9.55z" fill="#fcf4f6"/><g><path d="m357.014 303.83c-8.589 14.974-24.804 17.86-35.972 5.348-8.524-9.562-11.099-24.655-8.351-37.289 2.943-13.67 11.764-23.858 22.431-24.995 23.143-2.134 35.295 33.883 21.892 56.936zm-25.106-81.891c-55.28 0-56.906 117.344 0 117.344 25.527 0 42.567-29.087 42.567-58.672.001-32.399-19.058-58.672-42.567-58.672z" fill="#a4a4f7"/></g><path d="m364.918 141.448c-80.88-4.3-228.4 49.97-230.61 50.79 43.42-24.91 86.83-42.78 130.25-53.64 23.79-1.25 64.22-1.53 100.36 2.85z" fill="#67b0ff"/></g><g><path d="m466.891 189.968c-.231-1.08-1.302-1.769-2.374-1.538-7.604 1.625-13.445 2.679-20.614 3.85.573-3.782-.7-7.809-4.382-10.423-10.626-7.539-38.055-1.219-50.669 2.319-8.736 2.451-21.394 6-28.562 5.208 12.355-17.723 26.036-33.087 45.217-43.037 2.529-.395 19.344-2.915 38.268-3.25 1.104-.02 1.984-.931 1.965-2.035-.02-1.111-.941-1.987-2.035-1.964-15.004.266-38.163 2.726-39.765 3.55-22.507 11.583-37.21 30.208-48.625 46.899-.734 1.04-.275 2.654 1.104 3.048 9.636 3.482 31.736-4.439 40.932-6.551 11.909-2.734 41.285-8.37 42.638 3.774 1.625 14.635-41.018 13.335-55.683 13.005-1.13-.031-2.02.851-2.044 1.956-.023 1.104.852 2.019 1.956 2.043 14.677.331 49.551 1.673 57.928-10.206 8.368-1.345 14.698-2.457 23.208-4.275 1.079-.23 1.768-1.293 1.537-2.373z"/><path d="m464.668 297.554c-22.707 3.067-51.733 7.573-72.085 10.814-1.091.174-1.834 1.199-1.661 2.29.176 1.099 1.209 1.834 2.29 1.661 20.331-3.237 49.323-7.739 71.991-10.801 1.095-.148 1.862-1.155 1.715-2.25-.149-1.095-1.167-1.864-2.25-1.714z"/><path d="m464.446 310.797c-28.819 7.273-78.455 12.975-103.208 15.529 9.395-11.304 15.205-27.907 15.205-45.726 0-33.455-19.993-60.672-44.567-60.672-13.352 0-24.617 6.485-32.654 18.739-67.546 8.373-116.813 34.978-121.531 37.598-43.992 5.498-91.749 4.813-138.122-2.314-14.226-2.165-26.975-4.797-35.369-6.921.88-4.584 3.199-9.52 6.899-14.711 3.352 1.013 10.715 3.102 14.209 3.102.596 0 1.126-.231 1.501-.709 2.635-2.727 46.975-29.255 51.737-32.723.709-.516.999-1.433.716-2.263-1.716-5.029-7.12-7.888-11.727-9.454 23.937-11.191 47.918-17.01 66.495-16.05 57.342 6.41 139.63 5.943 197.873 5.08.649-.01 1.253-.333 1.62-.868 20.557-29.958 34.461-40.632 51.859-52.441 1.476-1.001.996-3.3-.763-3.622-19.04-3.489-42.106-5.619-68.561-6.332-1.109-.03-2.023.841-2.053 1.946-.03 1.104.841 2.023 1.945 2.053 23.688.638 45.378 2.508 63.125 5.43-15.778 10.962-29.241 22.292-48.266 49.85-88.032 1.287-147.207-.077-190.159-4.414 46.012-25.726 95.06-44.795 138.74-53.885 47.947-9.978 126.305-13.887 185.046 1.107 1.076.273 2.159-.374 2.433-1.443.273-1.07-.373-2.159-1.442-2.432-59.36-15.152-138.47-11.217-186.851-1.148-45.641 9.498-97.051 29.775-144.825 57.111-41.662-1.896-102.548 28.461-125.046 58.572-.001.002-.004.004-.006.006-3.383 4.532-5.818 8.942-7.281 13.175-2.094 6.059-1.4 7.342-.882 9.683 2.861 12.912 9.175 29.029 16.814 39.124-2.566 5.152-2.758 9.707-.559 13.554 9.478 16.581 61.381 14.186 98.924 15.83 96.163 4.191 157.36.468 173.822-.773 1.364-.1 2.646-.463 3.798-1.037 18.214 6.326 39.658 5.309 51.775.299 4.322-1.787 8.333-4.476 11.95-7.872 22.753-2.279 77.377-8.277 108.36-16.096 1.071-.27 1.721-1.358 1.45-2.428-.266-1.075-1.348-1.726-2.424-1.454zm-344.499-26.895c1.279 5.638 5.952 24.5 13.372 35.242-50.074-.92-81.159-4.417-87.055-5.284-2.562-8.079-7.44-26.697-5.542-35.704 26.058 3.912 52.625 5.849 79.225 5.746zm-57.865-70.983c3.084.659 10.17 2.586 12.756 6.754-8.943 5.854-44.625 27.192-50.232 31.683-3.188-.319-7.13-1.327-10.926-2.442 10.248-12.602 27.674-25.581 48.402-35.995zm-25.32 64.646c-1.98 10.234 2.944 28.405 5.115 35.631-8.796-1.287-15.837-2.743-20.973-4.339-7.271-9.353-13.699-25.629-16.379-37.625 5.157 1.266 16.472 3.849 32.237 6.333zm258.125 51.676c.086 3.158-2.442 5.917-5.642 6.151-16.41 1.237-77.411 4.948-173.352.766-32.535-1.426-87.507.384-95.626-13.819-1.46-2.554-1.304-5.629.464-9.359 26.616 7.828 87.587 9.774 115.85 10.222 55.508.88 90.708-1.067 122.122-4.412 1.099-.117 1.894-1.102 1.776-2.201-.115-1.099-1.1-1.89-2.2-1.777-44.657 4.756-85.607 4.914-119.855 4.416-7.569-8.67-12.753-28.498-14.373-35.355 18.031-.211 35.936-1.397 53.282-3.532 1.876 2.825 7.328 11.162 12.422 20.178.543.961 1.763 1.302 2.725.758.962-.543 1.301-1.763.758-2.725-4.742-8.393-9.789-16.203-12.052-19.636 9.551-5.098 54.699-27.788 115.437-35.884-11.036 20.613-11.891 50.945-1.697 72.622.342 5.04-.18 8.658-.039 13.587zm48.698 5.705c-10.217 4.225-29.553 5.612-46.639.368 1.276-1.73 2.002-3.878 1.938-6.185-.097-3.408.271-9.391.127-12.7-.082-1.896-.26-2.036-.553-2.664-15.75-33.782-3.44-89.838 33.417-89.838 22.369 0 40.567 25.423 40.567 56.672 0 18.913-6.81 36.313-17.494 46.7-.921.766-4.857 4.956-11.363 7.647z"/><path d="m272.249 220.533c-2.257-.184-55.423-4.439-68.742 1.195-13.234 5.599-38.709 31.354-39.787 32.447-1.014 1.03-.633 2.767.721 3.276 10.575 3.979 21.598 3.783 33.735 2.578.598-.06.924-.332 1.72-.813 19.818-11.996 40.312-24.4 72.801-34.785.909-.291 1.486-1.184 1.378-2.133-.11-.948-.874-1.688-1.826-1.765zm-74.918 35.56c-15.369 1.488-23.122.292-28.5-1.359 6.585-6.473 25.914-24.956 36.234-29.322 9.118-3.857 40.579-2.557 56.886-1.574-25.794 9.19-42.887 19.107-64.62 32.255z"/><path d="m358.714 304.818c13.962-24.024 1.424-62.257-23.837-59.924-11.298 1.205-21.013 11.88-24.173 26.559-5.308 24.399 8.925 49.506 28.482 47.465 7.732-.807 14.849-5.946 19.528-14.1zm-19.943 10.121c-16.838 1.765-28.804-21.277-24.158-42.64 2.519-11.698 10.664-23.506 22.403-23.506 20.318 0 30.409 33.082 18.235 54.02-4.61 7.93-10.824 11.536-16.48 12.126z"/></g></svg>