<svg id="Layer_1" enable-background="new 0 0 463.914 463.914" height="512" viewBox="0 0 463.914 463.914" width="512" xmlns="http://www.w3.org/2000/svg"><g><path d="m135.54 146.278c.365 3.829.79 8.575 1.203 13.679-8.331 21.429-119.27 63.609-131.362 49.007l14.442-16.658c3.45-2.95 7.388-5.277 11.636-6.875z" fill="#fcf4f6"/><path d="m242.758 228.551c-7.999 2.442-16.641 5.082-25.757 7.867-1.058 6.023-9.788 8.987-13.997 4.276-9.846 3.008-20.108 6.143-30.601 9.346l-111.398 21.017-45.347-13.599c-5.163-1.548-8.958-5.951-9.729-11.286l-3.781-26.169c-.942-6.517 2.835-12.795 9.032-15.018l125.563-45.028c64.179-7.635 119.607 36.825 106.015 68.594z" fill="#f0e3e7"/><path d="m191.526 244.202c-25.229 23.037-34.373 55.675-20.444 91.245 7.997 20.557 28.406 41.295 15.1 94.577-3.039 12.167-20.166 24.967-28.875 25.783-26.12-23.76-58.461-189.25 15.095-205.767z" fill="#2c2c61"/><path d="m157.307 455.807c-3.483 1-71.63-5.762-76.786-28.236-4.544-19.807-10.082-58.909 4.574-96.463 20.791-53.276-24.089-60.051-24.089-60.051l9.335-36.122c1.206-4.668 4.945-8.254 9.659-9.264l54.406-11.664c4.432-.95 9.024.657 11.897 4.164l26.1 31.87c-70.288 87.846 28.927 92.319-15.096 205.766z" fill="#3e3e7a"/><path d="m196.654 307.961c.649 21.334-39.695 28.115-41.832 2.665l9.783-11.568s17.594 20.85 32.049 8.903z" fill="#3e3e7a"/><path d="m209.983 315.08c-14.988 17.367-40.421 29.433-55.648 10.582l.484-15.041c10.745 18.527 29.245 11.068 41.832-2.66 19.275-20.996 15.799-35.067 13.176-43.919-2.612-8.853-5.214-17.789-6.823-23.346 4.77-1.464 9.442-2.887 13.995-4.284 1.812 6.237 4.39 15.063 7.023 24.005 4.019 13.569 8.301 28.747-14.039 54.663z" fill="#51518e"/><path d="m161.425 286.199c2.398-8.786 10.032-22.765 19.865-31.013 0 0 .268 22.627 8.329 31.669 8.053 9.033-18.394 16.193-28.194-.656z" fill="#3e3e7a"/><path d="m432.831 10.425 28.351 126.731c1.669 7.276.44 14.917-3.426 21.303l-10.635 17.568c-30.341-44.116-42.236-92.964-33.05-147.221l7.729-11.408 3.8-5.043c.729-1.04 3.194-3.167 4.611-4.309 1.198.16 2.303.995 2.62 2.379z" fill="#2c2c61"/><path d="m430.21 8.046-14.834 21.215c-89.828 64.857-182.028 98.653-276.09 108.059l23.331-24.432c3.218-3.37 7.161-5.962 11.53-7.581 91.832-35.242 250.2-98.855 256.063-97.261z" fill="#51518e"/><path d="m418.624 33.329 29.92 132.758c1.553 6.892-2.229 13.872-8.851 16.333l-163.8 60.889c-8.073 3.001-17.154 1.047-23.277-5.01-14.179-14.023-25.677-25.397-25.201-24.925-8.991-8.893-21.401-13.432-34.007-12.432-75.732 6.009-51.55 14.388-57.641-52.261-.631-6.909 3.376-13.404 9.837-15.931l265.008-103.675c3.41-1.334 7.207.682 8.012 4.254z" fill="#3e3e7a"/></g><path d="m463.134 136.69-28.36-126.73c-.446-1.995-2.003-3.474-4.001-3.861-6.441-2.099-150.666 56.37-257.326 97.301-4.632 1.717-8.879 4.509-12.281 8.074-9.068 9.504-14.35 15.053-22.99 24.028-2.32 2.595-3.784 5.822-4.278 9.221l-103.151 38.801c-4.466 1.683-8.578 4.115-12.225 7.231-.211.181-13.239 15.244-14.666 16.875-3.003 3.486-4.35 8.091-3.693 12.632l3.779 26.159c.877 6.081 5.248 11.152 11.136 12.921 22.867 6.857 34.3 10.289 40.002 11.997 11.235 3.365 22.356 5.403 29.357 17.546 5.924 10.274 5.517 24.225-1.211 41.464-14.827 37.996-9.284 77.482-4.66 97.638 1.19 5.19 5.35 9.918 12.361 14.054 19.62 11.57 60.652 16.676 66.63 15.718 9.212-.921 27.247-13.999 30.555-27.277 12.889-51.592-5.346-73.067-14.154-93.34 12.167-.18 26.539-8.042 37.535-20.786 23.211-26.928 18.349-43.345 14.443-56.533-4.027-13.673-5.713-19.519-6.455-22.104l22.712-6.939 9.011 8.913c6.639 6.566 16.596 8.727 25.381 5.463l163.8-60.89c3.629-1.349 6.507-3.918 8.329-7.088.203-.27-1.11 1.86 10.749-17.713 4.153-6.851 5.457-14.94 3.671-22.775zm-246.458 97.701c-1.308.217-2.062 1.645-1.493 2.849 1.768 6.21 5.095 17.532 6.916 23.716 3.82 12.896 8.149 27.514-13.635 52.787-11.161 12.933-25.809 20.505-37.333 19.292-1.179-.125-2.251.83-2.2 2.062.038 1.224 3.666 8.617 4.211 9.715 9.084 18.319 22.338 39.671 11.089 84.702-2.448 9.826-15.258 20.432-23.743 23.458 22.585-61.114 3.536-90.017-6.875-118.86-.375-1.041-1.524-1.579-2.56-1.202-1.039.375-1.577 1.521-1.202 2.56 10.382 28.766 29.393 57.24 6.037 118.412-4.255-.003-20.062-1.486-36.469-5.506-21.914-5.369-35.038-12.927-36.955-21.282-4.521-19.707-9.949-58.291 4.488-95.288 7.199-18.449 7.511-33.574.927-44.956-6.936-11.989-19.396-16.129-24.419-17.353l8.811-34.092c1.023-3.959 4.143-6.951 8.142-7.809l54.406-11.664c3.718-.801 7.521.534 9.931 3.476l26.101 31.87c.529.647 1.381.875 2.134.643 1.85-.559 20.153-6.129 28.661-8.738 1.616 5.572 3.933 13.518 6.258 21.398 2.247 7.579 5.931 20.026-10.202 39.125-3.467 4.104-7.165 6.744-13.537 5.656-8.1-1.383-15.425-8.772-17.458-10.979.068-1.221.16-2.433.287-3.628 4.077 2.56 8.671 3.594 12.714 3.594 4.897 0 11.211-1.665 12.989-6.04.524-1.29 1.016-3.892-1.591-6.815-7.466-8.375-7.818-30.144-7.821-30.362-.019-1.574-1.784-2.523-3.109-1.64-.111.074-.959.641-.889 1.788.03 1.887.567 23.604 8.833 32.876 1.338 1.5.987 2.363.872 2.647-1.842 4.528-18.705 6.632-25.844-5.641-.555-.955-1.778-1.281-2.734-.723-.954.555-1.278 1.779-.723 2.734 1.057 1.817 2.293 3.36 3.64 4.685-.325 2.305-.564 4.67-.672 7.074-.049.395.102 1.022.478 1.459 5.848 6.823 15.277 13.486 24.261 13.185-11.871 8.617-23.466 8.75-30.854-3.988-.555-.957-1.778-1.28-2.733-.728-.956.555-1.281 1.778-.728 2.733 10.931 18.847 30.369 13.685 45.036-2.311 20.565-22.401 16.047-37.647 13.62-45.837-2.611-8.849-5.211-17.781-6.819-23.335-.315-1.089-1.493-1.734-2.619-1.318-1.287.419-23.6 7.208-29.205 8.913l-25.252-30.833c-3.361-4.104-8.673-5.964-13.862-4.853l-54.406 11.664c-5.489 1.178-9.772 5.285-11.177 10.721l-8.814 34.108-43.356-13.001c-4.402-1.322-7.67-5.114-8.326-9.661l-3.779-26.16c-.8-5.536 2.398-10.933 7.725-12.851 50.104-17.968 80.205-28.767 98.295-35.258 1.039-.373 1.58-1.519 1.207-2.559-.374-1.04-1.52-1.582-2.559-1.207-17.628 6.326-46.67 16.745-94.506 33.9l6.951-8.015c3.264-2.769 6.938-4.933 10.922-6.433l101.628-38.228c3.313 35.261-1.075 49.305 5.452 55.129 5.947 5.306 18.598 1.57 54.324-1.264 12.026-.963 23.857 3.368 32.443 11.859l.021-.021v.001l-.021.021c.129.129 8.615 8.521 12.957 12.816zm222.314-53.877-163.8 60.89c-7.313 2.72-15.626.931-21.174-4.557-24.954-24.676-25.099-24.845-25.2-24.926-9.413-9.31-22.369-14.043-35.572-13.004-32.413 2.572-47.121 6.036-51.345 2.267-4.49-4.006-1.093-19.427-4.146-52.716-.342-3.742.898-7.496 3.354-10.244 7.448-7.735 12.514-13.045 18.096-18.898 5.174-5.423 8.334-9.467 15.656-12.183 79.86-30.646 223.338-88.014 250.855-96.199l-11.116 15.897c-1.918-.447-4.073-.078-5.027.491-.711.23-220.098 86.075-220.198 86.114-1.028.402-1.536 1.562-1.134 2.591s1.567 1.537 2.591 1.134c2.533-.991 218.002-85.284 220.497-86.262 2.634-.878 4.852.658 5.341 2.828l29.92 132.758c1.327 5.889-1.939 11.915-7.598 14.019zm17.051-23.124-5.423 8.95c-.195-1.11-8.258-36.798-30.048-133.481-.363-1.61-1.209-3.049-2.403-4.14l12.628-18.061c.124.303 5.766 25.586 28.438 126.912 1.555 6.825.421 13.863-3.192 19.82z"/></svg>