<svg id="Layer_1" enable-background="new 0 0 471.124 471.124" height="512" viewBox="0 0 471.124 471.124" width="512" xmlns="http://www.w3.org/2000/svg"><g><path d="m132.461 303.668c50.39-59.271 30.637-115.25-37.534-150.501-.513-.118-18.869 1.569-28.175-9.761-2.815-3.438-2.013-11.231-.403-24.494.003-.065.02-.137.024-.202 102.999 26.604 213.967 126.22 66.088 184.958z" fill="#3e3e7a"/><path d="m107.397 316.79c-1.089 8.864-3.267 19.281.286 23.998 11.18 14.832 43.066 15.83 46.318 1.737l2.2-14.734c71.031-45.912 42.56 4.538 96.876 11.646 103.357 13.527 12.939-71.32 140.271-4.352 2.071 14.677 42.624 21.998 46.496 5.22l3.264-14.411c-105.514-48.822-142.052-116.367-157.655-124.149-96.279 54.773-156.381 120.693-178.056 115.045z" fill="#3e3e7a"/><path d="m415.047 305.206c-130.52-75.948-104.059-145.934-88.628-167.039 7.788.142 15.389-2.122 16.728-7.923 1.53-6.628-7.007-14.261-19.061-17.043s-23.073.338-24.602 6.966c-1.031 4.467 2.199 8.675 6.975 11.879-49.901 55.145-151.804 16.131-190.901-6.658-1.028-6.576-9.755-13.338-21.44-16.035-13.506-3.117-25.844.374-27.557 7.798-2.477 10.733 16.246 19.693 29.456 20.139 95.636 42.806 115.334 106.945 34.243 167.949-11.37-1.143-21.021 2.827-22.643 9.858-2.254 9.768 10.774 17.907 21.076 20.285 10.211 2.357 23.909.737 27.313-7.386 2.055-4.781-.27-9.782-4.237-13.6 69.974-64.073 140.06-81.242 243.707 1.507-1.296 8.998 11.061 16.525 20.624 18.732 10.526 2.429 24.879.492 27.009-8.741 2.309-10.006-12.657-20.217-28.062-20.688z" fill="#51518e"/><path d="m90.822 112.052s55.386-44.405 85.09-16.501c20.366 19.131-85.09 16.501-85.09 16.501z" fill="#c5c5ff"/><path d="m90.822 112.052s-59.058 40.555-86.568 10.943c-18.861-20.301 86.568-10.943 86.568-10.943z" fill="#c5c5ff"/><ellipse cx="87.044" cy="114.447" fill="#a4a4f7" rx="11.717" ry="19.538" transform="matrix(.098 -.995 .995 .098 -35.383 189.856)"/><path d="m141.121 312.101s-22.208-82.952-69.408-73.258c-32.36 6.645 69.408 73.258 69.408 73.258z" fill="#c5c5ff"/><path d="m141.121 312.101s37.598 77.966 81.969 60.116c30.42-12.239-81.969-60.116-81.969-60.116z" fill="#c5c5ff"/><ellipse cx="138.417" cy="312.975" fill="#a4a4f7" rx="13.167" ry="21.992" transform="matrix(.225 -.974 .974 .225 -197.667 377.469)"/><path d="m409.331 311.959s70.879-30.237 58.303-72.161c-8.622-28.745-58.303 72.161-58.303 72.161z" fill="#c5c5ff"/><path d="m409.331 311.959s-68.933 35.619-53.599 76.32c10.513 27.905 53.599-76.32 53.599-76.32z" fill="#c5c5ff"/><ellipse cx="412.409" cy="311.633" fill="#a4a4f7" rx="13.894" ry="21.784" transform="matrix(.225 -.974 .974 .225 16.019 643.404)"/><path d="m322.481 120.033s-50.817-60.042-86.535-36.436c-24.489 16.183 86.535 36.436 86.535 36.436z" fill="#c5c5ff"/><path d="m322.481 120.033s45.155 63.621 83.036 42.932c25.971-14.184-83.036-42.932-83.036-42.932z" fill="#c5c5ff"/><ellipse cx="324.514" cy="119.098" fill="#a4a4f7" rx="10.581" ry="18.555" transform="matrix(.097 -.995 .995 .097 174.516 430.537)"/><ellipse cx="266.094" cy="306.66" fill="#8888e8" rx="15.408" ry="16.153" transform="matrix(.225 -.974 .974 .225 -92.549 496.981)"/></g><g><path d="m96.829 135.495c-.411-.183-.698-.168-1.093-.188-4.44-.215-9.827-1.503-14.489-3.472-1.018-.43-2.191.046-2.621 1.064s.047 2.19 1.064 2.62c5.15 2.175 10.902 3.545 15.854 3.783 44.936 20.176 72.935 45.101 80.986 72.096 5.219 17.496 1.987 35.53-9.603 53.603-.597.93-.326 2.167.604 2.763.936.599 2.171.32 2.764-.604 12.247-19.097 15.635-38.243 10.068-56.906-8.415-28.214-37.3-54.066-83.534-74.759z"/><path d="m469.548 239.256c-1.79-5.965-5.436-7.387-9.109-6.176-9.411 3.102-24.573 24.229-45.134 62.949-4.103-.851-8.324-.938-12.131-.327-113.67-71.562-88.506-134.332-78.066-151.884.775-1.294 1.558-2.506 2.333-3.615 2.941-.013 5.964-.436 8.476-1.175 19.07 19.767 46.439 38.889 70.553 25.718 5.391-2.942 6.959-7.441 2.234-12.49-7.332-7.837-29.001-17.254-64.657-28.089 1.945-3.736 1.118-8.63-4.159-12.536-5.85-4.33-16.889-7.007-26.399-3.85-18.322-17.634-52.046-43.402-78.651-25.828-4.536 2.998-5.988 7.1-2.412 11.282 7.937 9.283 38.29 17.818 66.164 23.96-3.232 5.408-.143 11.163 4.874 15.162-42.124 43.984-118.662 20.928-149.891 8.839-13.038-5.048-25.864-11.087-36.231-17.055-1.072-4.345-4.572-7.753-7.572-9.976 12.893-.119 59.947-.654 68.921-9.835 2.503-2.561 2.793-6.258-1.411-10.206-23.407-21.988-61.763-1.151-78.203 9.629-11.537-5.636-27.445-3.338-32.194 4.77-41.014-1.916-56.305 1.026-62.305 3.981-5.117 2.52-6.269 7.055-1.791 11.878 15.228 16.397 39.584 12.663 60.464 4.368-.736 8.105-.495 12.969 1.957 15.95 6.792 8.266 18.534 10.79 29.233 10.493 62.981 32.524 84.398 83.751 42.881 139.208-3.889-10.34-14.636-34.059-31.539-47.842-9.45-7.705-19.447-11.167-29.776-10.323-5.327.435-11.399 1.638-12.494 6.879-2.013 9.636 17.186 28.912 57.052 57.3-1.933 1.173-3.409 2.614-4.387 4.256-10.549 3.567-10.445 9.604-11.49 17.306-1.057 7.787-1.924 15.629 1.399 20.048 12.015 15.939 46.138 17.141 49.866.975.026-.113.02-.09.357-2.356 16.923 23.018 41.048 44.105 67.53 33.453 6.747-2.713 7.897-7.551 4.973-12.574-7.704-13.235-46.295-32.298-60.216-39.015 31.417-18.414 37.011-12.107 46.087-1.872 7.073 7.976 15.875 17.902 38.14 20.819 67.938 8.888 55.252-24.908 69.981-29.739 8.25-2.707 25.702 2.965 56.408 18.366-17.492 14.818-34.01 35.955-25.352 58.936 2.581 6.855 7.921 8.326 14.619 2.038 10.011-9.4 22.569-34.422 28.563-46.862 12.362 9.831 41.181 12.049 44.751-3.418l3.16-13.927c2.018-7.406-3.838-14.101-10.509-18.05-.98-1.959-2.456-3.85-4.372-5.582 19.556-12.098 48.079-35.296 39.475-63.961zm-232.504-153.967c24.703-16.317 57.312 9.426 74.552 26.224.608.593 1.495.715 2.225.382 13.647-5.265 32.982 4.434 25.59 11.888-1.228 1.125-.632 3.103.93 3.438 40.814 12.251 60.016 21.799 65.479 27.633 2.589 2.765 2.202 4.487-1.267 6.38-24.818 13.556-54.632-11.425-72.96-32.922-.464-.545-1.156-.773-1.815-.676-10.686 1.205-22.205-4.142-21.747-10.037.109-1.446-.057-2.488-1.488-2.788-11.241-2.356-62.626-13.75-70.982-23.815-1.992-2.397-1.179-3.947 1.483-5.707zm-231.326 36.371c-2.43-2.616-2.351-4.12.858-5.67 6.355-3.07 24.831-5.19 61.42-3.412.515.028 1.101-.185 1.532-.635.694-.731 1.106-3.752 6.956-5.876 6.617-2.403 15.321-1.724 21.659 1.689.803.433 1.568.376 2.18-.031 15.058-10.032 52.431-31.155 74.221-10.687 2.74 2.576 2.333 3.866.484 5.225-5.418 3.985-25.756 7.788-69.372 7.927-1.423 0-2.438 1.521-1.789 2.865 4.762 9.86-16.774 15.503-29.343 7.295-.951-.621-1.758-.213-2.257.02-21.928 10.231-50.035 19.073-66.549 1.29zm146.318 220.513c-2.86 11.897-32.392 11.194-42.756-2.555-2.016-2.68-1.713-8.343-1.016-14.116 3.944 5.449 11.256 9.281 17.814 11.216 1.055.313 2.171-.289 2.484-1.352.312-1.059-.292-2.171-1.352-2.484-8.885-2.623-17.85-8.538-17.851-15.778.12-3.793 2.852-6.128 5.429-7.497-.129 12.911 19.753 20.851 33.244 18.807 1.498 2.401 3.145 4.929 4.93 7.525zm70.31 28.212c-28.736 11.558-55.39-18.823-71.63-45.232-.431-.704-1.313-1.098-2.179-.886-3.849.767-8.213.637-12.631-.383-10.8-2.492-16.78-8.793-17.107-13.729-.245-3.719 2.819-6.178 6.289-7.503 1.652-.517 1.875-2.682.487-3.584-38.018-26.837-59.754-47.446-58.147-55.134.634-3.044 6.812-3.619 9.925-3.774 36.646-1.823 57.127 57.984 57.652 59.674.171.84.869 1.498 1.752 1.59 3.651.382 7.036 1.323 10.068 2.666 6.49 2.873 13.823 8.933 10.396 15.124-.523.967-.158 2.157.762 2.687.587.338 59.385 26.966 67.493 41.842 1.848 3.39.521 5.174-3.13 6.642zm99.211-62.472c-18.507 6.07-1.659 38.281-68.216 29.574-20.782-2.723-29.035-12.029-35.667-19.507-10.914-12.31-18.84-18.283-53.415 2.453-.916-.434-1.802-.851-2.67-1.258 1.099-3.281.431-6.53-1.475-9.517 63.601-55.397 120.239-62.292 189.11-23.103.961.547 2.183.21 2.728-.749.546-.96.211-2.181-.749-2.728-73.13-41.612-132.136-30.013-193.607 23.47-3.932-3.967-10.271-7.417-17.84-8.737 44.425-58.36 21.57-112.77-43.919-146.4-.524-.269-.975-.231-1.557-.216-11.721.308-20.94-2.899-25.982-9.035-1.754-2.134-1.658-7.384-.858-15.155 1.253-.543 2.864-1.236 5.903-2.71 12.485 7.303 32.197 4.269 34.875-6.289 2.399 1.914 4.879 4.589 5.367 7.722.094.596.449 1.117.971 1.42 10.675 6.215 24.019 12.528 37.574 17.777 52.066 20.154 118.462 29.766 155.815-11.514.814-.899.648-2.322-.371-3.004-4.781-3.201-8.582-8.178-4.697-12.283.386.082.767.163 1.151.244.121 2.437 1.297 4.788 3.444 6.857 4.154 4.002 12.536 7.204 21.756 6.47 1.066 1.236 2.251 2.573 3.544 3.985-1.978.386-4.174.571-6.29.51-.661-.019-1.285.285-1.675.818-1.042 1.424-2.096 3.023-3.135 4.759-6.332 10.646-15.639 32.948-6.817 62.695 9.552 32.213 37.499 63.367 83.076 92.646-9.743 3.857-12.195 13.874-4.205 22.024-3.517 2.377-7.313 5.116-11.138 8.17-33.571-16.953-51.3-22.583-61.031-19.389zm104.332 25.686c-1.104.038-1.969.963-1.932 2.066.037 1.065.91 1.957 2.066 1.932 5.37-.182 9.862-1.398 13.169-3.444l-1.299 5.727c-2.726 11.804-29.018 9.549-39.073.58 2.444-5.165 4.665-10.044 6.558-14.301 12.639 4.217 30.344 1.355 30.478-11.531 10.196 8.345 5.782 18.439-9.967 18.971zm-.311-32.337c-1.104.657-1.319 2.199-.39 3.128.318.321 2.891 1.948 4.765 4.653 3.536 5.104 1.944 10.232-3.103 12.867-5.952 3.108-15.969 2.453-21.731-.108-.748-.331-1.647-.181-2.263.469-.577.615-1.77 4.13-8.207 17.651-.049.087-17.788 38.221-29.155 48.568-4.457 4.057-6.439 2.971-7.891-.883-13.179-34.979 39.657-65.438 40.906-66.958.681-.83.576-2.118-.283-2.814-4.035-3.297-5.892-7.168-5.094-10.621 1.829-7.924 14.604-9.036 22.722-6.953.86.217 1.826-.171 2.267-1.005 22.732-43.003 36.882-60.161 43.227-62.338 2.469-.847 3.535.706 4.369 3.489 8.189 27.282-21.633 49.838-40.139 60.855z"/><path d="m270.007 289.726c-9.729-2.245-19.429 3.461-21.603 12.88-2.525 10.946 6.316 21.53 18.02 21.53 8.177 0 15.514-5.38 17.357-13.366 2.159-9.352-4.02-18.793-13.774-21.044zm9.877 20.145c-1.663 7.203-9.207 11.636-16.806 9.882-7.604-1.755-12.437-9.043-10.775-16.247 1.437-6.233 7.183-10.27 13.43-10.27 9.215.001 16.09 8.233 14.151 16.635z"/></g></svg>