<svg id="Layer_1" enable-background="new 0 0 512 512" height="512" viewBox="0 0 512 512" width="512" xmlns="http://www.w3.org/2000/svg"><g clip-rule="evenodd" fill-rule="evenodd"><path d="m256 281.738c-21.068 0-38.21 17.147-38.21 38.215 0 10.541 4.27 20.487 11.925 27.73l.938.887v42.37c0 13.976 11.37 25.352 25.347 25.352s25.349-11.375 25.349-25.352v-42.37l.938-.887c7.653-7.243 11.925-17.189 11.925-27.73 0-21.068-17.144-38.215-38.212-38.215zm92.489-86.496v45.809h-38.727v-50.533c0-27.036-22.002-49.036-49.038-49.036h-9.446c-27.036 0-49.038 21.999-49.038 49.036v50.533h-38.729v-45.809c0-51 41.491-92.491 92.491-92.491 50.998 0 92.487 41.491 92.487 92.491zm92.067-97.118v157.607c0 26.422-7.024 51.904-18.698 75.49-11.536 23.309-27.336 44.436-45.384 63.094-2.391 2.472-4.83 4.898-7.304 7.285-.747.721-1.74 1.121-2.778 1.121-.858 0-1.683-.272-2.372-.782-1.569-1.16-2.076-3.294-1.194-5.035 8.503-16.778 12.81-34.878 12.81-53.688v-94.166h-239.273v94.166c0 18.809 4.306 36.91 12.807 53.688.882 1.74.379 3.875-1.191 5.035-1.567 1.158-3.752 1.004-5.152-.348-2.474-2.389-4.91-4.819-7.301-7.291-18.043-18.655-33.85-39.776-45.384-63.08-11.674-23.586-18.697-49.068-18.697-75.49v-157.606c0-1.942 1.393-3.601 3.305-3.939 45.774-8.076 88.409-27.444 126.693-53.493.663-.451 1.448-.694 2.251-.694h104.613c.802 0 1.586.243 2.249.694 38.285 26.05 80.922 45.417 126.696 53.493 1.911.338 3.304 1.998 3.304 3.939zm20 157.608c0 58.614-30.507 111.794-70.489 152.82-19.597 20.108-42.044 37.964-65.971 52.654-20.72 12.721-43.819 23.875-67.29 30.423l-.806.224-.806-.225c-23.472-6.548-46.571-17.702-67.29-30.423-23.927-14.69-46.374-32.546-65.971-52.654-39.982-41.026-70.489-94.206-70.489-152.82v-164.4c0-7.967 5.738-14.632 13.615-15.82 47.462-7.159 91.324-27.442 130.345-54.96l.778-.548h119.638l.778.548c39.021 27.52 82.883 47.802 130.345 54.96 7.876 1.188 13.615 7.854 13.615 15.82v164.401z" fill="#a4d4ff"/><path d="m272.976 341.209c-1.659 1.332-2.628 3.341-2.628 5.472v44.258c0 7.914-6.435 14.35-14.348 14.35-7.911 0-14.348-6.436-14.348-14.35v-44.258c0-2.131-.967-4.14-2.628-5.472-6.504-5.199-10.235-12.948-10.235-21.256 0-15.013 12.207-27.213 27.211-27.213s27.211 12.199 27.211 27.213c0 8.309-3.731 16.057-10.235 21.256zm-16.976-62.471c-22.723 0-41.21 18.49-41.21 41.214 0 11.419 4.648 22.136 12.863 29.909v41.078c0 15.634 12.716 28.352 28.346 28.352 15.631 0 28.349-12.717 28.349-28.352v-41.078c8.213-7.772 12.863-18.49 12.863-29.909.001-22.723-18.488-41.214-41.211-41.214zm173.555-23.006v-151.797c-42.014-8.295-83.485-26.084-123.395-52.934h-100.322c-39.908 26.85-81.379 44.639-123.395 52.934v151.797c0 37.639 16.02 77.301 45.521 113.527-1.731-8.487-2.602-17.187-2.602-26.041v-98.167c0-3.867 3.133-7.001 7-7.001h20.148v-42.809c0-57.065 46.425-103.488 103.49-103.488 57.064 0 103.49 46.423 103.49 103.488v42.809h20.148c3.867 0 7 3.133 7 7.001v98.167c0 8.854-.871 17.554-2.602 26.041 29.501-36.227 45.519-75.888 45.519-113.527zm-130.794-17.681h-85.522v-47.533c0-20.974 17.065-38.039 38.038-38.039h9.446c20.975 0 38.038 17.064 38.038 38.039zm46.728 0h-32.728v-47.533c0-28.69-23.344-52.036-52.038-52.036h-9.446c-28.694 0-52.038 23.346-52.038 52.036v47.533h-32.73v-42.809c0-49.344 40.147-89.491 89.491-89.491s89.489 40.146 89.489 89.491zm92.283-146.819c-42.656-7.528-84.891-25.368-125.53-53.019-1.16-.79-2.533-1.214-3.936-1.214h-104.613c-1.404 0-2.777.424-3.938 1.214-40.638 27.651-82.871 45.491-125.527 53.019-3.345.588-5.784 3.496-5.784 6.893v157.607c0 25.481 6.395 51.33 19.008 76.821 11.01 22.24 26.459 43.727 45.916 63.835 2.377 2.466 4.857 4.94 7.374 7.363 2.459 2.381 6.271 2.63 9.018.602 2.747-2.032 3.629-5.754 2.084-8.803-8.283-16.349-12.483-33.96-12.483-52.332v-91.166h233.275v91.166c0 18.372-4.199 35.982-12.486 52.332-1.544 3.049-.662 6.77 2.086 8.803 1.243.918 2.701 1.369 4.155 1.369 1.762 0 3.514-.668 4.861-1.962 2.514-2.432 4.995-4.902 7.377-7.358 19.457-20.122 34.906-41.609 45.916-63.849 12.613-25.491 19.009-51.339 19.009-76.821v-157.608c.002-3.397-2.437-6.304-5.782-6.892zm19.785 164.5v-164.401c0-6.483-4.654-11.889-11.062-12.854-44.716-6.747-88.991-25.406-131.627-55.475h-117.735c-42.638 30.069-86.913 48.728-131.627 55.475-6.41.964-11.062 6.37-11.062 12.854v164.401c0 114.426 118.514 209.841 201.556 233.007 83.042-23.166 201.557-118.581 201.557-233.007zm-8.975-191.101c-43.16-6.507-86.029-24.79-127.419-54.327-1.185-.847-2.608-1.303-4.067-1.303h-122.195c-1.457 0-2.88.456-4.065 1.303-41.389 29.537-84.26 47.82-127.418 54.327h-.002c-13.311 2.009-22.971 13.24-22.971 26.7v164.401c0 28.996 6.976 58.199 20.734 86.818 12.363 25.712 29.879 50.37 52.064 73.311 40.164 41.53 92.855 74.021 140.945 86.898.593.16 1.202.24 1.812.24.608 0 1.219-.08 1.812-.24 48.092-12.877 100.781-45.369 140.945-86.898 22.184-22.941 39.701-47.599 52.064-73.311 13.758-28.62 20.734-57.822 20.734-86.818v-164.401c0-13.461-9.662-24.691-22.973-26.7z" fill="#1f4571"/></g></svg>