<?xml version="1.0" encoding="utf-8" ?><svg xmlns="http://www.w3.org/2000/svg" xmlns:xlink="http://www.w3.org/1999/xlink" width="2048" height="2048" viewBox="0 0 2048 2048"><path d="M1028.27 173.54C1032.34 173.335 1036.42 173.182 1040.5 173.082C1249.05 167.696 1452.63 255.435 1602.77 398.009C1763.52 553.068 1857.22 764.871 1863.84 988.123C1865.64 1043.76 1862.53 1099.45 1854.53 1154.54C1828.25 1325.76 1749.94 1484.75 1630.23 1609.96C1564.31 1678.69 1486.91 1735.41 1401.52 1777.58C1378.98 1788.65 1355.74 1797.8 1332.7 1807.7C1305.42 1819.42 1279.12 1832.46 1251.19 1842.8C1204.59 1860.05 1133.17 1877.16 1083.8 1883.37C1052.91 1887.25 1022.29 1888.61 991.174 1889.31C835.528 1890.82 678.769 1840.52 548.858 1755.79C503.192 1726 461.457 1691.42 421.934 1653.98C395.308 1628.76 370.939 1600.63 348.167 1571.92C229.913 1423.03 163.35 1239.68 158.541 1049.59C152.814 832.622 232.605 608.31 382.998 450.201C509.222 317.501 659.645 228.23 840.245 193.176C869.215 187.552 898.783 184.126 928.108 180.945C961.468 177.327 994.708 174.399 1028.27 173.54Z"/><path fill="#FCE262" d="M278.524 935.848C290.472 773.072 350.148 617.433 450.088 488.395C573.44 326.05 756.889 220.122 959.158 194.448C1162.27 169.749 1366.83 227.243 1527.33 354.141C1533.86 359.148 1540.72 364.093 1546.71 369.737C1569.03 385.235 1595.33 412.446 1614.49 432.389C1725.44 547.858 1805.34 698.1 1833.71 856.14C1834.3 859.427 1834.99 862.549 1835.8 865.783C1835.83 865.907 1835.84 866.037 1835.85 866.163L1836.03 867.788C1840.32 894.515 1844.74 921.544 1846.94 948.535C1863.99 1151.4 1807.11 1353.6 1686.8 1517.83C1663.34 1550.26 1636.27 1580.68 1608.05 1609.03C1492.95 1724.69 1347.37 1803.63 1185.62 1829.16C1163.18 1832.7 1140.19 1834.45 1117.53 1835.76C939.612 1845.51 763.87 1792.9 620.573 1687C438.423 1552.48 317.568 1350.75 284.877 1126.68C280.993 1101.33 277.091 1072.64 277.348 1046.99C275.16 1010.04 276.613 972.776 278.524 935.848Z"/><path fill="#F2DF68" d="M278.524 935.848C280.466 937.174 281.062 937.212 281.453 939.654C283.094 949.915 280.812 962.822 280.611 973.377C280.151 997.52 280.679 1021.64 279.68 1045.78C278.284 1047.02 279.074 1046.64 277.348 1046.99C275.16 1010.04 276.613 972.776 278.524 935.848Z"/><path fill="#F2DF68" d="M1527.33 354.141C1533.86 359.148 1540.72 364.093 1546.71 369.737C1546.36 370.537 1545.77 371.235 1545.27 371.95C1538.92 370.416 1533.7 367.526 1529.03 362.912C1526.75 360.657 1524.69 358.549 1524.62 355.315L1527.33 354.141Z"/><path fill="#F2DF68" d="M1835.85 866.163L1836.03 867.788C1835.16 873.1 1836.17 878.577 1835.75 883.97L1835.08 884.233C1834.47 883.259 1833.91 882.367 1833.54 881.268C1832.17 877.231 1830.95 870.673 1832.98 866.755L1835.85 866.163Z"/><path d="M826.06 1283.98C795.459 1283.56 764.855 1283.41 734.252 1283.54C708.988 1283.6 674.367 1286.58 650.734 1280.39C628.691 1274.62 610.608 1260.68 599.122 1241.02C592.62 1229.9 589.343 1217.61 588.409 1204.79C586.729 1181.75 588.224 1157.67 588.222 1134.48L588.261 988.545L588.259 796.137L588.158 734.482C588.125 716.036 586.328 696.202 591.291 678.284C597.504 655.854 612.897 637.794 633.15 626.631C645.396 619.881 657.883 617.178 671.78 616.375C699.553 614.768 728.171 616.477 756.028 616.445L945.036 616.483L1268.05 616.385L1370.18 616.286C1392.04 616.241 1428.93 613.335 1449.13 619.24C1471.15 625.681 1489.8 639.862 1500.76 660.125C1506.95 671.572 1510.39 683.312 1511.33 696.274C1512.64 714.231 1511.75 732.789 1511.71 750.811L1511.5 851.028L1511.66 1084.45C1511.7 1112.15 1514.68 1201.83 1508.12 1223.32C1501.28 1245.73 1486.76 1262.2 1466.56 1273.59C1462.4 1275.94 1457.9 1277.33 1453.76 1279.6L1452.27 1280.43L1452.67 1282.35L1451.01 1284.44L1452 1284.08C1445.28 1288.27 1437.2 1289.31 1429.47 1287.64C1428.06 1287.33 1428.74 1287.56 1427.28 1286.22L1426.96 1283.71C1414.74 1283.58 1402.51 1283.63 1390.29 1283.86C1392.8 1284.84 1397.16 1286.38 1399.91 1286.52C1402.93 1286.68 1399.06 1285.56 1402.52 1286.81L1399.9 1286.95L1402.44 1286.89C1396.15 1285.85 1388.44 1287.6 1381.93 1287.85C1369.31 1288.3 1356.68 1288.54 1344.05 1288.56C1310.19 1288.93 1276.32 1288.95 1242.45 1288.62C1228.55 1288.47 1214.75 1287.58 1200.83 1287.6C1208.81 1284.51 1220.11 1288.02 1228.06 1284.74C1228.47 1284.58 1228.86 1284.39 1229.26 1284.21C1216.61 1281.52 1185.86 1283.74 1171.34 1283.72L1017.15 1283.49C997.758 1299.77 843.515 1448.77 832.827 1450.28C829.994 1449.65 829.001 1448.72 826.937 1446.82C822.936 1432.45 825.387 1397.36 825.48 1380.75C825.452 1348.5 825.645 1316.24 826.06 1283.98Z"/><path fill="#F2DF68" d="M1229.26 1284.21C1239.6 1282.64 1251.07 1283.55 1261.59 1283.55L1322.61 1283.55L1368.51 1283.59C1375.48 1283.59 1383.44 1282.81 1390.29 1283.86C1392.8 1284.84 1397.16 1286.38 1399.91 1286.52C1402.93 1286.68 1399.06 1285.56 1402.52 1286.81L1399.9 1286.95L1402.44 1286.89C1396.15 1285.85 1388.44 1287.6 1381.93 1287.85C1369.31 1288.3 1356.68 1288.54 1344.05 1288.56C1310.19 1288.93 1276.32 1288.95 1242.45 1288.62C1228.55 1288.47 1214.75 1287.58 1200.83 1287.6C1208.81 1284.51 1220.11 1288.02 1228.06 1284.74C1228.47 1284.58 1228.86 1284.39 1229.26 1284.21Z"/><path fill="#F2DF68" d="M1426.96 1283.71C1435.71 1283.28 1443.65 1281.47 1452.27 1280.43L1452.67 1282.35L1451.01 1284.44L1452 1284.08C1445.28 1288.27 1437.2 1289.31 1429.47 1287.64C1428.06 1287.33 1428.74 1287.56 1427.28 1286.22L1426.96 1283.71Z"/><path fill="#3F3F74" d="M1074.16 631.508C1159.02 632.705 1244.04 631.936 1328.92 631.844L1397.36 631.789C1411.59 631.802 1426.98 630.799 1440.99 633.338C1452.5 635.425 1464.85 642.153 1473.4 650.057C1486.27 661.943 1495.11 678.441 1495.76 696.086C1497.25 736.942 1496.21 778.215 1496.2 819.122L1496.15 1038.44L1496.15 1153.36C1496.15 1171.18 1497.89 1191.25 1495.5 1208.87C1493.7 1222.06 1485.25 1236.33 1476.2 1245.84C1466.54 1255.99 1453.34 1264.49 1439.5 1267.35C1425.29 1270.28 1408.75 1268.94 1394.24 1268.93L1325.28 1268.91L1129.67 1268.84C1089.84 1268.76 1049.82 1267.76 1010.02 1269C987.539 1290.57 963.756 1311.45 940.424 1332.14C920.336 1351.73 899.81 1370.86 878.862 1389.52C866.474 1400.72 854.545 1412.08 841.501 1422.54C840.979 1377.07 842.772 1331.28 841.272 1285.89C841.135 1281.74 841.116 1273.4 837.441 1270.95C827.035 1264.01 685.498 1273.49 656.175 1266.06C644.753 1263.17 633.878 1256.22 625.451 1248.13C609.001 1232.33 604.276 1215.53 603.861 1193.22C603.298 1162.98 603.901 1132.62 603.862 1102.36L603.73 869.878L603.881 750.877C603.904 731.816 601.977 707.497 604.851 688.973C606.884 675.873 614.678 663.157 623.836 653.819C634.374 643.076 646.642 636.002 661.492 633.276C679.254 630.016 699.529 631.855 717.628 631.996L783.111 631.869L1074.16 631.508Z"/><path d="M1245.63 769.434C1248.01 769.128 1253.61 768.081 1255.62 769.359C1263.05 774.087 1277.39 813.387 1280.15 823.487C1298.44 824.96 1380.23 821.158 1389.35 825.921C1391.53 827.056 1392.03 827.838 1392.7 830.229C1394.09 835.232 1394.27 878.164 1391.31 882.003C1386.26 888.536 1359.95 884.684 1352.15 884.922C1349.77 884.994 1345.54 885.27 1343.86 887.26C1339.53 892.419 1336.37 908.603 1333.34 915.63C1321.29 943.547 1304.33 972.984 1283.55 995.226C1307.24 1012.39 1334.95 1027.93 1362.43 1038.04C1374.02 1042.3 1401.36 1046.98 1409.33 1055.04C1410.21 1060.93 1403.25 1068.34 1400.14 1073.36C1395.88 1080.23 1379.96 1106.81 1373.52 1108.06C1364.51 1109.8 1351.53 1103.82 1343.18 1100.56C1302.81 1084.79 1273.49 1067.46 1238.24 1042.57C1233.49 1046.62 1228.6 1050.42 1223.63 1054.19C1194.59 1074.66 1163.48 1090.11 1130.42 1102.93C1122.93 1105.83 1114.61 1109.75 1106.62 1110.77C1104.02 1111.1 1101.29 1111.08 1099.18 1109.36C1091.72 1103.3 1085.54 1087.12 1079.9 1078.73C1077.24 1074.76 1073.76 1071.19 1071.48 1066.99C1070.55 1065.27 1069.99 1063.83 1070 1061.83C1070.01 1058.89 1078.58 1055.81 1080.98 1054.72C1114.66 1039.36 1164.18 1022.61 1191.19 996.652C1191.5 996.36 1191.8 996.06 1192.1 995.764C1165.92 962.372 1143.44 926.127 1129.83 885.69C1118.41 885.141 1097.08 888.256 1087.33 884.247C1084.41 883.043 1082.46 880.944 1081.36 877.994C1079.48 872.955 1080.83 831.191 1082.98 825.892C1094.5 821.361 1189.71 824.003 1209.09 823.806C1204.42 814.683 1198.65 805.302 1194.94 795.814C1193.25 791.474 1192.14 787.881 1194 783.425C1199.72 777.156 1234.3 773.084 1244.76 769.722L1245.63 769.434Z"/><path fill="#FCE262" d="M1228.07 837.807L1227.61 836.087C1225.99 830.163 1210.9 796.598 1211.29 793.67C1211.38 793.022 1211.89 792.511 1212.2 791.932C1215.95 790.006 1242 783.222 1246.48 783.093C1254.53 794.24 1261.38 811.936 1265.51 825.144L1265.19 826.731C1258.79 830.358 1252.05 833.266 1245.64 836.825C1262.52 838.794 1279.74 838.416 1296.71 838.461L1378.89 838.219C1378.84 849.111 1378.92 860.004 1379.15 870.894L1332.95 870.795C1317.56 921.022 1296.77 955.745 1264.85 996.94C1286.91 1021.35 1329.57 1041.26 1360.1 1052.38C1370.33 1056.1 1380.9 1058.78 1391.13 1062.45C1383.23 1071.53 1374.33 1083.27 1370.01 1094.57C1369.64 1094.39 1369.28 1094.21 1368.91 1094.03C1356.34 1087.95 1342.5 1084.75 1329.69 1079.22C1296.71 1065 1266.3 1045.06 1238.34 1022.77C1208.78 1051.46 1156.33 1078.66 1117.33 1091.75C1114.82 1093.04 1112.77 1094.07 1109.93 1094.5C1102.81 1092.13 1098.32 1080.96 1094.28 1074.84C1092.37 1072.22 1089.88 1069.66 1089.7 1066.3C1098.96 1060.25 1111.11 1057.67 1121.34 1053.33C1151.95 1040.37 1190.7 1021.03 1214.77 998.26C1206.69 989.402 1198.62 980.566 1191.43 970.948C1173.35 946.77 1146.12 900.56 1141.24 871.432C1125.83 870.995 1110.42 870.839 1095.01 870.964C1094.92 859.995 1095.03 849.026 1095.32 838.061C1139.24 838.571 1184.22 840.127 1228.07 837.807Z"/><path fill="#F2DF68" d="M1094.28 1074.84L1095.67 1072.96C1098.26 1074.83 1100.97 1076.73 1102.99 1079.24C1104.23 1080.77 1109.58 1089.96 1110.56 1090.28C1110.99 1090.42 1111.44 1090.12 1111.89 1090.07C1113.84 1089.82 1115.07 1089.82 1116.64 1091.1C1116.88 1091.3 1117.1 1091.54 1117.33 1091.75C1114.82 1093.04 1112.77 1094.07 1109.93 1094.5C1102.81 1092.13 1098.32 1080.96 1094.28 1074.84Z"/><path d="M1175.94 871.04C1191.96 870.247 1208.16 870.776 1224.21 870.799C1247.88 870.675 1271.55 870.686 1295.22 870.832C1291.88 885.395 1273.66 928.423 1263.75 939.523C1256.91 951.964 1248.36 963.376 1238.33 973.42C1209.96 944.527 1188.61 909.498 1175.94 871.04Z"/><path fill="#3F3F74" d="M1198.47 885.442C1223.74 885.158 1249.02 885.205 1274.29 885.585C1268.26 900.982 1262.13 915.82 1252.96 929.696C1248.04 937.559 1243.53 945.339 1236.82 951.84C1229.48 942.71 1222.67 933.153 1216.45 923.219C1212.07 916.193 1196.84 892.416 1198.47 885.442Z"/><path fill="#F2DF68" d="M1152.76 840.521C1174.7 840.134 1197.69 839.149 1219.52 840.521L1219.54 841.956C1214.63 841.973 1209.73 841.424 1204.8 841.558C1195.97 841.799 1187.14 843.006 1178.3 842.747C1169.76 842.498 1161.3 841.067 1152.76 840.521Z"/><path d="M832.822 770.508C848.412 770.403 890.219 767.952 903.118 771.761C911.277 783.317 1006.78 1081.39 1006.58 1082.92C1006.27 1085.32 1005.28 1087.19 1003.2 1088.48C999.475 1090.81 936.499 1091.29 928.882 1089.58C926.928 1089.15 926.16 1088.82 924.841 1087.17C917.044 1077.4 909.385 1028.04 900.243 1012.8C896.91 1010.76 892.436 1011.29 888.634 1011.26C865.841 1011.05 842.844 1010.6 820.073 1011.63C815.894 1024.31 811.635 1036.75 807.842 1049.58C804.489 1060.92 801.906 1075.2 796.324 1085.6C795.174 1087.74 794.438 1088.7 792.102 1089.38C786.796 1090.93 733.19 1091.18 725.342 1090.42C722.628 1090.16 719.097 1089.55 716.868 1087.85C715.678 1086.94 714.596 1085.72 714.507 1084.19C714.048 1076.36 790.596 854.501 799.522 826.653C801.977 818.995 813.551 776.749 817.612 773.055C821.039 769.936 828.486 770.597 832.822 770.508Z"/><path fill="#FCE262" d="M828.928 785.873C850.7 785.993 872.476 785.274 894.245 785.946C900.972 813.057 910.715 839.404 919.618 865.852L960.778 990.553C968.195 1012.92 976.92 1035.18 983.269 1057.85C984.915 1063.62 986.808 1069.01 989.196 1074.52C978.084 1074.87 944.871 1077.16 936.167 1074.12C929.798 1058.76 918.604 1007.38 910.849 997.166C897.665 993.089 826.87 995.023 809.226 995.653C799.712 1021.24 791.011 1048.15 785.002 1074.79C776.69 1075.21 738.617 1076.93 733.372 1073.52C741.662 1046.05 751.621 1019.14 760.798 991.971L807.16 852.441C814.386 830.365 822.967 808.3 828.928 785.873Z"/><path fill="#F2DF68" d="M936.167 1074.12C936.035 1070.96 935.417 1067.19 936.581 1064.26C937.281 1066 937.63 1067.01 939.155 1068.21C942.538 1070.88 972.433 1070.15 977.64 1069.28C979.799 1068.92 979.451 1068.66 980.631 1067C980.527 1064.95 980.438 1063.14 980.686 1061.09C980.934 1059.04 981.725 1059.06 983.269 1057.85C984.915 1063.62 986.808 1069.01 989.196 1074.52C978.084 1074.87 944.871 1077.16 936.167 1074.12Z"/><path d="M857.627 833.528C860.528 834.015 862.245 834.223 864.408 836.432C869.352 848.775 898.271 944.703 896.263 950.345C888.146 954.358 874.271 952.623 865.25 952.58C854.928 952.677 836.359 954.776 826.881 951.666C825.533 951.224 825.473 951.489 825.061 950.284C823.82 946.646 825.161 941.179 825.978 937.464C829.103 923.243 834.168 909.06 838.215 895.051C843.084 878.2 849.446 847.634 857.627 833.528Z"/><path fill="#3F3F74" d="M859.229 879.385C865.574 882.621 875.157 927.523 878.242 936.657L864.25 936.873C858.186 936.99 849.222 938.189 843.877 935.135C843.034 926.908 856.221 889.589 859.229 879.385Z"/><path fill="#3F3F74" d="M1074.72 420.561C1147.27 416.128 1225.87 427.377 1294.28 451.94C1416.68 495.891 1520.73 572.317 1587.75 685.208C1598.17 702.758 1606.87 720.945 1615.56 739.398C1617.81 727.061 1619.62 702.05 1629.84 694.066C1632.94 691.641 1636.69 690.827 1640.56 691.509C1645.37 692.358 1650.24 694.806 1652.65 699.262C1653.83 701.446 1654.23 703.314 1654.14 705.782C1653.78 716.277 1650.24 727.927 1648.04 738.255C1643.79 758.722 1639.24 779.129 1634.41 799.468C1630.9 802.703 1627.33 806.226 1622.25 806.33C1618.04 806.416 1613.67 805.199 1609.79 803.631C1601.64 800.329 1539.96 767.314 1534.87 762.593C1531.38 759.367 1529.22 755.053 1529.28 750.246C1529.34 745.822 1531.29 741.446 1534.71 738.603C1545.98 729.234 1566.37 743.021 1576.86 749.008C1579.66 750.603 1582.51 753.389 1585.74 753.719L1586.68 752.49C1581.59 743.325 1578.2 733.022 1573.16 723.664C1555.88 691.124 1534.93 660.667 1510.72 632.888C1486.69 605.266 1459.72 580.343 1430.3 558.56C1266.7 439.158 1051.22 417.847 867.402 502.89C846.934 512.126 826.299 522.853 807.391 534.956C796.212 542.112 785.674 550.89 774.182 557.437C771.161 559.159 767.982 560.865 764.468 561.244C760.607 561.661 756.719 560.187 753.844 557.631C750.578 554.728 748.456 550.426 748.342 546.037C748.213 541.056 750.983 536.802 754.28 533.297C765.1 521.795 783.105 512.707 796.552 504.57C880.766 453.688 976.422 424.8 1074.72 420.561Z"/><path fill="#3F3F74" d="M666.891 1382.44C696.494 1382.48 726.493 1385.9 756.043 1387.98L763.896 1393.02C765.563 1397.27 767.511 1401.6 766.738 1406.27C765.786 1412.01 761.039 1415.05 756.71 1418.24C741.232 1418.76 725.442 1417.42 709.963 1416.75C721.481 1431.55 737.756 1444.31 752.363 1456.04C919.183 1592.55 1155.45 1604.56 1335.25 1485.66C1353.71 1473.3 1371.94 1458.99 1387.99 1443.62C1396.62 1435.36 1404.42 1425.21 1413.8 1417.92C1417.1 1415.36 1420.79 1413.39 1425.01 1413.1C1428.93 1412.82 1432.92 1414.13 1435.74 1416.91C1438.66 1419.79 1440.17 1423.8 1440.17 1427.87C1440.18 1437.44 1433.83 1443.36 1427.75 1449.8C1361.52 1517.23 1277.4 1564.32 1185.3 1585.55C1045.11 1618.32 897.612 1592.18 777.223 1513.22C759.172 1501.44 741.396 1488.37 725.013 1474.36C714.715 1465.54 704.983 1454 693.597 1446.88L692.211 1447.51C691.344 1455.08 695.06 1465.36 696.384 1473C697.468 1479.24 698.512 1488.71 694.103 1493.97C691.491 1497.09 688.451 1498.25 684.484 1498.55C679.852 1498.89 674.831 1497.52 671.371 1494.32C664.395 1487.86 653.916 1405.1 653.225 1391.88C657.576 1386.11 659.802 1384.03 666.891 1382.44Z"/><path fill="#FCE262" d="M178.373 943.067C181.822 894.484 195.138 830.29 210.068 783.72C219.139 755.426 228.817 727.097 240.525 699.773C305.495 548.609 413.164 419.691 550.332 328.825C581.442 308.311 613.497 291.275 646.564 274.305C647.036 274.796 647.514 275.281 647.98 275.777C649.673 277.581 650.466 279.212 651.437 281.461C652.843 281.928 654.157 282.358 655.612 282.652C468.027 398.673 334.393 584.646 284.266 799.439C230.386 1026.06 268.979 1264.8 391.513 1462.9C504.461 1645.51 689.475 1783.7 899.15 1832.84C966.012 1848.51 1027.48 1853.83 1095.9 1853C1111.85 1851.35 1127.84 1850.49 1143.8 1848.66C1154.54 1847.42 1165.74 1844.91 1176.47 1844.33C1179.79 1844.15 1183.12 1844.23 1186.19 1845.58C1180.81 1852.25 1075.87 1868.89 1059.86 1870.62C1027.71 1874.11 994.644 1874.45 962.34 1873.47C954.503 1873.23 945.428 1873.65 937.817 1871.96C918.952 1871.33 899.725 1868.04 880.998 1865.51C715.111 1843.09 557.16 1762.39 436.678 1646.84C300.085 1514.93 210.967 1341.54 183.214 1153.69C179.525 1127.94 175.697 1101.96 175.136 1075.9C173.45 1036.38 172.493 981.367 178.373 943.067Z"/><path fill="#AB8935" d="M1095.9 1853C1111.85 1851.35 1127.84 1850.49 1143.8 1848.66C1154.54 1847.42 1165.74 1844.91 1176.47 1844.33C1179.79 1844.15 1183.12 1844.23 1186.19 1845.58C1180.81 1852.25 1075.87 1868.89 1059.86 1870.62C1027.71 1874.11 994.644 1874.45 962.34 1873.47C954.503 1873.23 945.428 1873.65 937.817 1871.96C963.037 1869.5 995.379 1872.32 1021.68 1871.73C1051.3 1871.06 1080.82 1865.55 1110.01 1861.04C1129.32 1859.18 1148.17 1853.14 1167.2 1849.82L1167.77 1848.8C1163.18 1847.46 1116.54 1853.19 1106.22 1853.55C1102.79 1853.55 1099.33 1853.23 1095.9 1853Z"/><path fill="#F2DF68" d="M646.564 274.305C660.882 267.247 745.331 229.138 756.205 231.367C756.568 231.442 756.905 231.606 757.256 231.726L756.181 232.111C745.266 236.12 735.026 241.695 724.509 246.594C714.163 251.413 703.407 255.586 693.416 261.119C680.971 268.012 668.628 277.039 655.612 282.652C654.157 282.358 652.843 281.928 651.437 281.461C650.466 279.212 649.673 277.581 647.98 275.777C647.514 275.281 647.036 274.796 646.564 274.305Z"/></svg>