<svg id="Layer_1" enable-background="new 0 0 462.855 462.855" height="512" viewBox="0 0 462.855 462.855" width="512" xmlns="http://www.w3.org/2000/svg"><g><path d="m460.688 323.497c-3.866 42.359-57.55 69.412-80.4 48.07-2.6 17.44-15 31.69-40.24 38.25-22.86 5.97-36.86-.42-45.44-10.24-50.314 46.39-121.57 37.604-152.73-3.05-148.49 81.6-199.75-175.01-49.6-137.65-90.665-25.075 1.919-120.969 35.31-84.78.01.01.01.02.01.02 1-9.01 24.74-82.27 108.52-39.12 4.93 2.54 10.08 5.48 15.44 8.87 81.34-55.53 119.39 32.16 119.39 32.16 1.08.06 56.7 3.49 52.68 64.15-.39 5.95-1.36 12.45-3.01 19.55 25.1 5.54 42.459 37.64 40.07 63.77z" fill="#ffa4d7"/><g fill="#ff85d4"><path d="m229.948 362.047s-16.39-58.63-62.8-39.22c-35.25 14.74-25.14 57.98-14.53 85.08-17.795-15.432-27.543-37.336-24.47-61.99 9.159-73.7 117.34-55.63 101.8 16.13z"/><path d="m294.607 399.577c-4.87 4.49-9.91 8.45-15.06 11.91-9.06-31.44 1.58-49.44 1.58-49.44 0 .05.581 22.7 13.48 37.53z"/><path d="m132.167 195.027s-25.41-9.36-25.25-28.95c7.79-.41 15.06 1.94 20.67 8.02.01.01.01.02.01.02-1.149 9.47 2.221 17.73 4.57 20.91z"/><path d="m423.627 240.178c-.39 5.95-1.36 12.45-3.01 19.55-10.23-2.27-21.75-.11-33.74 8.67 0-.001 7.46-22.751 36.75-28.22z"/><path d="m368.292 256.97c.672 25.406-9.377 48.572-43.934 39.893 0 0 12.129-2.223 26.349-11.043 8.651-5.365 14.38-13.453 17.585-28.85z"/><path d="m151.993 234.448c-6.774 18.892-7.816 42.102 4.71 68.987-47.971-28.105-95.574-7.645-107.041 34.825-2.944-22.476 3.697-47.089 26.557-57.365 16.816-7.559 41.308-10.615 53.548-4.701-.001-36.354 28.963-44.466 22.226-41.746z"/><path d="m251.557 143.868c-4.26 2.89-10.3 7.17-16.27 13.48 0 0-2.4-14.02.83-22.35 4.931 2.539 10.081 5.479 15.44 8.87z"/></g><circle cx="254.7" cy="47.899" fill="#f6c719" r="15.936"/><circle cx="278.146" cy="314.629" fill="#f6c719" r="15.936"/><path d="m357.635 226.642c-14.103 12.989-33.679 26.773-55.255 40.847-2.874 1.875-6.749.734-8.135-2.405-11.247-25.484-23.604-48.939-39.858-65.732-2.486-2.568-1.849-6.815 1.237-8.619 23.19-13.554 46.568-23.963 62.403-28.357 1.711-.475 3.556-.124 4.933.997 17.329 14.108 28.108 34.425 36.187 57.332.74 2.099.125 4.429-1.512 5.937z" fill="#f6d14f"/><path d="m343.57 220.877c-9.428 8.683-22.514 17.898-36.938 27.306-1.921 1.253-4.512.491-5.438-1.608-7.519-17.036-15.779-32.716-26.645-43.941-1.662-1.717-1.236-4.556.827-5.762 15.502-9.061 31.13-16.019 41.716-18.956 1.144-.317 2.377-.083 3.298.667 11.584 9.431 18.79 23.013 24.191 38.326.494 1.402.083 2.959-1.011 3.968z" fill="#ffe262"/><circle cx="386.666" cy="105.557" fill="#f6c719" r="15.936"/><circle cx="201.208" cy="190.664" fill="#f6c719" r="15.936"/><path d="m394.438 378.447c-5.35-.96-10.21-3.2-14.15-6.88 3.42-22.59-9.63-50.54-32.61-74.18-.024-.024-.032-.02.04-.02 2.06.15 55.98 4.67 46.72 81.08z" fill="#ff85d4"/></g><g><path d="m422.958 258.251c5.645-25.844 2.872-46.482-8.247-61.37-12.345-16.527-31.675-21.159-39.855-22.413 10.163-8.924 12.239-21.072 13.408-51.063 9.123-.832 16.296-8.517 16.296-17.853 0-9.89-8.046-17.936-17.936-17.936-9.891 0-17.937 8.046-17.937 17.936 0 9.088 6.8 16.602 15.577 17.763-1.122 29.294-2.601 40.359-12.974 48.877-4.763-9.403-21.261-37.689-51.054-46.295-20.432-5.901-42.756-1.181-66.405 14.033-2.701-16.017-2.239-39.754 1.421-74.125 6.098-.215 11.239-3.313 14.341-7.979 5.477-8.236 3.23-19.391-5.005-24.867-8.254-5.489-19.378-3.251-24.866 5.005-7.12 10.705-.977 25.129 11.54 27.542-3.677 34.586-4.13 58.612-1.392 74.993-34.865-21.365-64.397-26.502-87.806-15.245-23.277 11.193-33.036 34.997-35.719 44.949-34.711-28.834-112.591 50.689-53.157 83.326-128.988-11.9-75.695 222.764 68.113 145.563 31.372 39.123 101.545 49.405 153.135 3.297 10.918 11.343 26.406 14.494 46.076 9.364 28.291-7.36 38.093-23.278 41.081-36.511 25.468 18.283 77.179-9.205 81.04-51.563 2.34-25.603-14.057-58.359-39.675-65.428zm-50.271-152.699c0-7.685 6.252-13.936 13.937-13.936s13.936 6.252 13.936 13.936-6.251 13.937-13.936 13.937-13.937-6.253-13.937-13.937zm-53.587 24.18c28.62 8.254 44.799 36.748 48.909 44.883-5.407 3.628-12.731 7.055-22.719 11.653-6.175-9.916-13.131-17.953-21.111-24.451-1.857-1.513-4.373-2.026-6.731-1.374-9.899 2.747-22.191 7.625-35.272 13.89-14.201-4.83-23.332-11.529-27.515-30.17 23.124-15.238 44.795-20.097 64.439-14.431zm-63.32 68.224c-1.571-1.625-1.173-4.342.809-5.501 22.383-13.082 45.533-23.607 61.929-28.156 1.118-.309 2.287-.071 3.137.621 14.982 12.198 26.283 30.135 35.563 56.446.469 1.328.084 2.82-.98 3.8-12.278 11.309-29.238 23.844-54.993 40.643-1.842 1.202-4.326.471-5.212-1.538-10.056-22.782-23.001-48.494-40.253-66.315zm-14.786-147.312c-2.461-12.232 11.147-21.158 21.379-14.355 6.399 4.255 8.144 12.923 3.89 19.322-6.823 10.258-22.817 7.219-25.269-4.967zm217.655 272.67s0 .001 0 0c-3.698 40.589-54.394 66.151-76.279 47.425 2.771-21.765-8.779-48.604-31.176-72.526 15.421-6.597 19.497-24.564 19.055-41.301-.029-1.104-.979-1.988-2.052-1.946-1.104.029-1.976.948-1.946 2.052.777 29.442-12.357 45.208-41.448 37.9-1.071-.268-2.158.38-2.427 1.452-.27 1.072.381 2.158 1.452 2.427 7.563 1.9 15.628 2.76 23.177.817 22.783 23.778 34.464 50.491 31.267 71.645v.001c0 .001-.001.002-.001.003-2.692 18.058-16.097 30.72-38.767 36.618-16.971 4.427-33.35 2.982-44.415-10.803-11.364-14.157-12.003-34.869-12.008-35.041 0-1.104-.896-2-2-2s-2 .896-2 2c0 .22.563 21.992 12.719 37.33-69.212 61.902-170.579 18.034-161.716-53.204 8.826-70.961 112.827-53.649 97.865 15.451-.233 1.08.452 2.144 1.532 2.378 1.077.234 2.144-.451 2.378-1.531 11.013-50.864-38.404-76.446-74.132-61.565-10.11-22.616-11.439-44.739-3.894-65.779.373-1.04-.168-2.185-1.208-2.558-1.037-.372-2.185.167-2.558 1.208-7.493 20.898-6.68 42.762 2.407 65.073-47.898-24.733-93.561-2.684-104.786 38.893-.288 1.066.343 2.164 1.409 2.452 1.073.289 2.166-.349 2.452-1.41 10.753-39.825 54.782-60.41 100.958-35.384-14.699 8.153-23.984 22.912-26.392 42.279-2.26 18.161 2.155 35.453 12.741 50.174-143.582 76.245-192.962-171.318-47.108-135.032 1.062.265 2.14-.375 2.417-1.433.278-1.058-.347-2.144-1.401-2.436-86.888-24.04 1.307-114.027 32.713-82.102-.934 10.176 2.836 18.383 5.039 21.368.392.531.997.813 1.611.813 1.619 0 2.588-1.859 1.607-3.188-3.324-4.507-5.267-13.63-4.072-20.282 2.78-15.479 16.335-36.137 34.134-44.696 22.128-10.64 50.404-5.553 84.071 15.101-4.351 3.071-9.214 6.874-14.075 12.005-1.211 1.278-.287 3.375 1.452 3.375.529 0 1.059-.209 1.452-.625 4.98-5.258 10.003-9.086 14.422-12.152 4.338 17.583 13.263 25.189 26.066 30.209-7.445 3.71-15.074 7.823-22.614 12.23-4.227 2.47-5.038 8.251-1.665 11.737 3.198 3.304 6.237 6.888 9.129 10.661-21.467 10.756-34.376 12.126-50.25-6.319 4.427-3.269 7.316-8.508 7.316-14.421 0-9.89-8.046-17.937-17.937-17.937s-17.937 8.046-17.937 17.937c0 12.897 13.263 21.572 25.05 16.458 17.468 20.613 32.525 19.469 56.174 7.539 7.441 10.266 13.842 21.701 19.328 32.777-13.305 11.473-16.68 23.193-15.278 52.067-2.616 1.655-4.846 3.989-6.359 6.937-6.145 11.982 2.677 26.122 15.93 26.12 6.518 0 12.815-3.561 15.989-9.748 4.514-8.8 1.026-19.632-7.773-24.146-4.466-2.291-9.452-2.513-13.872-1.034-1.163-27.537 2.578-37.093 13.181-46.476 2.444 5.078 4.705 10.044 6.774 14.732 1.884 4.271 7.153 5.82 11.058 3.273 25.947-16.926 43.069-29.586 55.517-41.051 2.243-2.066 3.046-5.235 2.043-8.073-4.096-11.612-8.594-21.64-13.623-30.318 9.912-4.564 17.342-8.054 22.944-11.796 16.773 2.628 30.883 7.548 41.195 21.355 10.392 13.913 12.905 33.468 7.526 58.116-10.984-1.811-22.478 1.409-33.38 9.386-1.562 1.143-.742 3.614 1.183 3.614.409 0 .823-.126 1.179-.386 39.581-28.955 73.914 17.469 70.637 53.311zm-257.484-118.718c-7.685 0-13.937-6.252-13.937-13.937s6.252-13.937 13.937-13.937 13.937 6.252 13.937 13.937-6.253 13.937-13.937 13.937zm76.961 96.093c10.299 0 17.151 10.988 12.378 20.295-3.508 6.837-11.927 9.547-18.762 6.04-6.838-3.507-9.547-11.923-6.04-18.761 2.467-4.807 7.359-7.574 12.424-7.574z"/><path d="m307.681 249.853c17.378-11.335 28.852-19.82 37.2-27.51 1.693-1.56 2.299-3.956 1.542-6.105-6.417-18.193-14.302-30.653-24.814-39.212-1.41-1.147-3.312-1.538-5.096-1.042-11.221 3.113-26.993 10.275-42.191 19.157-3.189 1.864-3.813 6.235-1.254 8.88 11.594 11.977 20.12 29.463 26.253 43.358 1.423 3.224 5.405 4.4 8.36 2.474zm-31.34-51.26c14.694-8.588 30.497-15.775 41.243-18.756.548-.152 1.105-.031 1.5.29 9.917 8.074 17.406 19.971 23.567 37.439.226.639.037 1.358-.479 1.833-8.069 7.432-19.724 16.044-36.677 27.102-.891.582-2.09.227-2.516-.74-6.267-14.199-15.004-32.093-27.037-44.525-.757-.781-.549-2.088.399-2.643z"/></g></svg>