<svg width="20" height="20" viewBox="0 0 20 20" fill="none" xmlns="http://www.w3.org/2000/svg">
<path d="M2.34023 15.4752C2.33558 15.5386 2.33324 15.6029 2.33324 15.6669C2.33488 17.139 3.52785 18.3319 4.99992 18.3336C5.15495 18.3338 5.30976 18.3208 5.46257 18.2946C5.77531 19.2274 6.60609 19.8901 7.58511 19.9877C8.56413 20.0852 9.50929 19.5994 9.99992 18.7467C10.4905 19.5995 11.4357 20.0852 12.4147 19.9877C13.3937 19.8901 14.2245 19.2275 14.5373 18.2946C14.6901 18.3208 14.8449 18.3338 14.9999 18.3336C16.472 18.332 17.6649 17.139 17.6666 15.6669C17.6666 15.6029 17.6643 15.5386 17.6596 15.4752C18.4433 15.1613 19.0318 14.4947 19.246 13.6781C19.4603 12.8615 19.2749 11.9918 18.7463 11.3336C19.279 10.669 19.4622 9.78998 19.2394 8.96791C19.0165 8.14584 18.4144 7.4797 17.6189 7.17521C17.6509 7.00767 17.6668 6.83744 17.6666 6.66689C17.67 6.12959 17.5078 5.60431 17.2019 5.16255C17.2897 4.89502 17.3341 4.61513 17.3333 4.33357C17.3316 2.8615 16.1387 1.66857 14.6666 1.66689C14.6186 1.66689 14.5719 1.66689 14.5256 1.67056C14.2013 0.74861 13.3696 0.100172 12.3964 0.0105627C11.4232 -0.0790076 10.4871 0.406695 9.99992 1.25392C9.51277 0.406695 8.5766 -0.0790076 7.60343 0.0106018C6.63027 0.100211 5.79851 0.748649 5.47425 1.6706C5.42792 1.66693 5.38124 1.66693 5.33324 1.66693C3.86117 1.66857 2.66824 2.86154 2.66656 4.33361C2.66578 4.61517 2.71011 4.89506 2.79788 5.16259C2.49203 5.60435 2.32976 6.12963 2.33324 6.66693C2.33304 6.83752 2.34902 7.00771 2.38089 7.17525C1.58542 7.47966 0.983197 8.1458 0.760268 8.96783C0.537338 9.78986 0.720502 10.669 1.25324 11.3336C0.724799 11.9919 0.539525 12.8616 0.753822 13.6781C0.968119 14.4946 1.55663 15.1613 2.34023 15.4752ZM12.1666 0.66693C13.0258 0.670172 13.7688 1.2667 13.9576 2.10494C13.9961 2.28123 14.168 2.39486 14.3453 2.36127C14.4513 2.34205 14.5589 2.33279 14.6666 2.33361C15.7707 2.3347 16.6655 3.22951 16.6666 4.33361C16.6677 4.59275 16.6175 4.84959 16.5189 5.08927C16.4721 5.20197 16.4907 5.33127 16.5673 5.42627C16.8505 5.77744 17.0034 6.2158 16.9999 6.66693C17.0005 6.88037 16.9668 7.09256 16.8999 7.29525C16.8705 7.38396 16.8796 7.48095 16.9251 7.56256C16.9706 7.6442 17.0483 7.70298 17.1393 7.72455C17.8453 7.89537 18.4029 8.43615 18.5952 9.1367C18.7875 9.8372 18.5842 10.5869 18.0643 11.0942C17.9995 11.157 17.9629 11.2434 17.9629 11.3336C17.9629 11.4238 17.9995 11.5101 18.0643 11.5729C18.5755 12.0718 18.7813 12.8058 18.6039 13.4977C18.4266 14.1897 17.8931 14.7342 17.2049 14.9256C17.0367 14.9717 16.9325 15.1397 16.9659 15.311C16.9888 15.4283 17.0002 15.5475 16.9999 15.667C16.9982 16.3038 16.6941 16.902 16.1806 17.2786C15.6671 17.6553 15.0052 17.7656 14.3973 17.576C14.3059 17.5469 14.2066 17.5586 14.1244 17.6079C14.0423 17.6573 13.9854 17.7397 13.9682 17.834C13.7896 18.759 12.9389 19.398 12.0007 19.3119C11.0625 19.2259 10.3423 18.4427 10.3349 17.5006V14.0003H11.6682C11.8523 14.0003 12.0016 14.1495 12.0016 14.3336V15.0616C11.5424 15.224 11.2669 15.6935 11.3493 16.1735C11.4316 16.6536 11.8478 17.0044 12.3349 17.0044C12.8219 17.0044 13.2381 16.6536 13.3205 16.1735C13.4028 15.6935 13.1274 15.224 12.6682 15.0616V14.3336C12.6682 13.7813 12.2205 13.3336 11.6682 13.3336H10.3332V12.6669H13.3332C13.5173 12.6669 13.6665 12.5177 13.6665 12.3336C13.6665 12.1495 13.5173 12.0003 13.3332 12.0003H10.3332V11.3336H10.9999C11.184 11.3336 11.3332 11.1844 11.3332 11.0003C11.3332 10.8162 11.184 10.667 10.9999 10.667H10.3332V10.0003H14.9999C15.184 10.0003 15.3332 10.1495 15.3332 10.3336V11.0616C14.8741 11.224 14.5986 11.6935 14.681 12.1735C14.7633 12.6536 15.1795 13.0044 15.6666 13.0044C16.1536 13.0044 16.5698 12.6536 16.6521 12.1735C16.7345 11.6935 16.4591 11.224 15.9999 11.0616V10.3336C15.9999 9.78131 15.5521 9.33361 14.9999 9.33361H10.3332V8.66693H12.6666C12.8507 8.66693 12.9999 8.51771 12.9999 8.33361C12.9999 8.14951 12.8506 8.00029 12.6666 8.00029H10.3332V7.33361H14.9999C15.184 7.33361 15.3332 7.18435 15.3332 7.00029C15.3332 6.81619 15.184 6.66697 14.9999 6.66697H10.3332V6.00029H11.6666C12.2188 6.00029 12.6666 5.55256 12.6666 5.00029V4.27228C13.1257 4.10994 13.4012 3.64041 13.3188 3.16037C13.2365 2.68033 12.8203 2.32947 12.3332 2.32947C11.8462 2.32947 11.43 2.68033 11.3477 3.16037C11.2653 3.64041 11.5407 4.10994 11.9999 4.27228V5.00029C11.9999 5.18439 11.8507 5.33361 11.6666 5.33361H10.3333V2.50025C10.3344 1.48818 11.1545 0.668024 12.1666 0.66693ZM12.3332 15.6669C12.5173 15.6669 12.6666 15.8162 12.6666 16.0002C12.6666 16.1844 12.5173 16.3336 12.3332 16.3336C12.1491 16.3336 11.9999 16.1843 11.9999 16.0002C11.9999 15.8161 12.1491 15.6669 12.3332 15.6669ZM15.6666 11.6669C15.8507 11.6669 15.9999 11.8161 15.9999 12.0002C15.9999 12.1844 15.8507 12.3336 15.6666 12.3336C15.4825 12.3336 15.3333 12.1844 15.3333 12.0002C15.3333 11.8161 15.4825 11.6669 15.6666 11.6669ZM12.3332 3.66693C12.1491 3.66693 11.9999 3.51767 11.9999 3.33361C11.9999 3.14951 12.1491 3.00029 12.3332 3.00029C12.5173 3.00029 12.6666 3.14955 12.6666 3.33361C12.6666 3.51767 12.5173 3.66693 12.3332 3.66693ZM1.93523 11.0942C1.41535 10.5869 1.21203 9.8372 1.40429 9.1367C1.59656 8.43619 2.15417 7.89537 2.86023 7.72455C2.95121 7.70302 3.02898 7.64427 3.07456 7.56263C3.12015 7.48099 3.12933 7.38396 3.09988 7.29521C3.03304 7.09248 2.99929 6.88033 2.99988 6.66689C2.99663 6.21568 3.14976 5.77728 3.4332 5.42623C3.5098 5.33123 3.52831 5.20193 3.48152 5.08923C3.38277 4.84959 3.33234 4.59279 3.3332 4.33357C3.33429 3.22947 4.2291 2.33466 5.3332 2.33357C5.44093 2.33275 5.54851 2.34201 5.65453 2.36123C5.83183 2.39482 6.00367 2.28119 6.04218 2.1049C6.24238 1.18955 7.10054 0.572477 8.03199 0.674078C8.96343 0.77568 9.66839 1.56326 9.66652 2.50025V7.24224C9.16199 6.66521 8.433 6.334 7.66652 6.33357C7.48242 6.33357 7.3332 6.48283 7.3332 6.66689C7.3332 6.85095 7.48245 7.00021 7.66652 7.00021C8.77062 7.00131 9.66542 7.89611 9.66652 9.00021V14.2422C9.16199 13.6652 8.433 13.334 7.66652 13.3335C7.48242 13.3335 7.3332 13.4828 7.3332 13.6669C7.3332 13.851 7.48245 14.0002 7.66652 14.0002C8.77062 14.0013 9.66542 14.8961 9.66652 16.0002V17.5002C9.65913 18.4422 8.9389 19.2254 8.00074 19.3115C7.06257 19.3975 6.21187 18.7585 6.0332 17.8335C6.01605 17.7392 5.95917 17.6569 5.87703 17.6075C5.79492 17.5581 5.6955 17.5465 5.60417 17.5755C4.99609 17.7659 4.33371 17.6559 3.81976 17.2792C3.30581 16.9025 3.00148 16.304 2.99984 15.6669C2.99941 15.5474 3.01054 15.4281 3.03316 15.3108C3.0666 15.1396 2.96238 14.9716 2.79417 14.9255C2.10605 14.734 1.57265 14.1894 1.39538 13.4975C1.21812 12.8056 1.42394 12.0717 1.93519 11.5728C1.99995 11.5101 2.03652 11.4237 2.03652 11.3335C2.03656 11.2434 1.99999 11.157 1.93523 11.0942Z" fill="#909090"/>
<path d="M4.99986 6.00027C5.18396 6.00027 5.33318 5.85102 5.33318 5.66695C5.33318 4.93059 5.93014 4.33363 6.6665 4.33363C6.85061 4.33363 6.99982 4.18437 6.99982 4.00031C6.99982 3.81621 6.85057 3.66699 6.6665 3.66699C5.5624 3.66809 4.6676 4.56289 4.6665 5.66699C4.66654 5.85102 4.81576 6.00027 4.99986 6.00027Z" fill="#909090"/>
<path d="M3.99982 13.3336C4.18393 13.3336 4.33314 13.1844 4.33314 13.0003C4.33424 12.0803 5.07979 11.3347 5.99982 11.3336C6.18393 11.3336 6.33314 11.1844 6.33314 11.0003C6.33314 10.8161 6.18389 10.6669 5.99982 10.6669C4.71178 10.6684 3.66795 11.7122 3.6665 13.0003C3.6665 13.1844 3.81572 13.3336 3.99982 13.3336Z" fill="#909090"/>
</svg>
