<svg width="13" height="21" viewBox="0 0 13 21" fill="none" xmlns="http://www.w3.org/2000/svg">
<path d="M3.41657 3.16667H10.0833C10.2674 3.16667 10.4166 3.01741 10.4166 2.83335C10.4166 2.64929 10.2673 2.50003 10.0833 2.50003H3.41657C3.23247 2.50003 3.08325 2.64929 3.08325 2.83335C3.08325 3.01741 3.23247 3.16667 3.41657 3.16667Z" fill="#909090"/>
<path d="M0.75 15.5V17.1243C0.750039 17.4473 0.867305 17.7593 1.08 18.0023L2.86699 20.0447C3.12016 20.334 3.48586 20.5 3.87031 20.5H9.62965C10.0141 20.5 10.3798 20.334 10.633 20.0447L12.42 18.0023C12.6327 17.7593 12.7499 17.4473 12.75 17.1243V15.5C12.7493 15.2629 12.6222 15.0441 12.4166 14.926V6.07398C12.6222 5.95586 12.7493 5.73711 12.75 5.5V3.87566C12.7499 3.5527 12.6327 3.2407 12.42 2.99766L10.633 0.955312C10.3798 0.666016 10.0141 0.500039 9.62965 0.5H3.87035C3.4859 0.500039 3.12019 0.666016 2.86703 0.955352L1.08 2.99766C0.867305 3.2407 0.750039 3.5527 0.75 3.87566V5.5C0.750703 5.73711 0.877734 5.95586 1.08332 6.07398V14.926C0.877734 15.0441 0.750703 15.2629 0.75 15.5ZM2.08332 6.16668C2.45152 6.16668 2.75 5.8682 2.75 5.5V4.5H5.75V5.5C5.75 5.8682 6.04848 6.16668 6.41668 6.16668H7.08336C7.45156 6.16668 7.75004 5.8682 7.75004 5.5V4.5H10.75V5.5C10.75 5.8682 11.0485 6.16668 11.4167 6.16668H11.75V14.8334H11.4167C11.0485 14.8334 10.75 15.1318 10.75 15.5V16.5H7.75V15.5C7.75 15.1318 7.45152 14.8333 7.08332 14.8333H6.41664C6.04844 14.8333 5.74996 15.1318 5.74996 15.5V16.5H2.74996V15.5C2.74996 15.1318 2.45148 14.8333 2.08328 14.8333H1.75V6.16668H2.08332ZM12.0833 17.1243C12.0832 17.2857 12.0246 17.4416 11.9183 17.563L10.1313 19.6057C10.0051 19.7499 9.82297 19.8329 9.63133 19.8333H3.87035C3.67871 19.8328 3.49656 19.7499 3.37035 19.6057L1.58336 17.563C1.47648 17.4418 1.41727 17.2859 1.41668 17.1243V15.5H2.08336V16.5C2.08336 16.8682 2.38184 17.1667 2.75004 17.1667H5.75004C6.11824 17.1667 6.41672 16.8682 6.41672 16.5V15.5H7.0834V16.5C7.0834 16.8682 7.38188 17.1667 7.75008 17.1667H10.7501C11.1183 17.1667 11.4168 16.8682 11.4168 16.5V15.5H12.0834V17.1243H12.0833ZM1.41668 3.87566C1.41723 3.71406 1.47645 3.5582 1.58336 3.43699L3.37035 1.39434C3.49656 1.25012 3.67871 1.16715 3.87035 1.16668H9.62969C9.82133 1.16719 10.0035 1.25012 10.1297 1.39434L11.9167 3.43699C12.0236 3.5582 12.0828 3.71406 12.0834 3.87566V5.5H11.4167V4.5C11.4167 4.1318 11.1182 3.83332 10.75 3.83332H7.75C7.3818 3.83332 7.08332 4.1318 7.08332 4.5V5.5H6.41664V4.5C6.41664 4.1318 6.11816 3.83332 5.74996 3.83332H2.74996C2.38176 3.83332 2.08328 4.1318 2.08328 4.5V5.5H1.4166V3.87566H1.41668Z" fill="#909090"/>
<path d="M10.0832 17.8333H3.41657C3.23247 17.8333 3.08325 17.9825 3.08325 18.1666C3.08325 18.3507 3.23247 18.5 3.41657 18.5H10.0833C10.2674 18.5 10.4166 18.3507 10.4166 18.1666C10.4166 17.9825 10.2673 17.8333 10.0832 17.8333Z" fill="#909090"/>
<path d="M5.27454 11.5037H5.78321L5.42989 13.44C5.37543 13.7275 5.53278 14.0133 5.80489 14.121C5.87903 14.151 5.95825 14.1665 6.03821 14.1667C6.24332 14.1665 6.43457 14.063 6.54688 13.8913L8.7802 10.5393C8.91688 10.3348 8.92977 10.0715 8.81372 9.85456C8.69766 9.63761 8.47157 9.50222 8.22555 9.50234H7.66188L8.32422 7.73566C8.40168 7.53074 8.37348 7.30081 8.24883 7.12066C8.12418 6.9405 7.91899 6.83308 7.69989 6.83331H6.10789C5.80192 6.83339 5.53528 7.04175 5.46121 7.33867L4.62789 10.675C4.57801 10.8742 4.62266 11.0853 4.74899 11.2471C4.87532 11.409 5.06922 11.5037 5.27454 11.5037ZM6.10789 7.49999H7.69989L6.86887 9.718C6.83051 9.82034 6.84477 9.93499 6.907 10.0248C6.96922 10.1147 7.07157 10.1683 7.18086 10.1684H8.22485L6.13051 13.3123L6.50883 11.2284C6.52641 11.1311 6.49997 11.0311 6.43664 10.9553C6.37332 10.8795 6.27961 10.8357 6.18082 10.8357H5.2745L6.10789 7.49999Z" fill="#909090"/>
<path d="M2.4167 13.5C2.4167 13.6841 2.56592 13.8333 2.75002 13.8333C2.93412 13.8333 3.08334 13.6841 3.08334 13.5C3.07725 13.2041 3.17541 12.9155 3.36069 12.6846C3.87932 11.9796 3.87932 11.0193 3.36069 10.3143C2.99096 9.83385 2.99096 9.16471 3.36069 8.68428C3.61908 8.34405 3.75615 7.92713 3.75002 7.49995C3.75002 7.31584 3.6008 7.16663 3.4167 7.16663C3.2326 7.16663 3.08338 7.31588 3.08338 7.49995C3.08944 7.79565 2.99127 8.08405 2.80604 8.31459C2.28697 9.0192 2.28697 9.97963 2.80604 10.6842C3.17576 11.1649 3.17576 11.8342 2.80604 12.3149C2.5476 12.6555 2.41057 13.0726 2.4167 13.5Z" fill="#909090"/>
<path d="M9.74995 13.5C9.74995 13.6841 9.89917 13.8333 10.0833 13.8333C10.2674 13.8333 10.4166 13.6841 10.4166 13.5C10.4105 13.2041 10.5087 12.9155 10.6939 12.6846C11.2126 11.9796 11.2126 11.0193 10.6939 10.3143C10.3242 9.83385 10.3242 9.16471 10.6939 8.68428C10.9523 8.34405 11.0894 7.92713 11.0833 7.49995C11.0833 7.31584 10.9341 7.16663 10.75 7.16663C10.5659 7.16663 10.4166 7.31588 10.4166 7.49995C10.4227 7.79565 10.3245 8.08405 10.1393 8.31459C9.62023 9.0192 9.62023 9.97963 10.1393 10.6842C10.509 11.1649 10.509 11.8342 10.1393 12.3149C9.88089 12.6555 9.74382 13.0726 9.74995 13.5Z" fill="#909090"/>
</svg>
