<svg width="21" height="21" viewBox="0 0 21 21" fill="none" xmlns="http://www.w3.org/2000/svg">
<g clip-path="url(#clip0_1036_1113)">
<path d="M8.16682 5.49985H4.8335C4.28123 5.49985 3.8335 5.94758 3.8335 6.49985V9.16653C3.8335 9.71879 4.28123 10.1665 4.8335 10.1665H8.16682C8.71908 10.1665 9.16682 9.71879 9.16682 9.16653V6.49985C9.16682 5.94758 8.71912 5.49985 8.16682 5.49985ZM8.16682 9.49985H4.8335C4.64939 9.49985 4.50018 9.35059 4.50018 9.16653V6.49985C4.50018 6.31575 4.64943 6.16653 4.8335 6.16653H8.16682C8.35092 6.16653 8.50014 6.31578 8.50014 6.49985V6.83317H6.83346C6.64936 6.83317 6.50014 6.98239 6.50014 7.16649C6.50014 7.35059 6.64939 7.49981 6.83346 7.49981H8.50014V8.49981H6.83346C6.64936 8.49981 6.50014 8.64907 6.50014 8.83313C6.50014 9.01723 6.64939 9.16645 6.83346 9.16645H8.50014C8.50018 9.35063 8.35092 9.49985 8.16682 9.49985Z" fill="#909090"/>
<path d="M19.931 5.79285C19.744 5.60461 19.4893 5.4991 19.224 5.49984H12.1101C12.0213 5.5 11.9361 5.46473 11.8734 5.40184L11.599 5.1275C11.4112 4.93836 11.1553 4.83235 10.8887 4.83317H10.11C10.0212 4.83332 9.93605 4.79805 9.87335 4.73516L9.59902 4.46083C9.41113 4.27169 9.15531 4.16567 8.88867 4.16649H4.07342C3.82565 4.16774 3.58319 4.23829 3.37343 4.37016L2.70742 3.9772C2.39339 3.79005 2.00316 3.78544 1.68484 3.96513C1.36649 4.14481 1.16879 4.48129 1.16676 4.84684C1.16715 5.18559 1.33903 5.50109 1.62344 5.68515L2.20011 6.06648L1.01977 8.08948C0.954654 8.20229 0.912623 8.32694 0.896099 8.45615C0.875123 8.59326 0.884342 8.7333 0.923091 8.8665L1.48742 10.8368C1.00055 12.5568 0.670866 14.3173 0.50243 16.0968C0.483094 16.3739 0.579812 16.6465 0.769498 16.8494C0.959185 17.0523 1.22469 17.1672 1.50242 17.1665H3.51343C4.05198 17.1643 4.49307 16.7379 4.51342 16.1998C4.6101 13.9211 5.22041 13.1825 5.57674 12.9444C5.76611 13.4762 6.26896 13.8318 6.83341 13.8331H7.80008C8.17117 13.8317 8.52625 13.6817 8.78609 13.4168C8.94382 13.2536 9.05699 13.0526 9.11476 12.8331H16.1667C16.719 12.8331 17.1667 12.3854 17.1667 11.8331V11.4998H19.224C19.4894 11.5005 19.744 11.395 19.931 11.2068L20.207 10.9308C20.3953 10.7438 20.5008 10.4892 20.5 10.2238V6.77581C20.5008 6.51046 20.3953 6.25585 20.207 6.06882L19.931 5.79285ZM1.98875 5.12617C1.89312 5.06528 1.83469 4.9602 1.8334 4.84684C1.83582 4.72114 1.90488 4.60622 2.01473 4.54512C2.12457 4.48403 2.25867 4.48594 2.36672 4.5502L2.90003 4.86586L2.53703 5.48851L1.98875 5.12617ZM3.8471 16.1698C3.84178 16.3508 3.69491 16.4957 3.51378 16.4985H1.50176C1.40961 16.4986 1.32145 16.4606 1.25832 16.3935C1.19516 16.3264 1.16262 16.2361 1.16844 16.1441C1.33672 14.3766 1.66699 12.6282 2.15512 10.9211C2.17156 10.8624 2.17156 10.8002 2.15512 10.7415L1.60711 8.83314H2.50011V9.83314C2.50121 10.7531 3.24675 11.4987 4.16678 11.4998H5.84212C5.68045 11.712 5.57267 11.9602 5.52814 12.2231C4.99514 12.4021 3.97581 13.1411 3.84714 16.1711L3.8471 16.1698ZM8.30805 12.9494C8.17442 13.0866 7.99157 13.1648 7.80004 13.1664H6.83337C6.46517 13.1664 6.16669 12.868 6.16669 12.4998C6.16759 12.2759 6.24447 12.0589 6.3847 11.8844C6.54587 12.1261 6.76317 12.3252 7.01802 12.4648C7.18251 12.5476 7.38301 12.4814 7.46586 12.3169C7.54872 12.1524 7.48251 11.9519 7.31801 11.8691C7.1688 11.7853 7.04102 11.6681 6.9447 11.5267C7.01743 11.5093 7.09192 11.5002 7.16669 11.4997H7.50001C8.03992 11.509 8.47871 11.9382 8.5 12.4777C8.50293 12.655 8.43363 12.8257 8.30801 12.9507L8.30805 12.9494ZM19.7357 10.4581L19.4597 10.7341C19.3972 10.7966 19.3124 10.8318 19.224 10.8318H9.83339C9.64929 10.8318 9.50007 10.981 9.50007 11.1651C9.50007 11.3492 9.64933 11.4984 9.83339 11.4984H16.5V11.8318C16.5 12.0159 16.3508 12.1651 16.1667 12.1651H9.12972C8.96765 11.3929 8.28906 10.8382 7.50008 10.8331H4.16674C3.61448 10.8331 3.16675 10.3854 3.16675 9.8331V8.8331C3.16675 8.4649 2.86827 8.16643 2.50007 8.16643H1.74645L3.49745 5.16645C3.61714 4.96145 3.83608 4.83473 4.07346 4.83313H8.88879C8.97863 4.83309 9.06472 4.8691 9.12777 4.93313L9.4021 5.20746C9.58952 5.39562 9.84452 5.50094 10.1101 5.4998H10.8888C10.9786 5.49976 11.0647 5.53578 11.1278 5.5998L11.4021 5.87414C11.5895 6.0623 11.8445 6.16761 12.1101 6.16648H19.224C19.3124 6.16648 19.3972 6.20164 19.4597 6.26414L19.7357 6.54015C19.7982 6.60265 19.8334 6.68741 19.8334 6.77581V6.83316H13.4693C13.2061 6.83304 12.9486 6.91101 12.7297 7.05714L12.0667 7.49979H10.8334C10.2811 7.49979 9.83339 7.94752 9.83339 8.49979C9.83339 9.05205 10.2811 9.49978 10.8334 9.49978H12.0667L12.731 9.94279C12.9497 10.0884 13.2066 10.1663 13.4693 10.1665H19.8333V10.2238C19.8333 10.3122 19.7981 10.397 19.7356 10.4595V10.4581H19.7357ZM19.8333 9.49982H19.1667V9.1665C19.1667 8.9824 19.0174 8.83318 18.8333 8.83318C18.6492 8.83318 18.5 8.98244 18.5 9.1665V9.49982H17.8333V9.1665C17.8333 8.9824 17.6841 8.83318 17.5 8.83318C17.3159 8.83318 17.1667 8.98244 17.1667 9.1665V9.49982H16.5V9.1665C16.5 8.9824 16.3508 8.83318 16.1667 8.83318C15.9827 8.83318 15.8334 8.98244 15.8334 9.1665V9.49982H15.1667V9.1665C15.1667 8.9824 15.0175 8.83318 14.8334 8.83318C14.6493 8.83318 14.5001 8.98244 14.5001 9.1665V9.49982H13.8334V9.1665C13.8334 8.9824 13.6842 8.83318 13.5001 8.83318C13.316 8.83318 13.1668 8.98244 13.1668 9.1665V9.41951C13.1439 9.41029 13.1217 9.3997 13.1001 9.38783L12.5001 8.98783V8.01116L13.1001 7.61116C13.1217 7.59885 13.144 7.58772 13.1668 7.57784V7.83319C13.1668 8.01729 13.316 8.16651 13.5001 8.16651C13.6842 8.16651 13.8334 8.01729 13.8334 7.83319V7.49987H14.5001V7.83319C14.5001 8.01729 14.6493 8.16651 14.8334 8.16651C15.0175 8.16651 15.1667 8.01729 15.1667 7.83319V7.49987H15.8334V7.83319C15.8334 8.01729 15.9826 8.16651 16.1667 8.16651C16.3508 8.16651 16.5 8.01729 16.5 7.83319V7.49987H17.1667V7.83319C17.1667 8.01729 17.316 8.16651 17.5 8.16651C17.6841 8.16651 17.8333 8.01729 17.8333 7.83319V7.49987H18.5V7.83319C18.5 8.01729 18.6493 8.16651 18.8333 8.16651C19.0174 8.16651 19.1667 8.01729 19.1667 7.83319V7.49987H19.8333V9.49982ZM10.8334 8.83314C10.6493 8.83314 10.5001 8.68393 10.5001 8.49983C10.5001 8.31572 10.6493 8.16651 10.8334 8.16651H11.8334V8.83318L10.8334 8.83314Z" fill="#909090"/>
</g>
<defs>
<clipPath id="clip0_1036_1113">
<rect width="20" height="20" fill="white" transform="translate(0.5 0.5)"/>
</clipPath>
</defs>
</svg>
