<svg width="21" height="20" viewBox="0 0 21 20" fill="none" xmlns="http://www.w3.org/2000/svg">
<g clip-path="url(#clip0_1037_748)">
<path d="M5.24994 5.45453C5.50097 5.45453 5.70447 5.25103 5.70447 5C5.70447 4.74897 5.50097 4.54547 5.24994 4.54547C4.99891 4.54547 4.79541 4.74897 4.79541 5C4.79541 5.25103 4.99891 5.45453 5.24994 5.45453Z" fill="#909090"/>
<path d="M15.2499 5.45453C15.501 5.45453 15.7045 5.25103 15.7045 5C15.7045 4.74897 15.501 4.54547 15.2499 4.54547C14.9989 4.54547 14.7954 4.74897 14.7954 5C14.7954 5.25103 14.9989 5.45453 15.2499 5.45453Z" fill="#909090"/>
<path d="M5.24994 15.4545C5.50097 15.4545 5.70447 15.251 5.70447 15C5.70447 14.749 5.50097 14.5455 5.24994 14.5455C4.99891 14.5455 4.79541 14.749 4.79541 15C4.79541 15.251 4.99891 15.4545 5.24994 15.4545Z" fill="#909090"/>
<path d="M15.2499 15.4545C15.501 15.4545 15.7045 15.251 15.7045 15C15.7045 14.749 15.501 14.5455 15.2499 14.5455C14.9989 14.5455 14.7954 14.749 14.7954 15C14.7954 15.251 14.9989 15.4545 15.2499 15.4545Z" fill="#909090"/>
<path d="M19.7955 9.0909C20.0468 9.0909 20.25 8.88727 20.25 8.63637C20.25 8.38547 20.0468 8.18184 19.7955 8.18184H17.5227V6.36367H19.7955C20.0468 6.36367 20.25 6.16004 20.25 5.90914C20.25 5.65824 20.0468 5.45461 19.7955 5.45461H17.5227V5C17.5227 3.74684 16.5032 2.72727 15.25 2.72727H14.7955V0.454531C14.7955 0.203633 14.5923 0 14.3409 0C14.0895 0 13.8864 0.203633 13.8864 0.454531V2.72727H12.0682V0.454531C12.0682 0.203633 11.865 0 11.6136 0C11.3623 0 11.1591 0.203633 11.1591 0.454531V2.72727H9.34094V0.454531C9.3409 0.203633 9.13773 0 8.88637 0C8.635 0 8.43184 0.203633 8.43184 0.454531V2.72727H6.61367V0.454531C6.61363 0.203633 6.41047 0 6.1591 0C5.90773 0 5.70457 0.203633 5.70457 0.454531V2.72727H5.25C3.99684 2.72727 2.97727 3.7468 2.97727 5V5.45453H0.704531C0.453164 5.45453 0.25 5.65816 0.25 5.9091C0.25 6.16 0.453164 6.36363 0.704531 6.36363H2.97727V8.1818H0.704531C0.453164 8.18184 0.25 8.38547 0.25 8.63637C0.25 8.88727 0.453164 9.0909 0.704531 9.0909H2.97727V10.9091H0.704531C0.453164 10.9091 0.25 11.1127 0.25 11.3636C0.25 11.6145 0.453164 11.8182 0.704531 11.8182H2.97727V13.6363H0.704531C0.453164 13.6364 0.25 13.84 0.25 14.0909C0.25 14.3418 0.453164 14.5454 0.704531 14.5454H2.97727V15C2.97727 16.2532 3.9968 17.2727 5.25 17.2727H5.70453V19.5455C5.70453 19.7964 5.9077 20 6.15906 20C6.41043 20 6.61359 19.7964 6.61359 19.5455V17.2727H8.43176V19.5455C8.43176 19.7964 8.63492 20 8.88629 20C9.13766 20 9.34082 19.7964 9.34082 19.5455V17.2727H11.159V19.5455C11.159 19.7964 11.3621 20 11.6135 20C11.8649 20 12.068 19.7964 12.068 19.5455V17.2727H13.8862V19.5455C13.8862 19.7964 14.0894 20 14.3407 20C14.5921 20 14.7953 19.7964 14.7953 19.5455V17.2727H15.25C16.5032 17.2727 17.5227 16.2532 17.5227 15V14.5455H19.7955C20.0468 14.5455 20.25 14.3418 20.25 14.0909C20.25 13.84 20.0468 13.6364 19.7955 13.6364H17.0682C16.8168 13.6364 16.6137 13.84 16.6137 14.0909V15C16.6137 15.7518 16.0018 16.3636 15.25 16.3636H5.25C4.49816 16.3636 3.88637 15.7518 3.88637 15V5C3.88637 4.24816 4.4982 3.63637 5.25 3.63637H15.25C16.0018 3.63637 16.6136 4.2482 16.6136 5V12.2727C16.6136 12.5236 16.8168 12.7273 17.0682 12.7273C17.3195 12.7273 17.5227 12.5236 17.5227 12.2727V11.8182H19.7954C20.0468 11.8182 20.25 11.6146 20.25 11.3637C20.25 11.1128 20.0468 10.9091 19.7954 10.9091H17.5227V9.09098H19.7955V9.0909Z" fill="#909090"/>
<path d="M8.88645 7.27275C8.13461 7.27275 7.52281 7.88459 7.52281 8.63639C7.52281 9.22822 7.90418 9.72822 8.43191 9.91639V13.6364H7.06828C6.81781 13.6364 6.61418 13.4323 6.61418 13.1819V6.81818C6.61418 6.56772 6.81781 6.36365 7.06871 6.36365H9.79555C10.0469 6.36365 10.2501 6.16002 10.2501 5.90912C10.2501 5.65822 10.0469 5.45459 9.79555 5.45459H7.06871C6.31688 5.45459 5.70508 6.06643 5.70508 6.81822V13.1819C5.70508 13.9337 6.31691 14.5455 7.06824 14.5455H8.88641C9.13777 14.5455 9.34094 14.3419 9.34094 14.091V9.91639C9.86867 9.72822 10.25 9.22822 10.25 8.63639C10.2501 7.88455 9.63824 7.27275 8.88645 7.27275ZM8.88645 9.09092C8.63555 9.09092 8.43191 8.88682 8.43191 8.63639C8.43191 8.38592 8.63555 8.18186 8.88645 8.18186C9.13734 8.18186 9.34098 8.38596 9.34098 8.63639C9.34098 8.88686 9.13734 9.09092 8.88645 9.09092Z" fill="#909090"/>
<path d="M13.4314 5.45453H11.6137C11.3623 5.45453 11.1591 5.65816 11.1591 5.90906V10.0836C10.6314 10.2718 10.25 10.7718 10.25 11.3636C10.25 12.1155 10.8619 12.7273 11.6137 12.7273C12.3655 12.7273 12.9773 12.1154 12.9773 11.3636C12.9773 10.7718 12.5959 10.2718 12.0682 10.0836V6.36363H13.4314C13.6823 6.36363 13.8859 6.56773 13.8859 6.81816V13.1818C13.8859 13.4323 13.6823 13.6363 13.4314 13.6363H10.7045C10.4532 13.6363 10.25 13.84 10.25 14.0909C10.25 14.3418 10.4532 14.5454 10.7045 14.5454H13.4314C14.1832 14.5454 14.795 13.9336 14.795 13.1818V6.81816C14.795 6.06636 14.1832 5.45453 13.4314 5.45453ZM11.6137 11.8182C11.3628 11.8182 11.1591 11.6141 11.1591 11.3636C11.1591 11.1132 11.3628 10.9091 11.6137 10.9091C11.8646 10.9091 12.0682 11.1132 12.0682 11.3636C12.0682 11.6141 11.8646 11.8182 11.6137 11.8182Z" fill="#909090"/>
</g>
<defs>
<clipPath id="clip0_1037_748">
<rect width="20" height="20" fill="white" transform="translate(0.25)"/>
</clipPath>
</defs>
</svg>
