<svg width="20" height="21" viewBox="0 0 20 21" fill="none" xmlns="http://www.w3.org/2000/svg">
<g clip-path="url(#clip0_1036_1037)">
<path d="M2.38897 18.4667V19.1667C2.38897 19.903 2.98593 20.5 3.72231 20.5H6.99997C7.73635 20.5 8.33331 19.903 8.33331 19.1667V18.5H11.6666V19.1667C11.6666 19.903 12.2636 20.5 13 20.5H16.2776C17.014 20.5 17.611 19.903 17.611 19.1667V18.472C18.4112 18.3368 18.9977 17.6449 19 16.8333V2.16667C18.9989 1.24665 18.2533 0.501102 17.3333 0.5H2.72331C1.80329 0.501102 1.05774 1.24665 1.05664 2.16667V3.5C1.05664 3.68409 1.20588 3.83333 1.38997 3.83333C1.57407 3.83333 1.72331 3.68409 1.72331 3.5V2.16667C1.72331 1.61438 2.17102 1.16667 2.72331 1.16667H17.3333C17.8856 1.16667 18.3333 1.61438 18.3333 2.16667V16.8333C18.3333 17.3856 17.8856 17.8333 17.3333 17.8333H2.72331C2.17102 17.8333 1.72331 17.3856 1.72331 16.8333V5.16667C1.72331 4.98257 1.57407 4.83333 1.38997 4.83333C1.20588 4.83333 1.05664 4.98257 1.05664 5.16667V16.8333C1.05754 17.6247 1.6139 18.3068 2.38897 18.4667ZM16.9443 18.5V19.1667C16.9443 19.5349 16.6458 19.8333 16.2776 19.8333H13C12.6318 19.8333 12.3333 19.5349 12.3333 19.1667V18.5H16.9443ZM7.66664 18.5V19.1667C7.66664 19.5349 7.36816 19.8333 6.99997 19.8333H3.72231C3.35412 19.8333 3.05564 19.5349 3.05564 19.1667V18.5H7.66664Z" fill="#909090"/>
<path d="M3.66659 11.8333C3.48249 11.8333 3.33325 11.9826 3.33325 12.1667V15.1667C3.33325 15.719 3.78097 16.1667 4.33325 16.1667H15.6666C16.2189 16.1667 16.6666 15.719 16.6666 15.1667V14.8333C17.2189 14.8333 17.6666 14.3856 17.6666 13.8333V11.8333C17.6666 11.2811 17.2189 10.8333 16.6666 10.8333V8.16668C17.2189 8.16668 17.6666 7.71896 17.6666 7.16668V5.16668C17.6666 4.61439 17.2189 4.16668 16.6666 4.16668V3.83334C16.6666 3.28106 16.2189 2.83334 15.6666 2.83334H4.33325C3.78097 2.83334 3.33325 3.28106 3.33325 3.83334V10.5C3.33325 10.6841 3.48249 10.8333 3.66659 10.8333C3.85068 10.8333 3.99992 10.6841 3.99992 10.5V3.83334C3.99992 3.64925 4.14916 3.50001 4.33325 3.50001H15.6666C15.8507 3.50001 15.9999 3.64925 15.9999 3.83334V4.16668C15.4476 4.16668 14.9999 4.61439 14.9999 5.16668V7.16668C14.9999 7.71896 15.4476 8.16668 15.9999 8.16668V10.8333C15.4476 10.8333 14.9999 11.2811 14.9999 11.8333V13.8333C14.9999 14.3856 15.4476 14.8333 15.9999 14.8333V15.1667C15.9999 15.3508 15.8507 15.5 15.6666 15.5H4.33325C4.14916 15.5 3.99992 15.3508 3.99992 15.1667V12.1667C3.99992 11.9826 3.85068 11.8333 3.66659 11.8333ZM15.6666 7.16668V5.16668C15.6666 4.98258 15.8158 4.83334 15.9999 4.83334H16.6666C16.8507 4.83334 16.9999 4.98258 16.9999 5.16668V7.16668C16.9999 7.35077 16.8507 7.50001 16.6666 7.50001H15.9999C15.8158 7.50001 15.6666 7.35077 15.6666 7.16668ZM15.6666 13.8333V11.8333C15.6666 11.6492 15.8158 11.5 15.9999 11.5H16.6666C16.8507 11.5 16.9999 11.6492 16.9999 11.8333V13.8333C16.9999 14.0174 16.8507 14.1667 16.6666 14.1667H15.9999C15.8158 14.1667 15.6666 14.0174 15.6666 13.8333Z" fill="#909090"/>
<path d="M6.30469 11.0307C7.03494 12.7937 8.90892 13.7954 10.7806 13.4231C12.6522 13.0509 14.0002 11.4083 14.0002 9.5C14.0002 7.59169 12.6522 5.94913 10.7806 5.57685C8.90892 5.20457 7.03494 6.20627 6.30469 7.96933C5.89551 8.94876 5.89551 10.0512 6.30469 11.0307ZM8.42269 6.564L8.54403 6.85667C8.5879 6.96921 8.68922 7.04921 8.80887 7.06578C8.92852 7.08235 9.04777 7.03289 9.12058 6.9365C9.19338 6.84012 9.20835 6.71189 9.15969 6.60133L9.03869 6.30867C9.6654 6.11801 10.3347 6.11801 10.9614 6.30867L10.8404 6.60133C10.7917 6.71189 10.8067 6.84012 10.8795 6.9365C10.9523 7.03289 11.0715 7.08235 11.1912 7.06578C11.3108 7.04921 11.4122 6.96921 11.456 6.85667L11.5774 6.56367C12.1552 6.87213 12.6284 7.34539 12.9367 7.92333L12.644 8.04467C12.5315 8.08854 12.4515 8.18986 12.4349 8.30951C12.4183 8.42916 12.4678 8.54841 12.5642 8.62122C12.6606 8.69402 12.7888 8.70899 12.8994 8.66033L13.192 8.53933C13.3827 9.16604 13.3827 9.83529 13.192 10.462L12.8994 10.341C12.7888 10.2923 12.6606 10.3073 12.5642 10.3801C12.4678 10.4529 12.4183 10.5722 12.4349 10.6918C12.4515 10.8115 12.5315 10.9128 12.644 10.9567L12.937 11.078C12.6286 11.6559 12.1553 12.129 11.5774 12.4373L11.456 12.1447C11.4122 12.0321 11.3108 11.9521 11.1912 11.9356C11.0715 11.919 10.9523 11.9684 10.8795 12.0648C10.8067 12.1612 10.7917 12.2894 10.8404 12.4L10.9614 12.6927C10.3347 12.8833 9.6654 12.8833 9.03869 12.6927L9.15969 12.4C9.20835 12.2894 9.19338 12.1612 9.12058 12.0648C9.04777 11.9684 8.92852 11.919 8.80887 11.9356C8.68922 11.9521 8.5879 12.0321 8.54403 12.1447L8.42269 12.4377C7.84483 12.1292 7.37169 11.6559 7.06336 11.078L7.35603 10.9567C7.46857 10.9128 7.54857 10.8115 7.56514 10.6918C7.58171 10.5722 7.53225 10.4529 7.43587 10.3801C7.33948 10.3073 7.21125 10.2923 7.10069 10.341L6.80803 10.462C6.61737 9.83529 6.61737 9.16604 6.80803 8.53933L7.10069 8.66033C7.21125 8.70899 7.33948 8.69402 7.43587 8.62122C7.53225 8.54841 7.58171 8.42916 7.56514 8.30951C7.54857 8.18986 7.46857 8.08854 7.35603 8.04467L7.06303 7.92333C7.37139 7.34522 7.84466 6.87184 8.42269 6.56333V6.564Z" fill="#909090"/>
<path d="M10.0027 11.5C10.8835 11.4986 11.6597 10.9212 11.9143 10.078C12.1688 9.2348 11.8418 8.32433 11.1089 7.83581C10.376 7.3473 9.40977 7.39576 8.72943 7.95515C8.04908 8.51454 7.81477 9.45316 8.15241 10.2667C8.46338 11.0138 9.19344 11.5005 10.0027 11.5ZM9.48974 8.26667C10.1701 7.98598 10.9493 8.30969 11.2304 8.98988C11.5116 9.67007 11.1884 10.4494 10.5085 10.7311C9.82846 11.0127 9.04887 10.6901 8.76674 10.0103C8.63007 9.68336 8.62955 9.31537 8.76529 8.98801C8.90102 8.66065 9.1618 8.401 9.48974 8.26667Z" fill="#909090"/>
<path d="M6.66675 4.16666H5.00008C4.81599 4.16666 4.66675 4.31589 4.66675 4.49999V6.16666C4.66675 6.35075 4.81599 6.49999 5.00008 6.49999C5.18418 6.49999 5.33341 6.35075 5.33341 6.16666V4.83332H6.66675C6.85084 4.83332 7.00008 4.68408 7.00008 4.49999C7.00008 4.31589 6.85084 4.16666 6.66675 4.16666Z" fill="#909090"/>
</g>
<defs>
<clipPath id="clip0_1036_1037">
<rect width="20" height="20" fill="white" transform="translate(0 0.5)"/>
</clipPath>
</defs>
</svg>
